{
.appVersion = "870";
date = "2016-03-11 05:41:28 +0000";
designer = Pablo;
familyName = Rin;
featurePrefixes = (
{
automatic = 1;
code = "languagesystem DFLT dflt;\012";
name = Languagesystems;
}
);
fontMaster = (
{
alignmentZones = (
"{1062, 16}",
"{1013, 16}",
"{673, 16}",
"{0, -16}",
"{-338, 16}"
);
ascender = 1062;
capHeight = 1013;
customParameters = (
{
name = typoAscender;
value = "1216";
},
{
name = winAscent;
value = "1216";
},
{
name = typoDescender;
value = "-436";
},
{
name = winDescent;
value = "-436";
},
{
name = typoLineGap;
value = "0";
},
{
name = parametroArea;
value = "306";
},
{
name = parametroProfundidad;
value = "15";
},
{
name = parametroExcedente;
value = "0";
}
);
descender = -338;
guideLines = (
{
position = "{-226, -436}";
},
{
position = "{312, 1216}";
}
);
id = "BE599D47-15C2-4DC8-BE97-05FFE6CA3179";
italicAngle = 16;
xHeight = 673;
}
);
glyphs = (
{
color = -1;
glyphname = A;
lastChange = "2016-04-03 01:55:00 +0000";
layers = (
{
background = {
paths = (
{
closed = 1;
nodes = (
"206 -63 OFFCURVE",
"250 97 OFFCURVE",
"273 156 CURVE SMOOTH",
"332 308 OFFCURVE",
"435 450 OFFCURVE",
"538 617 CURVE",
"542 617 LINE",
"543 601 OFFCURVE",
"544 586 OFFCURVE",
"544 571 CURVE SMOOTH",
"544 408 OFFCURVE",
"484 279 OFFCURVE",
"484 121 CURVE SMOOTH",
"484 -7 OFFCURVE",
"514 -77 OFFCURVE",
"624 -77 CURVE SMOOTH",
"720 -77 OFFCURVE",
"803 -34 OFFCURVE",
"868 23 CURVE",
"836 80 OFFCURVE",
"826 147 OFFCURVE",
"826 226 CURVE SMOOTH",
"826 445 OFFCURVE",
"888 648 OFFCURVE",
"888 806 CURVE SMOOTH",
"888 932 OFFCURVE",
"842 975 OFFCURVE",
"741 975 CURVE SMOOTH",
"599 975 OFFCURVE",
"462 960 OFFCURVE",
"359 921 CURVE",
"399 848 OFFCURVE",
"235 636 OFFCURVE",
"146 492 CURVE SMOOTH",
"40 335 OFFCURVE",
"-58 181 OFFCURVE",
"-58 61 CURVE SMOOTH",
"-58 -46 OFFCURVE",
"17 -77 OFFCURVE",
"208 -100 CURVE"
);
},
{
closed = 1;
nodes = (
"577 244 LINE",
"602 380 LINE",
"191 380 LINE",
"166 244 LINE"
);
}
);
};
layerId = "BE599D47-15C2-4DC8-BE97-05FFE6CA3179";
paths = (
{
closed = 1;
nodes = (
"206 -1 OFFCURVE",
"250 159 OFFCURVE",
"273 218 CURVE SMOOTH",
"332 370 OFFCURVE",
"435 512 OFFCURVE",
"538 679 CURVE",
"542 679 LINE",
"543 663 OFFCURVE",
"544 648 OFFCURVE",
"544 633 CURVE SMOOTH",
"544 470 OFFCURVE",
"484 341 OFFCURVE",
"484 183 CURVE SMOOTH",
"484 55 OFFCURVE",
"514 -15 OFFCURVE",
"624 -15 CURVE SMOOTH",
"720 -15 OFFCURVE",
"803 28 OFFCURVE",
"868 85 CURVE",
"836 142 OFFCURVE",
"826 209 OFFCURVE",
"826 288 CURVE SMOOTH",
"826 507 OFFCURVE",
"888 710 OFFCURVE",
"888 868 CURVE SMOOTH",
"888 994 OFFCURVE",
"842 1037 OFFCURVE",
"741 1037 CURVE SMOOTH",
"599 1037 OFFCURVE",
"462 1022 OFFCURVE",
"359 983 CURVE",
"399 910 OFFCURVE",
"235 698 OFFCURVE",
"146 554 CURVE SMOOTH",
"40 397 OFFCURVE",
"-58 243 OFFCURVE",
"-58 123 CURVE SMOOTH",
"-58 16 OFFCURVE",
"17 -15 OFFCURVE",
"208 -38 CURVE"
);
},
{
closed = 1;
nodes = (
"596 233 LINE",
"622 422 LINE",
"211 422 LINE",
"185 233 LINE"
);
}
);
width = 909;
},
{
associatedMasterId = "BE599D47-15C2-4DC8-BE97-05FFE6CA3179";
background = {
paths = (
{
closed = 1;
nodes = (
"399 339 OFFCURVE",
"351 282 OFFCURVE",
"285 282 CURVE SMOOTH",
"242 282 OFFCURVE",
"217 305 OFFCURVE",
"196 374 CURVE",
"48 332 OFFCURVE",
"-28 199 OFFCURVE",
"-28 75 CURVE SMOOTH",
"-28 -56 OFFCURVE",
"59 -118 OFFCURVE",
"160 -118 CURVE SMOOTH",
"237 -118 OFFCURVE",
"315 -82 OFFCURVE",
"392 33 CURVE SMOOTH",
"543 258 OFFCURVE",
"682 600 OFFCURVE",
"768 720 CURVE SMOOTH",
"788 748 OFFCURVE",
"810 763 OFFCURVE",
"826 763 CURVE SMOOTH",
"840 763 OFFCURVE",
"850 752 OFFCURVE",
"850 731 CURVE SMOOTH",
"850 722 OFFCURVE",
"848 718 OFFCURVE",
"846 711 CURVE SMOOTH",
"806 571 OFFCURVE",
"626 211 OFFCURVE",
"626 11 CURVE SMOOTH",
"626 -118 OFFCURVE",
"706 -177 OFFCURVE",
"816 -177 CURVE SMOOTH",
"914 -177 OFFCURVE",
"1052 -130 OFFCURVE",
"1141 -43 CURVE",
"1082 -19 OFFCURVE",
"1061 33 OFFCURVE",
"1061 101 CURVE SMOOTH",
"1061 293 OFFCURVE",
"1232 612 OFFCURVE",
"1232 781 CURVE SMOOTH",
"1232 920 OFFCURVE",
"1119 967 OFFCURVE",
"997 967 CURVE SMOOTH",
"798 967 OFFCURVE",
"694 862 OFFCURVE",
"524 558 CURVE SMOOTH"
);
},
{
closed = 1;
nodes = (
"451 294 LINE",
"845 294 LINE",
"867 400 LINE",
"473 400 LINE"
);
}
);
};
layerId = "F338CEEC-FB4F-4EA2-8628-1D3334EBA76A";
name = "Regular Italic Mar 25 16, 21:13";
paths = (
{
closed = 1;
nodes = (
"399 339 OFFCURVE",
"351 282 OFFCURVE",
"285 282 CURVE SMOOTH",
"242 282 OFFCURVE",
"217 305 OFFCURVE",
"196 374 CURVE",
"48 332 OFFCURVE",
"-28 199 OFFCURVE",
"-28 75 CURVE SMOOTH",
"-28 -56 OFFCURVE",
"59 -118 OFFCURVE",
"160 -118 CURVE SMOOTH",
"237 -118 OFFCURVE",
"315 -82 OFFCURVE",
"414 66 CURVE SMOOTH",
"543 258 OFFCURVE",
"668 580 OFFCURVE",
"758 707 CURVE SMOOTH",
"788 748 OFFCURVE",
"810 763 OFFCURVE",
"826 763 CURVE SMOOTH",
"840 763 OFFCURVE",
"850 752 OFFCURVE",
"850 731 CURVE SMOOTH",
"850 632 OFFCURVE",
"626 245 OFFCURVE",
"626 18 CURVE SMOOTH",
"626 -118 OFFCURVE",
"706 -177 OFFCURVE",
"816 -177 CURVE SMOOTH",
"917 -177 OFFCURVE",
"1062 -130 OFFCURVE",
"1151 -43 CURVE",
"1092 -19 OFFCURVE",
"1071 33 OFFCURVE",
"1071 101 CURVE SMOOTH",
"1061 293 OFFCURVE",
"1232 612 OFFCURVE",
"1242 781 CURVE SMOOTH",
"1242 920 OFFCURVE",
"1124 967 OFFCURVE",
"997 967 CURVE SMOOTH",
"798 967 OFFCURVE",
"694 862 OFFCURVE",
"524 558 CURVE SMOOTH"
);
},
{
closed = 1;
nodes = (
"451 294 LINE",
"845 294 LINE",
"867 400 LINE",
"473 400 LINE"
);
}
);
width = 1201;
},
{
associatedMasterId = "BE599D47-15C2-4DC8-BE97-05FFE6CA3179";
background = {
paths = (
{
closed = 1;
nodes = (
"-40 17 OFFCURVE",
"10 -37 OFFCURVE",
"233 -78 CURVE",
"232 -55 OFFCURVE",
"260 27 OFFCURVE",
"269 60 CURVE SMOOTH",
"321 250 OFFCURVE",
"496 466 OFFCURVE",
"618 642 CURVE",
"602 652 LINE",
"608 418 OFFCURVE",
"490 237 OFFCURVE",
"526 32 CURVE SMOOTH",
"542 -59 OFFCURVE",
"587 -78 OFFCURVE",
"673 -78 CURVE SMOOTH",
"748 -78 OFFCURVE",
"833 -38 OFFCURVE",
"891 10 CURVE",
"880 33 OFFCURVE",
"870 57 OFFCURVE",
"865 90 CURVE SMOOTH",
"821 379 OFFCURVE",
"1009 692 OFFCURVE",
"966 870 CURVE SMOOTH",
"947 948 OFFCURVE",
"892 967 OFFCURVE",
"817 967 CURVE SMOOTH",
"671 967 OFFCURVE",
"663 928 OFFCURVE",
"482 972 CURVE",
"413 730 OFFCURVE",
"87 400 OFFCURVE",
"20 198 CURVE SMOOTH"
);
},
{
closed = 1;
nodes = (
"246 294 LINE",
"640 294 LINE",
"665 400 LINE",
"271 400 LINE"
);
}
);
};
layerId = "66A671F9-7F48-4C16-93CB-3ACF993B3A6F";
name = "Regular Italic Mar 28 16, 05:23";
paths = (
{
closed = 1;
nodes = (
"-55 17 OFFCURVE",
"-1 -37 OFFCURVE",
"242 -78 CURVE",
"241 -55 OFFCURVE",
"269 27 OFFCURVE",
"278 60 CURVE SMOOTH",
"328 243 OFFCURVE",
"492 451 OFFCURVE",
"609 621 CURVE",
"613 621 LINE",
"618 399 OFFCURVE",
"500 226 OFFCURVE",
"535 32 CURVE SMOOTH",
"551 -59 OFFCURVE",
"596 -78 OFFCURVE",
"682 -78 CURVE SMOOTH",
"760 -78 OFFCURVE",
"848 -38 OFFCURVE",
"908 10 CURVE",
"897 33 OFFCURVE",
"887 57 OFFCURVE",
"882 90 CURVE SMOOTH",
"838 379 OFFCURVE",
"1026 692 OFFCURVE",
"983 870 CURVE SMOOTH",
"963 948 OFFCURVE",
"905 967 OFFCURVE",
"826 967 CURVE SMOOTH",
"679 967 OFFCURVE",
"671 928 OFFCURVE",
"489 972 CURVE",
"419 730 OFFCURVE",
"81 400 OFFCURVE",
"10 198 CURVE SMOOTH"
);
},
{
closed = 1;
nodes = (
"228 254 LINE",
"639 254 LINE",
"664 390 LINE",
"253 390 LINE"
);
}
);
width = 951;
},
{
associatedMasterId = "BE599D47-15C2-4DC8-BE97-05FFE6CA3179";
background = {
paths = (
{
closed = 1;
nodes = (
"-55 17 OFFCURVE",
"-1 -37 OFFCURVE",
"242 -78 CURVE",
"241 -55 OFFCURVE",
"269 27 OFFCURVE",
"278 60 CURVE SMOOTH",
"328 243 OFFCURVE",
"492 451 OFFCURVE",
"609 621 CURVE",
"613 621 LINE",
"618 399 OFFCURVE",
"500 226 OFFCURVE",
"535 32 CURVE SMOOTH",
"551 -59 OFFCURVE",
"596 -78 OFFCURVE",
"682 -78 CURVE SMOOTH",
"760 -78 OFFCURVE",
"848 -38 OFFCURVE",
"908 10 CURVE",
"897 33 OFFCURVE",
"887 57 OFFCURVE",
"882 90 CURVE SMOOTH",
"838 379 OFFCURVE",
"1026 692 OFFCURVE",
"983 870 CURVE SMOOTH",
"963 948 OFFCURVE",
"905 967 OFFCURVE",
"826 967 CURVE SMOOTH",
"679 967 OFFCURVE",
"671 928 OFFCURVE",
"489 972 CURVE",
"419 730 OFFCURVE",
"81 400 OFFCURVE",
"10 198 CURVE SMOOTH"
);
},
{
closed = 1;
nodes = (
"228 254 LINE",
"639 254 LINE",
"664 390 LINE",
"253 390 LINE"
);
}
);
};
layerId = "5712074A-C34A-4DB5-AD6F-C80BF40B468C";
name = "Regular Italic Mar 28 16, 05:28";
paths = (
{
closed = 1;
nodes = (
"242 -41 OFFCURVE",
"295 117 OFFCURVE",
"321 174 CURVE SMOOTH",
"390 322 OFFCURVE",
"498 459 OFFCURVE",
"609 621 CURVE",
"613 621 LINE",
"617 423 OFFCURVE",
"529 284 OFFCURVE",
"529 96 CURVE SMOOTH",
"529 -18 OFFCURVE",
"561 -78 OFFCURVE",
"674 -78 CURVE SMOOTH",
"764 -78 OFFCURVE",
"844 -40 OFFCURVE",
"908 10 CURVE",
"882 64 OFFCURVE",
"875 115 OFFCURVE",
"875 176 CURVE SMOOTH",
"875 420 OFFCURVE",
"989 643 OFFCURVE",
"989 812 CURVE SMOOTH",
"989 929 OFFCURVE",
"935 967 OFFCURVE",
"817 967 CURVE SMOOTH",
"741 967 OFFCURVE",
"692 951 OFFCURVE",
"632 951 CURVE SMOOTH",
"598 951 OFFCURVE",
"555 956 OFFCURVE",
"489 972 CURVE",
"404 679 OFFCURVE",
"-15 324 OFFCURVE",
"-15 87 CURVE SMOOTH",
"-15 -12 OFFCURVE",
"59 -46 OFFCURVE",
"242 -78 CURVE"
);
},
{
closed = 1;
nodes = (
"639 254 LINE",
"664 390 LINE",
"253 390 LINE",
"228 254 LINE"
);
}
);
width = 951;
},
{
associatedMasterId = "BE599D47-15C2-4DC8-BE97-05FFE6CA3179";
background = {
paths = (
{
closed = 1;
nodes = (
"-61 17 OFFCURVE",
"-7 -37 OFFCURVE",
"236 -78 CURVE",
"235 -55 OFFCURVE",
"263 27 OFFCURVE",
"272 60 CURVE SMOOTH",
"322 243 OFFCURVE",
"486 451 OFFCURVE",
"603 621 CURVE",
"607 621 LINE",
"612 399 OFFCURVE",
"494 226 OFFCURVE",
"529 32 CURVE SMOOTH",
"545 -59 OFFCURVE",
"590 -78 OFFCURVE",
"676 -78 CURVE SMOOTH",
"754 -78 OFFCURVE",
"842 -38 OFFCURVE",
"902 10 CURVE",
"891 33 OFFCURVE",
"881 57 OFFCURVE",
"876 90 CURVE SMOOTH",
"832 379 OFFCURVE",
"1020 692 OFFCURVE",
"977 870 CURVE SMOOTH",
"957 948 OFFCURVE",
"899 967 OFFCURVE",
"820 967 CURVE SMOOTH",
"673 967 OFFCURVE",
"665 928 OFFCURVE",
"483 972 CURVE",
"413 730 OFFCURVE",
"75 400 OFFCURVE",
"4 198 CURVE SMOOTH"
);
},
{
closed = 1;
nodes = (
"222 254 LINE",
"633 254 LINE",
"658 390 LINE",
"247 390 LINE"
);
}
);
};
layerId = "0C6A4436-E03B-45C0-AD49-6A3736D3407A";
name = "Regular Italic Mar 28 16, 05:31";
paths = (
{
closed = 1;
nodes = (
"242 -63 OFFCURVE",
"286 97 OFFCURVE",
"309 156 CURVE SMOOTH",
"368 308 OFFCURVE",
"471 450 OFFCURVE",
"574 617 CURVE",
"578 617 LINE",
"592 420 OFFCURVE",
"511 276 OFFCURVE",
"521 89 CURVE SMOOTH",
"527 -25 OFFCURVE",
"562 -83 OFFCURVE",
"675 -77 CURVE SMOOTH",
"765 -72 OFFCURVE",
"843 -31 OFFCURVE",
"904 23 CURVE",
"875 75 OFFCURVE",
"866 126 OFFCURVE",
"863 187 CURVE SMOOTH",
"851 430 OFFCURVE",
"952 659 OFFCURVE",
"943 828 CURVE SMOOTH",
"937 945 OFFCURVE",
"881 980 OFFCURVE",
"763 974 CURVE SMOOTH",
"687 970 OFFCURVE",
"639 952 OFFCURVE",
"579 948 CURVE SMOOTH",
"545 946 OFFCURVE",
"502 949 OFFCURVE",
"435 961 CURVE",
"401 815 OFFCURVE",
"288 649 OFFCURVE",
"182 492 CURVE SMOOTH",
"72 328 OFFCURVE",
"-28 172 OFFCURVE",
"-22 51 CURVE SMOOTH",
"-17 -48 OFFCURVE",
"59 -78 OFFCURVE",
"244 -100 CURVE"
);
},
{
closed = 1;
nodes = (
"613 244 LINE",
"638 380 LINE",
"227 380 LINE",
"202 244 LINE"
);
}
);
width = 939;
},
{
associatedMasterId = "BE599D47-15C2-4DC8-BE97-05FFE6CA3179";
background = {
paths = (
{
closed = 1;
nodes = (
"242 -63 OFFCURVE",
"286 97 OFFCURVE",
"309 156 CURVE SMOOTH",
"368 308 OFFCURVE",
"471 450 OFFCURVE",
"574 617 CURVE",
"578 617 LINE",
"579 601 OFFCURVE",
"580 586 OFFCURVE",
"580 571 CURVE SMOOTH",
"580 408 OFFCURVE",
"520 279 OFFCURVE",
"520 121 CURVE SMOOTH",
"520 -7 OFFCURVE",
"550 -77 OFFCURVE",
"660 -77 CURVE SMOOTH",
"756 -77 OFFCURVE",
"839 -34 OFFCURVE",
"904 23 CURVE",
"872 80 OFFCURVE",
"862 147 OFFCURVE",
"862 226 CURVE SMOOTH",
"862 445 OFFCURVE",
"944 648 OFFCURVE",
"944 806 CURVE SMOOTH",
"944 932 OFFCURVE",
"895 975 OFFCURVE",
"787 975 CURVE SMOOTH",
"592 975 OFFCURVE",
"530 971 OFFCURVE",
"435 961 CURVE",
"401 815 OFFCURVE",
"288 649 OFFCURVE",
"182 492 CURVE SMOOTH",
"76 335 OFFCURVE",
"-22 181 OFFCURVE",
"-22 61 CURVE SMOOTH",
"-22 -46 OFFCURVE",
"53 -77 OFFCURVE",
"244 -100 CURVE"
);
},
{
closed = 1;
nodes = (
"613 244 LINE",
"638 380 LINE",
"227 380 LINE",
"202 244 LINE"
);
}
);
};
layerId = "CA961428-86AA-4AB8-8952-31052F681C2C";
name = "Regular Italic Mar 28 16, 05:33";
paths = (
{
closed = 1;
nodes = (
"242 -63 OFFCURVE",
"286 97 OFFCURVE",
"309 156 CURVE SMOOTH",
"368 308 OFFCURVE",
"471 450 OFFCURVE",
"574 617 CURVE",
"578 617 LINE",
"579 601 OFFCURVE",
"580 586 OFFCURVE",
"580 571 CURVE SMOOTH",
"580 408 OFFCURVE",
"520 279 OFFCURVE",
"520 121 CURVE SMOOTH",
"520 -7 OFFCURVE",
"550 -77 OFFCURVE",
"660 -77 CURVE SMOOTH",
"756 -77 OFFCURVE",
"839 -34 OFFCURVE",
"904 23 CURVE",
"872 80 OFFCURVE",
"862 147 OFFCURVE",
"862 226 CURVE SMOOTH",
"862 445 OFFCURVE",
"944 648 OFFCURVE",
"944 806 CURVE SMOOTH",
"944 932 OFFCURVE",
"895 975 OFFCURVE",
"787 975 CURVE SMOOTH",
"688 975 OFFCURVE",
"635 947 OFFCURVE",
"559 947 CURVE SMOOTH",
"529 947 OFFCURVE",
"490 951 OFFCURVE",
"435 961 CURVE",
"401 815 OFFCURVE",
"288 649 OFFCURVE",
"182 492 CURVE SMOOTH",
"76 335 OFFCURVE",
"-22 181 OFFCURVE",
"-22 61 CURVE SMOOTH",
"-22 -46 OFFCURVE",
"53 -77 OFFCURVE",
"244 -100 CURVE"
);
},
{
closed = 1;
nodes = (
"613 244 LINE",
"638 380 LINE",
"227 380 LINE",
"202 244 LINE"
);
}
);
width = 939;
},
{
associatedMasterId = "BE599D47-15C2-4DC8-BE97-05FFE6CA3179";
background = {
paths = (
{
closed = 1;
nodes = (
"234 -63 OFFCURVE",
"278 97 OFFCURVE",
"301 156 CURVE SMOOTH",
"360 308 OFFCURVE",
"463 450 OFFCURVE",
"566 617 CURVE",
"570 617 LINE",
"571 601 OFFCURVE",
"572 586 OFFCURVE",
"572 571 CURVE SMOOTH",
"572 408 OFFCURVE",
"512 279 OFFCURVE",
"512 121 CURVE SMOOTH",
"512 -7 OFFCURVE",
"542 -77 OFFCURVE",
"652 -77 CURVE SMOOTH",
"748 -77 OFFCURVE",
"831 -34 OFFCURVE",
"896 23 CURVE",
"864 80 OFFCURVE",
"854 147 OFFCURVE",
"854 226 CURVE SMOOTH",
"854 445 OFFCURVE",
"936 648 OFFCURVE",
"936 806 CURVE SMOOTH",
"936 932 OFFCURVE",
"887 975 OFFCURVE",
"779 975 CURVE SMOOTH",
"680 975 OFFCURVE",
"627 947 OFFCURVE",
"551 947 CURVE SMOOTH",
"521 947 OFFCURVE",
"482 951 OFFCURVE",
"427 961 CURVE",
"393 815 OFFCURVE",
"280 649 OFFCURVE",
"174 492 CURVE SMOOTH",
"68 335 OFFCURVE",
"-30 181 OFFCURVE",
"-30 61 CURVE SMOOTH",
"-30 -46 OFFCURVE",
"45 -77 OFFCURVE",
"236 -100 CURVE"
);
},
{
closed = 1;
nodes = (
"605 244 LINE",
"630 380 LINE",
"219 380 LINE",
"194 244 LINE"
);
}
);
};
layerId = "91D9C0AA-863E-4433-BE0E-35712C1D4481";
name = "Regular Italic Apr 1 16, 22:39";
paths = (
{
closed = 1;
nodes = (
"234 -63 OFFCURVE",
"278 97 OFFCURVE",
"301 156 CURVE SMOOTH",
"360 308 OFFCURVE",
"463 450 OFFCURVE",
"566 617 CURVE",
"570 617 LINE",
"571 601 OFFCURVE",
"572 586 OFFCURVE",
"572 571 CURVE SMOOTH",
"572 408 OFFCURVE",
"512 279 OFFCURVE",
"512 121 CURVE SMOOTH",
"512 -7 OFFCURVE",
"542 -77 OFFCURVE",
"652 -77 CURVE SMOOTH",
"748 -77 OFFCURVE",
"831 -34 OFFCURVE",
"896 23 CURVE",
"864 80 OFFCURVE",
"854 147 OFFCURVE",
"854 226 CURVE SMOOTH",
"854 445 OFFCURVE",
"916 648 OFFCURVE",
"916 806 CURVE SMOOTH",
"916 932 OFFCURVE",
"870 975 OFFCURVE",
"769 975 CURVE SMOOTH",
"627 975 OFFCURVE",
"490 960 OFFCURVE",
"387 921 CURVE",
"427 848 OFFCURVE",
"263 636 OFFCURVE",
"174 492 CURVE SMOOTH",
"68 335 OFFCURVE",
"-30 181 OFFCURVE",
"-30 61 CURVE SMOOTH",
"-30 -46 OFFCURVE",
"45 -77 OFFCURVE",
"236 -100 CURVE"
);
},
{
closed = 1;
nodes = (
"605 244 LINE",
"630 380 LINE",
"219 380 LINE",
"194 244 LINE"
);
}
);
width = 966;
}
);
unicode = 0041;
},
{
glyphname = Aring;
lastChange = "2016-04-03 02:15:27 +0000";
layers = (
{
components = (
{
name = A;
}
);
layerId = "BE599D47-15C2-4DC8-BE97-05FFE6CA3179";
paths = (
{
closed = 1;
nodes = (
"730 963 OFFCURVE",
"832 1042 OFFCURVE",
"832 1124 CURVE SMOOTH",
"832 1165 OFFCURVE",
"806 1216 OFFCURVE",
"715 1216 CURVE SMOOTH",
"595 1216 OFFCURVE",
"480 1129 OFFCURVE",
"480 1043 CURVE SMOOTH",
"480 992 OFFCURVE",
"520 963 OFFCURVE",
"599 963 CURVE SMOOTH"
);
},
{
closed = 1;
nodes = (
"616 1048 OFFCURVE",
"604 1057 OFFCURVE",
"604 1074 CURVE SMOOTH",
"604 1103 OFFCURVE",
"638 1131 OFFCURVE",
"673 1131 CURVE SMOOTH",
"700 1131 OFFCURVE",
"708 1115 OFFCURVE",
"708 1101 CURVE SMOOTH",
"708 1074 OFFCURVE",
"678 1048 OFFCURVE",
"639 1048 CURVE SMOOTH"
);
}
);
width = 909;
}
);
unicode = 00C5;
},
{
glyphname = B;
lastChange = "2016-04-03 01:55:00 +0000";
layers = (
{
background = {
paths = (
{
closed = 1;
nodes = (
"351 967 LINE SMOOTH",
"252 967 OFFCURVE",
"170 952 OFFCURVE",
"121 748 CURVE",
"190 748 OFFCURVE",
"207 738 OFFCURVE",
"207 684 CURVE SMOOTH",
"207 505 OFFCURVE",
"17 258 OFFCURVE",
"17 111 CURVE SMOOTH",
"17 -49 OFFCURVE",
"211 -79 OFFCURVE",
"437 -79 CURVE SMOOTH",
"658 -79 OFFCURVE",
"884 61 OFFCURVE",
"919 250 CURVE SMOOTH",
"945 389 OFFCURVE",
"900 592 OFFCURVE",
"333 516 CURVE",
"283 327 LINE",
"504 358 OFFCURVE",
"582 344 OFFCURVE",
"582 266 CURVE SMOOTH",
"582 224 OFFCURVE",
"552 176 OFFCURVE",
"402 176 CURVE SMOOTH",
"374 176 OFFCURVE",
"347 186 OFFCURVE",
"347 213 CURVE SMOOTH",
"347 284 OFFCURVE",
"528 665 OFFCURVE",
"581 763 CURVE",
"453 700 LINE",
"522 721 OFFCURVE",
"560 723 OFFCURVE",
"574 723 CURVE SMOOTH",
"615 723 OFFCURVE",
"666 698 OFFCURVE",
"652 639 CURVE SMOOTH",
"633 558 OFFCURVE",
"606 530 OFFCURVE",
"503 485 CURVE",
"700 410 LINE",
"851 473 OFFCURVE",
"957 601 OFFCURVE",
"957 708 CURVE SMOOTH",
"957 858 OFFCURVE",
"827 967 OFFCURVE",
"620 967 CURVE"
);
}
);
};
layerId = "BE599D47-15C2-4DC8-BE97-05FFE6CA3179";
paths = (
{
closed = 1;
nodes = (
"17 35 OFFCURVE",
"191 -17 OFFCURVE",
"378 -17 CURVE SMOOTH",
"665 -17 OFFCURVE",
"924 119 OFFCURVE",
"924 367 CURVE SMOOTH",
"924 430 OFFCURVE",
"901 497 OFFCURVE",
"820 543 CURVE",
"904 609 OFFCURVE",
"957 694 OFFCURVE",
"957 770 CURVE SMOOTH",
"957 920 OFFCURVE",
"827 1029 OFFCURVE",
"620 1029 CURVE SMOOTH",
"351 1029 LINE SMOOTH",
"252 1029 OFFCURVE",
"170 1014 OFFCURVE",
"121 810 CURVE",
"190 810 OFFCURVE",
"207 800 OFFCURVE",
"207 746 CURVE SMOOTH",
"207 567 OFFCURVE",
"17 320 OFFCURVE",
"17 174 CURVE SMOOTH"
);
},
{
closed = 1;
nodes = (
"348 309 OFFCURVE",
"368 362 OFFCURVE",
"383 398 CURVE",
"414 400 OFFCURVE",
"441 401 OFFCURVE",
"463 401 CURVE SMOOTH",
"554 401 OFFCURVE",
"581 382 OFFCURVE",
"581 330 CURVE SMOOTH",
"581 283 OFFCURVE",
"553 239 OFFCURVE",
"407 239 CURVE SMOOTH",
"379 239 OFFCURVE",
"348 246 OFFCURVE",
"348 278 CURVE SMOOTH"
);
},
{
closed = 1;
nodes = (
"501 665 OFFCURVE",
"535 736 OFFCURVE",
"560 785 CURVE",
"574 785 LINE SMOOTH",
"610 785 OFFCURVE",
"654 765 OFFCURVE",
"654 720 CURVE SMOOTH",
"654 714 OFFCURVE",
"654 708 OFFCURVE",
"652 701 CURVE",
"640 650 OFFCURVE",
"625 620 OFFCURVE",
"590 594 CURVE",
"555 594 LINE SMOOTH",
"528 594 OFFCURVE",
"499 593 OFFCURVE",
"468 592 CURVE"
);
}
);
width = 916;
},
{
associatedMasterId = "BE599D47-15C2-4DC8-BE97-05FFE6CA3179";
background = {
paths = (
{
closed = 1;
nodes = (
"747 -79 OFFCURVE",
"1026 239 OFFCURVE",
"1026 579 CURVE SMOOTH",
"1026 824 OFFCURVE",
"885 967 OFFCURVE",
"620 967 CURVE SMOOTH",
"351 967 LINE SMOOTH",
"252 967 OFFCURVE",
"170 952 OFFCURVE",
"121 748 CURVE",
"190 748 OFFCURVE",
"207 738 OFFCURVE",
"207 684 CURVE SMOOTH",
"207 505 OFFCURVE",
"17 258 OFFCURVE",
"17 111 CURVE SMOOTH",
"17 -19 OFFCURVE",
"163 -79 OFFCURVE",
"339 -79 CURVE SMOOTH"
);
},
{
closed = 1;
nodes = (
"386 176 OFFCURVE",
"359 186 OFFCURVE",
"359 213 CURVE SMOOTH",
"359 281 OFFCURVE",
"530 646 OFFCURVE",
"580 740 CURVE",
"455 685 LINE",
"524 706 OFFCURVE",
"562 708 OFFCURVE",
"576 708 CURVE SMOOTH",
"636 708 OFFCURVE",
"670 672 OFFCURVE",
"670 584 CURVE SMOOTH",
"670 419 OFFCURVE",
"551 176 OFFCURVE",
"414 176 CURVE SMOOTH"
);
}
);
};
layerId = "380EF5FB-E096-494B-B813-F80B22F603C4";
name = "Regular Italic Mar 26 16, 00:49";
paths = (
{
closed = 1;
nodes = (
"351 967 LINE SMOOTH",
"252 967 OFFCURVE",
"170 952 OFFCURVE",
"121 748 CURVE",
"190 748 OFFCURVE",
"207 738 OFFCURVE",
"207 684 CURVE SMOOTH",
"207 505 OFFCURVE",
"17 258 OFFCURVE",
"17 111 CURVE SMOOTH",
"17 -49 OFFCURVE",
"211 -79 OFFCURVE",
"437 -79 CURVE SMOOTH",
"658 -79 OFFCURVE",
"883 50 OFFCURVE",
"919 239 CURVE SMOOTH",
"943 364 OFFCURVE",
"804 492 OFFCURVE",
"361 505 CURVE",
"291 326 LINE",
"306 327 OFFCURVE",
"320 327 OFFCURVE",
"333 327 CURVE SMOOTH",
"514 327 OFFCURVE",
"572 298 OFFCURVE",
"572 266 CURVE SMOOTH",
"572 224 OFFCURVE",
"561 176 OFFCURVE",
"402 176 CURVE SMOOTH",
"374 176 OFFCURVE",
"347 186 OFFCURVE",
"347 213 CURVE SMOOTH",
"347 284 OFFCURVE",
"528 665 OFFCURVE",
"581 763 CURVE",
"453 700 LINE",
"522 721 OFFCURVE",
"560 723 OFFCURVE",
"574 723 CURVE SMOOTH",
"608 723 OFFCURVE",
"630 698 OFFCURVE",
"630 638 CURVE SMOOTH",
"630 555 OFFCURVE",
"554 509 OFFCURVE",
"459 509 CURVE SMOOTH",
"413 509 OFFCURVE",
"369 518 OFFCURVE",
"306 531 CURVE",
"237 335 LINE",
"295 307 OFFCURVE",
"372 293 OFFCURVE",
"456 293 CURVE SMOOTH",
"744 293 OFFCURVE",
"967 430 OFFCURVE",
"967 678 CURVE SMOOTH",
"967 845 OFFCURVE",
"833 967 OFFCURVE",
"620 967 CURVE"
);
}
);
width = 1040;
},
{
associatedMasterId = "BE599D47-15C2-4DC8-BE97-05FFE6CA3179";
background = {
paths = (
{
closed = 1;
nodes = (
"245 340 OFFCURVE",
"295 333 OFFCURVE",
"450 333 CURVE SMOOTH",
"688 333 OFFCURVE",
"816 351 OFFCURVE",
"821 486 CURVE SMOOTH",
"822 515 OFFCURVE",
"818 543 OFFCURVE",
"804 577 CURVE",
"696 554 OFFCURVE",
"611 539 OFFCURVE",
"370 539 CURVE SMOOTH",
"285 539 OFFCURVE",
"252 503 OFFCURVE",
"249 435 CURVE SMOOTH"
);
},
{
closed = 1;
nodes = (
"14 -36 OFFCURVE",
"161 -79 OFFCURVE",
"444 -79 CURVE SMOOTH",
"648 -79 OFFCURVE",
"816 -57 OFFCURVE",
"816 147 CURVE SMOOTH",
"816 179 OFFCURVE",
"812 212 OFFCURVE",
"794 241 CURVE",
"754 205 OFFCURVE",
"628 166 OFFCURVE",
"507 166 CURVE SMOOTH",
"457 166 OFFCURVE",
"411 172 OFFCURVE",
"388 180 CURVE SMOOTH",
"365 188 OFFCURVE",
"359 200 OFFCURVE",
"359 213 CURVE SMOOTH",
"359 277 OFFCURVE",
"514 595 OFFCURVE",
"564 688 CURVE",
"582 687 OFFCURVE",
"601 686 OFFCURVE",
"622 686 CURVE SMOOTH",
"864 686 OFFCURVE",
"1023 719 OFFCURVE",
"1023 880 CURVE SMOOTH",
"1023 914 OFFCURVE",
"1016 949 OFFCURVE",
"1001 985 CURVE",
"897 952 OFFCURVE",
"805 942 OFFCURVE",
"731 942 CURVE SMOOTH",
"616 942 OFFCURVE",
"482 967 OFFCURVE",
"351 967 CURVE SMOOTH",
"252 967 OFFCURVE",
"170 952 OFFCURVE",
"121 748 CURVE",
"190 748 OFFCURVE",
"207 738 OFFCURVE",
"207 684 CURVE SMOOTH",
"207 506 OFFCURVE",
"20 262 OFFCURVE",
"17 105 CURVE SMOOTH"
);
}
);
};
layerId = "DC25D6E3-B0D0-457D-9D94-58E22B558085";
name = "Regular Italic Mar 26 16, 00:52";
paths = (
{
closed = 1;
nodes = (
"351 967 LINE SMOOTH",
"252 967 OFFCURVE",
"170 952 OFFCURVE",
"121 748 CURVE",
"190 748 OFFCURVE",
"207 738 OFFCURVE",
"207 684 CURVE SMOOTH",
"207 505 OFFCURVE",
"17 258 OFFCURVE",
"17 111 CURVE SMOOTH",
"17 -49 OFFCURVE",
"211 -79 OFFCURVE",
"437 -79 CURVE SMOOTH",
"658 -79 OFFCURVE",
"883 61 OFFCURVE",
"919 250 CURVE SMOOTH",
"943 389 OFFCURVE",
"900 592 OFFCURVE",
"333 516 CURVE",
"283 327 LINE",
"504 358 OFFCURVE",
"582 344 OFFCURVE",
"582 266 CURVE SMOOTH",
"582 224 OFFCURVE",
"552 176 OFFCURVE",
"402 176 CURVE SMOOTH",
"374 176 OFFCURVE",
"347 186 OFFCURVE",
"347 213 CURVE SMOOTH",
"347 284 OFFCURVE",
"528 665 OFFCURVE",
"581 763 CURVE",
"453 700 LINE",
"522 721 OFFCURVE",
"560 723 OFFCURVE",
"574 723 CURVE SMOOTH",
"615 723 OFFCURVE",
"666 698 OFFCURVE",
"652 639 CURVE SMOOTH",
"633 558 OFFCURVE",
"606 530 OFFCURVE",
"503 485 CURVE",
"700 410 LINE",
"851 473 OFFCURVE",
"957 601 OFFCURVE",
"957 708 CURVE SMOOTH",
"957 858 OFFCURVE",
"827 967 OFFCURVE",
"620 967 CURVE"
);
}
);
width = 1040;
},
{
associatedMasterId = "BE599D47-15C2-4DC8-BE97-05FFE6CA3179";
background = {
paths = (
{
closed = 1;
nodes = (
"351 967 LINE SMOOTH",
"252 967 OFFCURVE",
"170 952 OFFCURVE",
"121 748 CURVE",
"190 748 OFFCURVE",
"207 738 OFFCURVE",
"207 684 CURVE SMOOTH",
"207 505 OFFCURVE",
"17 258 OFFCURVE",
"17 111 CURVE SMOOTH",
"17 -49 OFFCURVE",
"211 -79 OFFCURVE",
"437 -79 CURVE SMOOTH",
"658 -79 OFFCURVE",
"884 61 OFFCURVE",
"919 250 CURVE SMOOTH",
"945 389 OFFCURVE",
"900 592 OFFCURVE",
"333 516 CURVE",
"283 327 LINE",
"504 358 OFFCURVE",
"582 344 OFFCURVE",
"582 266 CURVE SMOOTH",
"582 224 OFFCURVE",
"552 176 OFFCURVE",
"402 176 CURVE SMOOTH",
"374 176 OFFCURVE",
"347 186 OFFCURVE",
"347 213 CURVE SMOOTH",
"347 284 OFFCURVE",
"528 665 OFFCURVE",
"581 763 CURVE",
"453 700 LINE",
"522 721 OFFCURVE",
"560 723 OFFCURVE",
"574 723 CURVE SMOOTH",
"615 723 OFFCURVE",
"666 698 OFFCURVE",
"652 639 CURVE SMOOTH",
"633 558 OFFCURVE",
"606 530 OFFCURVE",
"503 485 CURVE",
"700 410 LINE",
"851 473 OFFCURVE",
"957 601 OFFCURVE",
"957 708 CURVE SMOOTH",
"957 858 OFFCURVE",
"827 967 OFFCURVE",
"620 967 CURVE"
);
}
);
};
layerId = "9E2D2D0E-4977-49D1-9880-B962125E7189";
name = "Regular Italic Mar 26 16, 00:56";
paths = (
{
closed = 1;
nodes = (
"17 -49 OFFCURVE",
"211 -79 OFFCURVE",
"437 -79 CURVE SMOOTH",
"658 -79 OFFCURVE",
"883 61 OFFCURVE",
"919 250 CURVE SMOOTH",
"934 335 OFFCURVE",
"923 444 OFFCURVE",
"782 499 CURVE",
"792 460 LINE",
"892 528 OFFCURVE",
"957 624 OFFCURVE",
"957 708 CURVE SMOOTH",
"957 858 OFFCURVE",
"827 967 OFFCURVE",
"620 967 CURVE SMOOTH",
"351 967 LINE SMOOTH",
"252 967 OFFCURVE",
"170 952 OFFCURVE",
"121 748 CURVE",
"190 748 OFFCURVE",
"207 738 OFFCURVE",
"207 684 CURVE SMOOTH",
"207 505 OFFCURVE",
"17 258 OFFCURVE",
"17 111 CURVE SMOOTH"
);
},
{
closed = 1;
nodes = (
"496 593 OFFCURVE",
"542 688 OFFCURVE",
"570 742 CURVE",
"515 722 LINE",
"574 723 LINE SMOOTH",
"615 723 OFFCURVE",
"666 698 OFFCURVE",
"652 639 CURVE SMOOTH",
"637 576 OFFCURVE",
"618 545 OFFCURVE",
"562 514 CURVE",
"616 531 LINE",
"564 533 OFFCURVE",
"504 533 OFFCURVE",
"432 527 CURVE",
"454 498 LINE"
);
},
{
closed = 1;
nodes = (
"376 177 OFFCURVE",
"349 186 OFFCURVE",
"348 214 CURVE SMOOTH",
"347 252 OFFCURVE",
"379 327 OFFCURVE",
"393 358 CURVE",
"283 327 LINE",
"521 350 OFFCURVE",
"581 345 OFFCURVE",
"581 268 CURVE SMOOTH",
"581 220 OFFCURVE",
"552 176 OFFCURVE",
"402 177 CURVE SMOOTH"
);
}
);
width = 1040;
},
{
associatedMasterId = "BE599D47-15C2-4DC8-BE97-05FFE6CA3179";
background = {
paths = (
{
closed = 1;
nodes = (
"401 967 LINE SMOOTH",
"302 967 OFFCURVE",
"220 952 OFFCURVE",
"171 748 CURVE",
"240 748 OFFCURVE",
"257 738 OFFCURVE",
"257 684 CURVE SMOOTH",
"257 505 OFFCURVE",
"67 258 OFFCURVE",
"67 111 CURVE SMOOTH",
"67 -49 OFFCURVE",
"261 -79 OFFCURVE",
"487 -79 CURVE SMOOTH",
"708 -79 OFFCURVE",
"934 61 OFFCURVE",
"969 250 CURVE SMOOTH",
"995 389 OFFCURVE",
"950 592 OFFCURVE",
"383 516 CURVE",
"333 327 LINE",
"554 358 OFFCURVE",
"632 344 OFFCURVE",
"632 266 CURVE SMOOTH",
"632 224 OFFCURVE",
"602 176 OFFCURVE",
"452 176 CURVE SMOOTH",
"424 176 OFFCURVE",
"397 186 OFFCURVE",
"397 213 CURVE SMOOTH",
"397 284 OFFCURVE",
"578 665 OFFCURVE",
"631 763 CURVE",
"503 700 LINE",
"572 721 OFFCURVE",
"610 723 OFFCURVE",
"624 723 CURVE SMOOTH",
"665 723 OFFCURVE",
"716 698 OFFCURVE",
"702 639 CURVE SMOOTH",
"683 558 OFFCURVE",
"656 530 OFFCURVE",
"553 485 CURVE",
"750 410 LINE",
"901 473 OFFCURVE",
"1007 601 OFFCURVE",
"1007 708 CURVE SMOOTH",
"1007 858 OFFCURVE",
"877 967 OFFCURVE",
"670 967 CURVE"
);
}
);
};
layerId = "BEEECADA-6412-4ADD-9B0F-94B94D5FFAB6";
name = "Regular Italic Mar 27 16, 16:25";
paths = (
{
closed = 1;
nodes = (
"67 -27 OFFCURVE",
"241 -79 OFFCURVE",
"428 -79 CURVE SMOOTH",
"715 -79 OFFCURVE",
"974 57 OFFCURVE",
"974 305 CURVE SMOOTH",
"974 377 OFFCURVE",
"944 455 OFFCURVE",
"832 499 CURVE",
"842 460 LINE",
"942 528 OFFCURVE",
"1007 624 OFFCURVE",
"1007 708 CURVE SMOOTH",
"1007 858 OFFCURVE",
"877 967 OFFCURVE",
"670 967 CURVE SMOOTH",
"401 967 LINE SMOOTH",
"302 967 OFFCURVE",
"220 952 OFFCURVE",
"171 748 CURVE",
"240 748 OFFCURVE",
"257 738 OFFCURVE",
"257 684 CURVE SMOOTH",
"257 505 OFFCURVE",
"67 258 OFFCURVE",
"67 112 CURVE SMOOTH"
);
},
{
closed = 1;
nodes = (
"546 593 OFFCURVE",
"592 688 OFFCURVE",
"620 742 CURVE",
"565 722 LINE",
"624 723 LINE SMOOTH",
"660 723 OFFCURVE",
"704 703 OFFCURVE",
"704 658 CURVE SMOOTH",
"704 652 OFFCURVE",
"704 646 OFFCURVE",
"702 639 CURVE SMOOTH",
"687 576 OFFCURVE",
"668 545 OFFCURVE",
"612 514 CURVE",
"666 531 LINE",
"647 532 OFFCURVE",
"627 532 OFFCURVE",
"605 532 CURVE SMOOTH",
"568 532 OFFCURVE",
"528 531 OFFCURVE",
"482 527 CURVE",
"504 498 LINE"
);
},
{
closed = 1;
nodes = (
"429 177 OFFCURVE",
"398 184 OFFCURVE",
"398 216 CURVE SMOOTH",
"398 254 OFFCURVE",
"429 327 OFFCURVE",
"443 358 CURVE",
"333 327 LINE",
"411 335 OFFCURVE",
"470 339 OFFCURVE",
"513 339 CURVE SMOOTH",
"604 339 OFFCURVE",
"631 320 OFFCURVE",
"631 268 CURVE SMOOTH",
"631 221 OFFCURVE",
"603 177 OFFCURVE",
"457 177 CURVE SMOOTH"
);
}
);
width = 1003;
}
);
unicode = 0042;
},
{
glyphname = C;
lastChange = "2016-04-02 06:13:40 +0000";
layers = (
{
background = {
paths = (
{
closed = 1;
nodes = (
"27 38 OFFCURVE",
"181 -91 OFFCURVE",
"456 -91 CURVE SMOOTH",
"676 -91 OFFCURVE",
"888 -8 OFFCURVE",
"888 183 CURVE SMOOTH",
"888 215 OFFCURVE",
"882 259 OFFCURVE",
"855 315 CURVE",
"778 238 OFFCURVE",
"661 197 OFFCURVE",
"543 197 CURVE SMOOTH",
"500 197 OFFCURVE",
"424 220 OFFCURVE",
"424 333 CURVE SMOOTH",
"424 478 OFFCURVE",
"550 733 OFFCURVE",
"678 733 CURVE SMOOTH",
"721 733 OFFCURVE",
"737 704 OFFCURVE",
"737 664 CURVE SMOOTH",
"737 606 OFFCURVE",
"704 539 OFFCURVE",
"652 481 CURVE",
"691 459 OFFCURVE",
"731 449 OFFCURVE",
"770 449 CURVE SMOOTH",
"897 449 OFFCURVE",
"1013 555 OFFCURVE",
"1013 710 CURVE SMOOTH",
"1013 875 OFFCURVE",
"886 967 OFFCURVE",
"684 967 CURVE SMOOTH",
"325 967 OFFCURVE",
"27 675 OFFCURVE",
"27 306 CURVE SMOOTH"
);
}
);
};
layerId = "BE599D47-15C2-4DC8-BE97-05FFE6CA3179";
paths = (
{
closed = 1;
nodes = (
"37 100 OFFCURVE",
"187 -29 OFFCURVE",
"456 -29 CURVE SMOOTH",
"671 -29 OFFCURVE",
"878 54 OFFCURVE",
"878 245 CURVE SMOOTH",
"878 277 OFFCURVE",
"872 321 OFFCURVE",
"845 377 CURVE",
"768 300 OFFCURVE",
"657 259 OFFCURVE",
"543 259 CURVE SMOOTH",
"500 259 OFFCURVE",
"424 282 OFFCURVE",
"424 395 CURVE SMOOTH",
"424 540 OFFCURVE",
"550 795 OFFCURVE",
"678 795 CURVE SMOOTH",
"721 795 OFFCURVE",
"737 766 OFFCURVE",
"737 726 CURVE SMOOTH",
"737 668 OFFCURVE",
"704 601 OFFCURVE",
"652 543 CURVE",
"691 521 OFFCURVE",
"731 511 OFFCURVE",
"770 511 CURVE SMOOTH",
"892 511 OFFCURVE",
"1003 617 OFFCURVE",
"1003 772 CURVE SMOOTH",
"1003 937 OFFCURVE",
"880 1029 OFFCURVE",
"684 1029 CURVE SMOOTH",
"330 1029 OFFCURVE",
"37 737 OFFCURVE",
"37 368 CURVE SMOOTH"
);
}
);
width = 913;
},
{
associatedMasterId = "BE599D47-15C2-4DC8-BE97-05FFE6CA3179";
background = {
paths = (
{
closed = 1;
nodes = (
"483 158 OFFCURVE",
"472 183 OFFCURVE",
"472 235 CURVE SMOOTH",
"472 411 OFFCURVE",
"601 720 OFFCURVE",
"685 720 CURVE SMOOTH",
"709 720 OFFCURVE",
"715 695 OFFCURVE",
"715 650 CURVE SMOOTH",
"715 458 OFFCURVE",
"590 158 OFFCURVE",
"507 158 CURVE SMOOTH"
);
},
{
closed = 1;
nodes = (
"63 22 OFFCURVE",
"265 -83 OFFCURVE",
"465 -83 CURVE SMOOTH",
"816 -83 OFFCURVE",
"1081 243 OFFCURVE",
"1094 616 CURVE SMOOTH",
"1103 884 OFFCURVE",
"900 971 OFFCURVE",
"718 971 CURVE SMOOTH",
"361 971 OFFCURVE",
"87 662 OFFCURVE",
"74 315 CURVE SMOOTH"
);
}
);
};
layerId = "4E5EA5C6-2A9B-46A3-AEE0-F8FF65556DF6";
name = "Regular Italic Mar 25 16, 21:26";
paths = (
{
closed = 1;
nodes = (
"79 38 OFFCURVE",
"233 -91 OFFCURVE",
"497 -91 CURVE SMOOTH",
"678 -91 OFFCURVE",
"929 -8 OFFCURVE",
"929 140 CURVE SMOOTH",
"929 211 OFFCURVE",
"921 275 OFFCURVE",
"897 315 CURVE",
"820 238 OFFCURVE",
"713 197 OFFCURVE",
"595 197 CURVE SMOOTH",
"552 197 OFFCURVE",
"476 220 OFFCURVE",
"476 333 CURVE SMOOTH",
"476 478 OFFCURVE",
"601 733 OFFCURVE",
"733 733 CURVE SMOOTH",
"773 733 OFFCURVE",
"789 704 OFFCURVE",
"789 666 CURVE SMOOTH",
"789 609 OFFCURVE",
"754 530 OFFCURVE",
"704 481 CURVE",
"743 459 OFFCURVE",
"783 449 OFFCURVE",
"822 449 CURVE SMOOTH",
"950 449 OFFCURVE",
"1065 555 OFFCURVE",
"1065 716 CURVE SMOOTH",
"1065 875 OFFCURVE",
"938 967 OFFCURVE",
"709 967 CURVE SMOOTH",
"377 967 OFFCURVE",
"79 675 OFFCURVE",
"79 297 CURVE SMOOTH"
);
}
);
width = 992;
},
{
associatedMasterId = "BE599D47-15C2-4DC8-BE97-05FFE6CA3179";
background = {
paths = (
{
closed = 1;
nodes = (
"78 38 OFFCURVE",
"232 -91 OFFCURVE",
"496 -91 CURVE SMOOTH",
"677 -91 OFFCURVE",
"928 -8 OFFCURVE",
"928 140 CURVE SMOOTH",
"928 211 OFFCURVE",
"920 275 OFFCURVE",
"896 315 CURVE",
"819 238 OFFCURVE",
"712 197 OFFCURVE",
"594 197 CURVE SMOOTH",
"551 197 OFFCURVE",
"475 220 OFFCURVE",
"475 333 CURVE SMOOTH",
"475 478 OFFCURVE",
"600 733 OFFCURVE",
"732 733 CURVE SMOOTH",
"772 733 OFFCURVE",
"788 704 OFFCURVE",
"788 666 CURVE SMOOTH",
"788 609 OFFCURVE",
"753 530 OFFCURVE",
"703 481 CURVE",
"742 459 OFFCURVE",
"782 449 OFFCURVE",
"821 449 CURVE SMOOTH",
"949 449 OFFCURVE",
"1064 555 OFFCURVE",
"1064 716 CURVE SMOOTH",
"1064 875 OFFCURVE",
"937 967 OFFCURVE",
"708 967 CURVE SMOOTH",
"376 967 OFFCURVE",
"78 675 OFFCURVE",
"78 297 CURVE SMOOTH"
);
}
);
};
layerId = "40B8CCE1-4585-447C-BA12-7CA9ECF6E9D9";
name = "Regular Italic Mar 26 16, 00:59";
paths = (
{
closed = 1;
nodes = (
"78 38 OFFCURVE",
"232 -91 OFFCURVE",
"507 -91 CURVE SMOOTH",
"727 -91 OFFCURVE",
"939 -8 OFFCURVE",
"939 183 CURVE SMOOTH",
"939 215 OFFCURVE",
"933 259 OFFCURVE",
"906 315 CURVE",
"829 238 OFFCURVE",
"712 197 OFFCURVE",
"594 197 CURVE SMOOTH",
"551 197 OFFCURVE",
"475 220 OFFCURVE",
"475 333 CURVE SMOOTH",
"475 478 OFFCURVE",
"601 733 OFFCURVE",
"729 733 CURVE SMOOTH",
"772 733 OFFCURVE",
"788 704 OFFCURVE",
"788 664 CURVE SMOOTH",
"788 606 OFFCURVE",
"755 539 OFFCURVE",
"703 481 CURVE",
"742 459 OFFCURVE",
"782 449 OFFCURVE",
"821 449 CURVE SMOOTH",
"948 449 OFFCURVE",
"1064 555 OFFCURVE",
"1064 710 CURVE SMOOTH",
"1064 875 OFFCURVE",
"937 967 OFFCURVE",
"735 967 CURVE SMOOTH",
"376 967 OFFCURVE",
"78 675 OFFCURVE",
"78 306 CURVE SMOOTH"
);
}
);
width = 991;
}
);
unicode = 0043;
},
{
glyphname = D;
lastChange = "2016-04-03 01:55:00 +0000";
layers = (
{
background = {
paths = (
{
closed = 1;
nodes = (
"14 -36 OFFCURVE",
"161 -79 OFFCURVE",
"444 -79 CURVE SMOOTH",
"648 -79 OFFCURVE",
"816 -57 OFFCURVE",
"816 147 CURVE SMOOTH",
"816 179 OFFCURVE",
"812 212 OFFCURVE",
"794 241 CURVE",
"754 205 OFFCURVE",
"628 166 OFFCURVE",
"507 166 CURVE SMOOTH",
"457 166 OFFCURVE",
"411 172 OFFCURVE",
"388 180 CURVE SMOOTH",
"365 188 OFFCURVE",
"359 200 OFFCURVE",
"359 213 CURVE SMOOTH",
"359 277 OFFCURVE",
"514 595 OFFCURVE",
"564 688 CURVE",
"582 687 OFFCURVE",
"601 686 OFFCURVE",
"622 686 CURVE SMOOTH",
"864 686 OFFCURVE",
"1023 719 OFFCURVE",
"1023 880 CURVE SMOOTH",
"1023 914 OFFCURVE",
"1016 949 OFFCURVE",
"1001 985 CURVE",
"897 952 OFFCURVE",
"805 942 OFFCURVE",
"731 942 CURVE SMOOTH",
"616 942 OFFCURVE",
"482 967 OFFCURVE",
"351 967 CURVE SMOOTH",
"252 967 OFFCURVE",
"170 952 OFFCURVE",
"121 748 CURVE",
"190 748 OFFCURVE",
"207 738 OFFCURVE",
"207 684 CURVE SMOOTH",
"207 506 OFFCURVE",
"20 262 OFFCURVE",
"17 105 CURVE SMOOTH"
);
},
{
closed = 1;
nodes = (
"413 158 OFFCURVE",
"402 183 OFFCURVE",
"402 235 CURVE SMOOTH",
"402 411 OFFCURVE",
"531 720 OFFCURVE",
"615 720 CURVE SMOOTH",
"639 720 OFFCURVE",
"645 695 OFFCURVE",
"645 650 CURVE SMOOTH",
"645 458 OFFCURVE",
"520 158 OFFCURVE",
"437 158 CURVE SMOOTH"
);
},
{
closed = 1;
nodes = (
"-7 22 OFFCURVE",
"195 -83 OFFCURVE",
"395 -83 CURVE SMOOTH",
"746 -83 OFFCURVE",
"1011 243 OFFCURVE",
"1024 616 CURVE SMOOTH",
"1033 884 OFFCURVE",
"830 971 OFFCURVE",
"648 971 CURVE SMOOTH",
"291 971 OFFCURVE",
"17 662 OFFCURVE",
"4 315 CURVE SMOOTH"
);
}
);
};
layerId = "BE599D47-15C2-4DC8-BE97-05FFE6CA3179";
paths = (
{
closed = 1;
nodes = (
"17 43 OFFCURVE",
"163 -17 OFFCURVE",
"339 -17 CURVE SMOOTH",
"747 -17 OFFCURVE",
"1026 301 OFFCURVE",
"1026 641 CURVE SMOOTH",
"1026 886 OFFCURVE",
"885 1029 OFFCURVE",
"620 1029 CURVE SMOOTH",
"351 1029 LINE SMOOTH",
"252 1029 OFFCURVE",
"170 1014 OFFCURVE",
"121 810 CURVE",
"190 810 OFFCURVE",
"207 800 OFFCURVE",
"207 746 CURVE SMOOTH",
"207 567 OFFCURVE",
"17 320 OFFCURVE",
"17 173 CURVE SMOOTH"
);
},
{
closed = 1;
nodes = (
"359 337 OFFCURVE",
"500 643 OFFCURVE",
"563 770 CURVE",
"637 770 OFFCURVE",
"670 740 OFFCURVE",
"670 646 CURVE SMOOTH",
"670 481 OFFCURVE",
"551 238 OFFCURVE",
"414 238 CURVE SMOOTH",
"386 238 OFFCURVE",
"359 248 OFFCURVE",
"359 275 CURVE SMOOTH"
);
}
);
width = 963;
},
{
associatedMasterId = "BE599D47-15C2-4DC8-BE97-05FFE6CA3179";
background = {
paths = (
{
closed = 1;
nodes = (
"14 -36 OFFCURVE",
"161 -79 OFFCURVE",
"444 -79 CURVE SMOOTH",
"648 -79 OFFCURVE",
"816 -57 OFFCURVE",
"816 147 CURVE SMOOTH",
"816 179 OFFCURVE",
"812 212 OFFCURVE",
"794 241 CURVE",
"754 205 OFFCURVE",
"628 166 OFFCURVE",
"507 166 CURVE SMOOTH",
"457 166 OFFCURVE",
"411 172 OFFCURVE",
"388 180 CURVE SMOOTH",
"365 188 OFFCURVE",
"359 200 OFFCURVE",
"359 213 CURVE SMOOTH",
"359 277 OFFCURVE",
"514 595 OFFCURVE",
"564 688 CURVE",
"582 687 OFFCURVE",
"601 686 OFFCURVE",
"622 686 CURVE SMOOTH",
"864 686 OFFCURVE",
"1023 719 OFFCURVE",
"1023 880 CURVE SMOOTH",
"1023 914 OFFCURVE",
"1016 949 OFFCURVE",
"1001 985 CURVE",
"897 952 OFFCURVE",
"805 942 OFFCURVE",
"731 942 CURVE SMOOTH",
"616 942 OFFCURVE",
"482 967 OFFCURVE",
"351 967 CURVE SMOOTH",
"252 967 OFFCURVE",
"170 952 OFFCURVE",
"121 748 CURVE",
"190 748 OFFCURVE",
"207 738 OFFCURVE",
"207 684 CURVE SMOOTH",
"207 506 OFFCURVE",
"20 262 OFFCURVE",
"17 105 CURVE SMOOTH"
);
},
{
closed = 1;
nodes = (
"413 158 OFFCURVE",
"402 183 OFFCURVE",
"402 235 CURVE SMOOTH",
"402 411 OFFCURVE",
"531 720 OFFCURVE",
"615 720 CURVE SMOOTH",
"639 720 OFFCURVE",
"645 695 OFFCURVE",
"645 650 CURVE SMOOTH",
"645 458 OFFCURVE",
"520 158 OFFCURVE",
"437 158 CURVE SMOOTH"
);
},
{
closed = 1;
nodes = (
"-7 22 OFFCURVE",
"195 -83 OFFCURVE",
"395 -83 CURVE SMOOTH",
"746 -83 OFFCURVE",
"1011 243 OFFCURVE",
"1024 616 CURVE SMOOTH",
"1033 884 OFFCURVE",
"830 971 OFFCURVE",
"648 971 CURVE SMOOTH",
"291 971 OFFCURVE",
"17 662 OFFCURVE",
"4 315 CURVE SMOOTH"
);
}
);
};
layerId = "EB4167F3-FAD2-41A9-90A8-A81535180353";
name = "Regular Italic Mar 25 16, 21:32";
paths = (
{
closed = 1;
nodes = (
"14 -36 OFFCURVE",
"161 -79 OFFCURVE",
"444 -79 CURVE SMOOTH",
"648 -79 OFFCURVE",
"816 -57 OFFCURVE",
"816 147 CURVE SMOOTH",
"816 179 OFFCURVE",
"812 212 OFFCURVE",
"794 241 CURVE",
"754 205 OFFCURVE",
"628 166 OFFCURVE",
"507 166 CURVE SMOOTH",
"457 166 OFFCURVE",
"411 172 OFFCURVE",
"388 180 CURVE SMOOTH",
"365 188 OFFCURVE",
"359 200 OFFCURVE",
"359 213 CURVE SMOOTH",
"359 277 OFFCURVE",
"514 595 OFFCURVE",
"564 688 CURVE",
"582 687 OFFCURVE",
"601 686 OFFCURVE",
"622 686 CURVE SMOOTH",
"864 686 OFFCURVE",
"1023 719 OFFCURVE",
"1023 880 CURVE SMOOTH",
"1023 914 OFFCURVE",
"1016 949 OFFCURVE",
"1001 985 CURVE",
"897 952 OFFCURVE",
"805 942 OFFCURVE",
"731 942 CURVE SMOOTH",
"616 942 OFFCURVE",
"482 967 OFFCURVE",
"351 967 CURVE SMOOTH",
"252 967 OFFCURVE",
"170 952 OFFCURVE",
"121 748 CURVE",
"190 748 OFFCURVE",
"207 738 OFFCURVE",
"207 684 CURVE SMOOTH",
"207 506 OFFCURVE",
"20 262 OFFCURVE",
"17 105 CURVE SMOOTH"
);
},
{
closed = 1;
nodes = (
"413 158 OFFCURVE",
"402 183 OFFCURVE",
"402 235 CURVE SMOOTH",
"402 411 OFFCURVE",
"531 720 OFFCURVE",
"615 720 CURVE SMOOTH",
"639 720 OFFCURVE",
"645 695 OFFCURVE",
"645 650 CURVE SMOOTH",
"645 458 OFFCURVE",
"520 158 OFFCURVE",
"437 158 CURVE SMOOTH"
);
},
{
closed = 1;
nodes = (
"-7 22 OFFCURVE",
"195 -83 OFFCURVE",
"395 -83 CURVE SMOOTH",
"746 -83 OFFCURVE",
"1011 243 OFFCURVE",
"1024 616 CURVE SMOOTH",
"1033 884 OFFCURVE",
"830 971 OFFCURVE",
"648 971 CURVE SMOOTH",
"291 971 OFFCURVE",
"17 662 OFFCURVE",
"4 315 CURVE SMOOTH"
);
}
);
width = 881;
},
{
associatedMasterId = "BE599D47-15C2-4DC8-BE97-05FFE6CA3179";
background = {
paths = (
{
closed = 1;
nodes = (
"14 -36 OFFCURVE",
"161 -79 OFFCURVE",
"444 -79 CURVE SMOOTH",
"648 -79 OFFCURVE",
"816 -57 OFFCURVE",
"816 147 CURVE SMOOTH",
"816 179 OFFCURVE",
"812 212 OFFCURVE",
"794 241 CURVE",
"754 205 OFFCURVE",
"628 166 OFFCURVE",
"507 166 CURVE SMOOTH",
"457 166 OFFCURVE",
"411 172 OFFCURVE",
"388 180 CURVE SMOOTH",
"365 188 OFFCURVE",
"359 200 OFFCURVE",
"359 213 CURVE SMOOTH",
"359 277 OFFCURVE",
"514 595 OFFCURVE",
"564 688 CURVE",
"582 687 OFFCURVE",
"601 686 OFFCURVE",
"622 686 CURVE SMOOTH",
"864 686 OFFCURVE",
"1023 719 OFFCURVE",
"1023 880 CURVE SMOOTH",
"1023 914 OFFCURVE",
"1016 949 OFFCURVE",
"1001 985 CURVE",
"897 952 OFFCURVE",
"805 942 OFFCURVE",
"731 942 CURVE SMOOTH",
"616 942 OFFCURVE",
"482 967 OFFCURVE",
"351 967 CURVE SMOOTH",
"252 967 OFFCURVE",
"170 952 OFFCURVE",
"121 748 CURVE",
"190 748 OFFCURVE",
"207 738 OFFCURVE",
"207 684 CURVE SMOOTH",
"207 506 OFFCURVE",
"20 262 OFFCURVE",
"17 105 CURVE SMOOTH"
);
},
{
closed = 1;
nodes = (
"413 158 OFFCURVE",
"402 183 OFFCURVE",
"402 235 CURVE SMOOTH",
"402 411 OFFCURVE",
"531 720 OFFCURVE",
"615 720 CURVE SMOOTH",
"639 720 OFFCURVE",
"645 695 OFFCURVE",
"645 650 CURVE SMOOTH",
"645 458 OFFCURVE",
"520 158 OFFCURVE",
"437 158 CURVE SMOOTH"
);
},
{
closed = 1;
nodes = (
"-7 22 OFFCURVE",
"195 -83 OFFCURVE",
"395 -83 CURVE SMOOTH",
"746 -83 OFFCURVE",
"1011 243 OFFCURVE",
"1024 616 CURVE SMOOTH",
"1033 884 OFFCURVE",
"830 971 OFFCURVE",
"648 971 CURVE SMOOTH",
"291 971 OFFCURVE",
"17 662 OFFCURVE",
"4 315 CURVE SMOOTH"
);
}
);
};
layerId = "6F2FA73D-AA46-406F-8641-5BE3BC5A840D";
name = "Regular Italic Mar 25 16, 23:14";
paths = (
{
closed = 1;
nodes = (
"620 349 OFFCURVE",
"486 146 OFFCURVE",
"388 180 CURVE SMOOTH",
"365 188 OFFCURVE",
"359 200 OFFCURVE",
"359 213 CURVE SMOOTH",
"359 277 OFFCURVE",
"508 600 OFFCURVE",
"558 693 CURVE",
"663 742 OFFCURVE",
"700 627 OFFCURVE",
"645 436 CURVE SMOOTH"
);
},
{
closed = 1;
nodes = (
"1080 758 OFFCURVE",
"940 967 OFFCURVE",
"620 967 CURVE SMOOTH",
"351 967 LINE SMOOTH",
"252 967 OFFCURVE",
"170 952 OFFCURVE",
"121 748 CURVE",
"190 748 OFFCURVE",
"207 738 OFFCURVE",
"207 684 CURVE SMOOTH",
"207 506 OFFCURVE",
"21 262 OFFCURVE",
"17 105 CURVE SMOOTH",
"14 -18 OFFCURVE",
"161 -79 OFFCURVE",
"342 -79 CURVE SMOOTH",
"544 -79 OFFCURVE",
"859 -48 OFFCURVE",
"1008 498 CURVE SMOOTH"
);
}
);
width = 881;
},
{
associatedMasterId = "BE599D47-15C2-4DC8-BE97-05FFE6CA3179";
background = {
paths = (
{
closed = 1;
nodes = (
"64 -36 OFFCURVE",
"211 -79 OFFCURVE",
"494 -79 CURVE SMOOTH",
"698 -79 OFFCURVE",
"866 -57 OFFCURVE",
"866 147 CURVE SMOOTH",
"866 179 OFFCURVE",
"862 212 OFFCURVE",
"844 241 CURVE",
"804 205 OFFCURVE",
"678 166 OFFCURVE",
"557 166 CURVE SMOOTH",
"507 166 OFFCURVE",
"461 172 OFFCURVE",
"438 180 CURVE SMOOTH",
"415 188 OFFCURVE",
"409 200 OFFCURVE",
"409 213 CURVE SMOOTH",
"409 277 OFFCURVE",
"564 595 OFFCURVE",
"614 688 CURVE",
"632 687 OFFCURVE",
"651 686 OFFCURVE",
"672 686 CURVE SMOOTH",
"914 686 OFFCURVE",
"1073 719 OFFCURVE",
"1073 880 CURVE SMOOTH",
"1073 914 OFFCURVE",
"1066 949 OFFCURVE",
"1051 985 CURVE",
"947 952 OFFCURVE",
"855 942 OFFCURVE",
"781 942 CURVE SMOOTH",
"666 942 OFFCURVE",
"532 967 OFFCURVE",
"401 967 CURVE SMOOTH",
"302 967 OFFCURVE",
"220 952 OFFCURVE",
"171 748 CURVE",
"240 748 OFFCURVE",
"257 738 OFFCURVE",
"257 684 CURVE SMOOTH",
"257 506 OFFCURVE",
"70 262 OFFCURVE",
"67 105 CURVE SMOOTH"
);
},
{
closed = 1;
nodes = (
"463 158 OFFCURVE",
"452 183 OFFCURVE",
"452 235 CURVE SMOOTH",
"452 411 OFFCURVE",
"581 720 OFFCURVE",
"665 720 CURVE SMOOTH",
"689 720 OFFCURVE",
"695 695 OFFCURVE",
"695 650 CURVE SMOOTH",
"695 458 OFFCURVE",
"570 158 OFFCURVE",
"487 158 CURVE SMOOTH"
);
},
{
closed = 1;
nodes = (
"43 22 OFFCURVE",
"245 -83 OFFCURVE",
"445 -83 CURVE SMOOTH",
"796 -83 OFFCURVE",
"1061 243 OFFCURVE",
"1074 616 CURVE SMOOTH",
"1083 884 OFFCURVE",
"880 971 OFFCURVE",
"698 971 CURVE SMOOTH",
"341 971 OFFCURVE",
"67 662 OFFCURVE",
"54 315 CURVE SMOOTH"
);
}
);
};
layerId = "D86A3163-925A-4137-83AF-1E7AA10FA8E7";
name = "Regular Italic Mar 27 16, 16:25";
paths = (
{
closed = 1;
nodes = (
"797 -79 OFFCURVE",
"1076 239 OFFCURVE",
"1076 579 CURVE SMOOTH",
"1076 824 OFFCURVE",
"935 967 OFFCURVE",
"670 967 CURVE SMOOTH",
"401 967 LINE SMOOTH",
"302 967 OFFCURVE",
"220 952 OFFCURVE",
"171 748 CURVE",
"240 748 OFFCURVE",
"257 738 OFFCURVE",
"257 684 CURVE SMOOTH",
"257 505 OFFCURVE",
"67 258 OFFCURVE",
"67 111 CURVE SMOOTH",
"67 -19 OFFCURVE",
"213 -79 OFFCURVE",
"389 -79 CURVE SMOOTH"
);
},
{
closed = 1;
nodes = (
"436 176 OFFCURVE",
"409 186 OFFCURVE",
"409 213 CURVE SMOOTH",
"409 281 OFFCURVE",
"580 646 OFFCURVE",
"630 740 CURVE",
"505 685 LINE",
"574 706 OFFCURVE",
"612 708 OFFCURVE",
"626 708 CURVE SMOOTH",
"686 708 OFFCURVE",
"720 672 OFFCURVE",
"720 584 CURVE SMOOTH",
"720 419 OFFCURVE",
"601 176 OFFCURVE",
"464 176 CURVE SMOOTH"
);
}
);
width = 1054;
}
);
unicode = 0044;
},
{
glyphname = E;
lastChange = "2016-04-02 06:13:40 +0000";
layers = (
{
background = {
paths = (
{
closed = 1;
nodes = (
"29 -40 OFFCURVE",
"194 -84 OFFCURVE",
"474 -84 CURVE SMOOTH",
"715 -84 OFFCURVE",
"846 -63 OFFCURVE",
"846 144 CURVE SMOOTH",
"846 178 OFFCURVE",
"839 212 OFFCURVE",
"820 241 CURVE",
"782 203 OFFCURVE",
"646 162 OFFCURVE",
"524 162 CURVE SMOOTH",
"467 162 OFFCURVE",
"421 168 OFFCURVE",
"392 178 CURVE SMOOTH",
"374 184 OFFCURVE",
"368 196 OFFCURVE",
"368 209 CURVE SMOOTH",
"368 213 OFFCURVE",
"368 217 OFFCURVE",
"369 221 CURVE SMOOTH",
"405 383 OFFCURVE",
"499 550 OFFCURVE",
"556 688 CURVE",
"574 687 OFFCURVE",
"593 686 OFFCURVE",
"614 686 CURVE SMOOTH",
"856 686 OFFCURVE",
"1001 717 OFFCURVE",
"1001 886 CURVE SMOOTH",
"1001 920 OFFCURVE",
"999 954 OFFCURVE",
"982 985 CURVE",
"880 952 OFFCURVE",
"798 942 OFFCURVE",
"725 942 CURVE SMOOTH",
"625 942 OFFCURVE",
"541 970 OFFCURVE",
"441 967 CURVE SMOOTH",
"258 961 OFFCURVE",
"154 952 OFFCURVE",
"111 748 CURVE",
"119 748 OFFCURVE",
"126 749 OFFCURVE",
"133 749 CURVE SMOOTH",
"171 749 OFFCURVE",
"199 740 OFFCURVE",
"199 705 CURVE SMOOTH",
"199 506 OFFCURVE",
"29 283 OFFCURVE",
"29 110 CURVE SMOOTH"
);
},
{
closed = 1;
nodes = (
"250 340 OFFCURVE",
"300 333 OFFCURVE",
"474 333 CURVE SMOOTH",
"689 333 OFFCURVE",
"818 352 OFFCURVE",
"818 502 CURVE SMOOTH",
"818 532 OFFCURVE",
"816 562 OFFCURVE",
"801 590 CURVE",
"694 567 OFFCURVE",
"607 552 OFFCURVE",
"366 552 CURVE SMOOTH",
"282 552 OFFCURVE",
"250 511 OFFCURVE",
"250 439 CURVE SMOOTH"
);
}
);
};
layerId = "BE599D47-15C2-4DC8-BE97-05FFE6CA3179";
paths = (
{
closed = 1;
nodes = (
"245 402 OFFCURVE",
"295 395 OFFCURVE",
"450 395 CURVE SMOOTH",
"688 395 OFFCURVE",
"816 413 OFFCURVE",
"821 548 CURVE SMOOTH",
"822 577 OFFCURVE",
"818 605 OFFCURVE",
"804 639 CURVE",
"696 616 OFFCURVE",
"611 601 OFFCURVE",
"370 601 CURVE SMOOTH",
"285 601 OFFCURVE",
"252 565 OFFCURVE",
"249 497 CURVE SMOOTH"
);
},
{
closed = 1;
nodes = (
"14 26 OFFCURVE",
"161 -17 OFFCURVE",
"444 -17 CURVE SMOOTH",
"648 -17 OFFCURVE",
"816 5 OFFCURVE",
"816 209 CURVE SMOOTH",
"816 241 OFFCURVE",
"812 274 OFFCURVE",
"794 303 CURVE",
"754 267 OFFCURVE",
"628 228 OFFCURVE",
"507 228 CURVE SMOOTH",
"457 228 OFFCURVE",
"411 234 OFFCURVE",
"388 242 CURVE SMOOTH",
"365 250 OFFCURVE",
"359 262 OFFCURVE",
"359 275 CURVE SMOOTH",
"359 339 OFFCURVE",
"514 657 OFFCURVE",
"564 750 CURVE",
"582 749 OFFCURVE",
"601 748 OFFCURVE",
"622 748 CURVE SMOOTH",
"864 748 OFFCURVE",
"1023 781 OFFCURVE",
"1023 942 CURVE SMOOTH",
"1023 976 OFFCURVE",
"1016 1011 OFFCURVE",
"1001 1047 CURVE",
"897 1014 OFFCURVE",
"805 1004 OFFCURVE",
"731 1004 CURVE SMOOTH",
"616 1004 OFFCURVE",
"482 1029 OFFCURVE",
"351 1029 CURVE SMOOTH",
"252 1029 OFFCURVE",
"170 1014 OFFCURVE",
"121 810 CURVE",
"190 810 OFFCURVE",
"207 800 OFFCURVE",
"207 746 CURVE SMOOTH",
"207 568 OFFCURVE",
"20 324 OFFCURVE",
"17 167 CURVE SMOOTH"
);
}
);
width = 863;
},
{
associatedMasterId = "BE599D47-15C2-4DC8-BE97-05FFE6CA3179";
background = {
paths = (
{
closed = 1;
nodes = (
"203 -78 OFFCURVE",
"287 -38 OFFCURVE",
"344 10 CURVE",
"337 33 OFFCURVE",
"333 57 OFFCURVE",
"333 90 CURVE SMOOTH",
"333 366 OFFCURVE",
"590 699 OFFCURVE",
"581 870 CURVE SMOOTH",
"577 948 OFFCURVE",
"526 967 OFFCURVE",
"451 967 CURVE SMOOTH",
"360 967 OFFCURVE",
"258 939 OFFCURVE",
"165 882 CURVE",
"189 838 OFFCURVE",
"194 793 OFFCURVE",
"194 755 CURVE SMOOTH",
"194 482 OFFCURVE",
"-8 286 OFFCURVE",
"-10 62 CURVE SMOOTH",
"-11 -29 OFFCURVE",
"48 -78 OFFCURVE",
"128 -78 CURVE SMOOTH"
);
},
{
closed = 1;
nodes = (
"554 -80 OFFCURVE",
"775 -19 OFFCURVE",
"775 105 CURVE SMOOTH",
"775 147 OFFCURVE",
"761 192 OFFCURVE",
"750 211 CURVE",
"698 159 OFFCURVE",
"559 163 OFFCURVE",
"460 163 CURVE SMOOTH",
"388 163 OFFCURVE",
"332 175 OFFCURVE",
"332 252 CURVE",
"6 171 LINE",
"6 -4 OFFCURVE",
"152 -80 OFFCURVE",
"350 -80 CURVE SMOOTH"
);
}
);
};
layerId = "62449B94-6233-40A0-A075-5FB10F0E59DB";
name = "Regular Italic Mar 23 16, 21:36";
paths = (
{
closed = 1;
nodes = (
"7 -39 OFFCURVE",
"172 -84 OFFCURVE",
"454 -84 CURVE SMOOTH",
"695 -84 OFFCURVE",
"826 -63 OFFCURVE",
"826 144 CURVE SMOOTH",
"826 178 OFFCURVE",
"819 212 OFFCURVE",
"800 241 CURVE",
"762 203 OFFCURVE",
"626 162 OFFCURVE",
"504 162 CURVE SMOOTH",
"447 162 OFFCURVE",
"401 168 OFFCURVE",
"372 178 CURVE SMOOTH",
"349 186 OFFCURVE",
"345 203 OFFCURVE",
"349 221 CURVE SMOOTH",
"385.027 383.462 OFFCURVE",
"479.275 549.621 OFFCURVE",
"535.945 687.752 CURVE",
"553.769 686.58 OFFCURVE",
"573.086 686 OFFCURVE",
"594 686 CURVE SMOOTH",
"836 686 OFFCURVE",
"981 707 OFFCURVE",
"981 876 CURVE SMOOTH",
"981 910 OFFCURVE",
"979 944 OFFCURVE",
"962 975 CURVE",
"886 953 OFFCURVE",
"843 946 OFFCURVE",
"721 946 CURVE SMOOTH",
"664.88 946 OFFCURVE",
"533 966 OFFCURVE",
"455 967 CURVE SMOOTH",
"451 967 LINE SMOOTH",
"360 967 OFFCURVE",
"258 939 OFFCURVE",
"165 882 CURVE",
"189 838 OFFCURVE",
"194 793 OFFCURVE",
"194 755 CURVE SMOOTH",
"194 482 OFFCURVE",
"11 286 OFFCURVE",
"9 163 CURVE SMOOTH"
);
},
{
closed = 1;
nodes = (
"228 340 OFFCURVE",
"276 333 OFFCURVE",
"454 333 CURVE SMOOTH",
"669 333 OFFCURVE",
"798 352 OFFCURVE",
"798 502 CURVE SMOOTH",
"798 532 OFFCURVE",
"796 562 OFFCURVE",
"781 590 CURVE",
"674 567 OFFCURVE",
"587 552 OFFCURVE",
"346 552 CURVE SMOOTH",
"264 552 OFFCURVE",
"231 513 OFFCURVE",
"230 445 CURVE SMOOTH"
);
}
);
width = 901;
},
{
associatedMasterId = "BE599D47-15C2-4DC8-BE97-05FFE6CA3179";
background = {
paths = (
{
closed = 1;
nodes = (
"7 -39 OFFCURVE",
"172 -84 OFFCURVE",
"454 -84 CURVE SMOOTH",
"695 -84 OFFCURVE",
"826 -63 OFFCURVE",
"826 144 CURVE SMOOTH",
"826 178 OFFCURVE",
"819 212 OFFCURVE",
"800 241 CURVE",
"762 203 OFFCURVE",
"626 162 OFFCURVE",
"504 162 CURVE SMOOTH",
"447 162 OFFCURVE",
"401 168 OFFCURVE",
"372 178 CURVE SMOOTH",
"349 186 OFFCURVE",
"345 203 OFFCURVE",
"349 221 CURVE SMOOTH",
"385.027 383.462 OFFCURVE",
"479.275 549.621 OFFCURVE",
"535.945 687.752 CURVE",
"553.769 686.58 OFFCURVE",
"573.086 686 OFFCURVE",
"594 686 CURVE SMOOTH",
"836 686 OFFCURVE",
"981 707 OFFCURVE",
"981 876 CURVE SMOOTH",
"981 910 OFFCURVE",
"979 944 OFFCURVE",
"962 975 CURVE",
"886 953 OFFCURVE",
"843 946 OFFCURVE",
"721 946 CURVE SMOOTH",
"664.88 946 OFFCURVE",
"533 966 OFFCURVE",
"455 967 CURVE SMOOTH",
"451 967 LINE SMOOTH",
"360 967 OFFCURVE",
"258 939 OFFCURVE",
"165 882 CURVE",
"189 838 OFFCURVE",
"194 793 OFFCURVE",
"194 755 CURVE SMOOTH",
"194 482 OFFCURVE",
"11 286 OFFCURVE",
"9 163 CURVE SMOOTH"
);
},
{
closed = 1;
nodes = (
"228 340 OFFCURVE",
"276 333 OFFCURVE",
"454 333 CURVE SMOOTH",
"669 333 OFFCURVE",
"798 352 OFFCURVE",
"798 502 CURVE SMOOTH",
"798 532 OFFCURVE",
"796 562 OFFCURVE",
"781 590 CURVE",
"674 567 OFFCURVE",
"587 552 OFFCURVE",
"346 552 CURVE SMOOTH",
"264 552 OFFCURVE",
"231 513 OFFCURVE",
"230 445 CURVE SMOOTH"
);
}
);
};
layerId = "4C8E2084-5746-4CA2-BF8F-39A6E5FC7649";
name = "Regular Italic Mar 23 16, 21:41";
paths = (
{
closed = 1;
nodes = (
"9 -40 OFFCURVE",
"174 -84 OFFCURVE",
"454 -84 CURVE SMOOTH",
"695 -84 OFFCURVE",
"826 -63 OFFCURVE",
"826 144 CURVE SMOOTH",
"826 178 OFFCURVE",
"819 212 OFFCURVE",
"800 241 CURVE",
"762 203 OFFCURVE",
"626 162 OFFCURVE",
"504 162 CURVE SMOOTH",
"447 162 OFFCURVE",
"401 168 OFFCURVE",
"372 178 CURVE SMOOTH",
"354 184 OFFCURVE",
"348 196 OFFCURVE",
"348 209 CURVE SMOOTH",
"348 213 OFFCURVE",
"348 217 OFFCURVE",
"349 221 CURVE SMOOTH",
"385.027 383.462 OFFCURVE",
"479.275 549.621 OFFCURVE",
"535.945 687.752 CURVE",
"553.769 686.58 OFFCURVE",
"573.086 686 OFFCURVE",
"594 686 CURVE SMOOTH",
"836 686 OFFCURVE",
"981 717 OFFCURVE",
"981 886 CURVE SMOOTH",
"981 920 OFFCURVE",
"979 954 OFFCURVE",
"962 985 CURVE",
"860 952 OFFCURVE",
"778 942 OFFCURVE",
"705 942 CURVE SMOOTH",
"605 942 OFFCURVE",
"521 970 OFFCURVE",
"421 967 CURVE SMOOTH",
"238 961 OFFCURVE",
"134 952 OFFCURVE",
"91 748 CURVE",
"99 748 OFFCURVE",
"106 749 OFFCURVE",
"113 749 CURVE SMOOTH",
"151 749 OFFCURVE",
"179 740 OFFCURVE",
"179 705 CURVE SMOOTH",
"179 506 OFFCURVE",
"9 283 OFFCURVE",
"9 110 CURVE SMOOTH"
);
},
{
closed = 1;
nodes = (
"230 340 OFFCURVE",
"280 333 OFFCURVE",
"454 333 CURVE SMOOTH",
"669 333 OFFCURVE",
"798 352 OFFCURVE",
"798 502 CURVE SMOOTH",
"798 532 OFFCURVE",
"796 562 OFFCURVE",
"781 590 CURVE",
"674 567 OFFCURVE",
"587 552 OFFCURVE",
"346 552 CURVE SMOOTH",
"262 552 OFFCURVE",
"230 511 OFFCURVE",
"230 439 CURVE SMOOTH"
);
}
);
width = 901;
}
);
unicode = 0045;
},
{
glyphname = F;
lastChange = "2016-04-03 01:55:00 +0000";
layers = (
{
background = {
paths = (
{
closed = 1;
nodes = (
"244 340 OFFCURVE",
"294 333 OFFCURVE",
"449 333 CURVE SMOOTH",
"687 333 OFFCURVE",
"815 351 OFFCURVE",
"820 486 CURVE SMOOTH",
"821 515 OFFCURVE",
"817 543 OFFCURVE",
"803 577 CURVE",
"695 554 OFFCURVE",
"610 539 OFFCURVE",
"369 539 CURVE SMOOTH",
"284 539 OFFCURVE",
"251 503 OFFCURVE",
"248 435 CURVE SMOOTH"
);
},
{
closed = 1;
nodes = (
"13 -36 OFFCURVE",
"160 -79 OFFCURVE",
"443 -79 CURVE SMOOTH",
"647 -79 OFFCURVE",
"815 -57 OFFCURVE",
"815 147 CURVE SMOOTH",
"815 179 OFFCURVE",
"811 212 OFFCURVE",
"793 241 CURVE",
"753 205 OFFCURVE",
"627 166 OFFCURVE",
"506 166 CURVE SMOOTH",
"456 166 OFFCURVE",
"410 172 OFFCURVE",
"387 180 CURVE SMOOTH",
"364 188 OFFCURVE",
"358 200 OFFCURVE",
"358 213 CURVE SMOOTH",
"358 277 OFFCURVE",
"513 595 OFFCURVE",
"563 688 CURVE",
"581 687 OFFCURVE",
"600 686 OFFCURVE",
"621 686 CURVE SMOOTH",
"863 686 OFFCURVE",
"1022 719 OFFCURVE",
"1022 880 CURVE SMOOTH",
"1022 914 OFFCURVE",
"1015 949 OFFCURVE",
"1000 985 CURVE",
"896 952 OFFCURVE",
"804 942 OFFCURVE",
"730 942 CURVE SMOOTH",
"615 942 OFFCURVE",
"481 967 OFFCURVE",
"350 967 CURVE SMOOTH",
"251 967 OFFCURVE",
"169 952 OFFCURVE",
"120 748 CURVE",
"189 748 OFFCURVE",
"206 738 OFFCURVE",
"206 684 CURVE SMOOTH",
"206 506 OFFCURVE",
"19 262 OFFCURVE",
"16 105 CURVE SMOOTH"
);
}
);
};
layerId = "BE599D47-15C2-4DC8-BE97-05FFE6CA3179";
paths = (
{
closed = 1;
nodes = (
"9 33 OFFCURVE",
"67 -16 OFFCURVE",
"160 -16 CURVE SMOOTH",
"240 -16 OFFCURVE",
"318 21 OFFCURVE",
"374 72 CURVE",
"355 106 OFFCURVE",
"344 142 OFFCURVE",
"344 190 CURVE SMOOTH",
"344 365 OFFCURVE",
"490 632 OFFCURVE",
"561 750 CURVE",
"620 748 LINE SMOOTH",
"837 741 OFFCURVE",
"964 769 OFFCURVE",
"964 931 CURVE SMOOTH",
"964 972 OFFCURVE",
"956 1005 OFFCURVE",
"941 1037 CURVE",
"876 1015 OFFCURVE",
"816 1005 OFFCURVE",
"754 1005 CURVE SMOOTH",
"660 1005 OFFCURVE",
"458 1029 OFFCURVE",
"364 1029 CURVE SMOOTH",
"222 1029 OFFCURVE",
"162 978 OFFCURVE",
"123 813 CURVE",
"189 806 OFFCURVE",
"207 798 OFFCURVE",
"207 745 CURVE SMOOTH",
"207 567 OFFCURVE",
"9 308 OFFCURVE",
"9 130 CURVE SMOOTH"
);
},
{
closed = 1;
nodes = (
"248 401 OFFCURVE",
"300 395 OFFCURVE",
"449 395 CURVE SMOOTH",
"646 395 OFFCURVE",
"750 412 OFFCURVE",
"750 554 CURVE SMOOTH",
"750 580 OFFCURVE",
"746 606 OFFCURVE",
"733 637 CURVE",
"625 614 OFFCURVE",
"571 601 OFFCURVE",
"369 601 CURVE SMOOTH",
"280 601 OFFCURVE",
"248 561 OFFCURVE",
"248 487 CURVE SMOOTH"
);
}
);
width = 782;
}
);
unicode = 0046;
},
{
glyphname = G;
lastChange = "2016-04-03 01:55:00 +0000";
layers = (
{
background = {
paths = (
{
closed = 1;
nodes = (
"37 38 OFFCURVE",
"185 -91 OFFCURVE",
"462 -91 CURVE SMOOTH",
"698 -91 OFFCURVE",
"855 2 OFFCURVE",
"980 444 CURVE",
"906 461 OFFCURVE",
"711 474 OFFCURVE",
"644 460 CURVE SMOOTH",
"590 449 OFFCURVE",
"547 406 OFFCURVE",
"510 270 CURVE",
"672 269 LINE",
"646 201 OFFCURVE",
"590 168 OFFCURVE",
"536 168 CURVE SMOOTH",
"472 168 OFFCURVE",
"412 214 OFFCURVE",
"412 322 CURVE SMOOTH",
"412 476 OFFCURVE",
"536 723 OFFCURVE",
"680 723 CURVE SMOOTH",
"740 723 OFFCURVE",
"781 680 OFFCURVE",
"781 622 CURVE SMOOTH",
"781 613 OFFCURVE",
"780 601 OFFCURVE",
"777 590 CURVE",
"791 587 OFFCURVE",
"818 582 OFFCURVE",
"846 582 CURVE SMOOTH",
"922 582 OFFCURVE",
"1020 618 OFFCURVE",
"1020 743 CURVE SMOOTH",
"1020 902 OFFCURVE",
"860 967 OFFCURVE",
"689 967 CURVE SMOOTH",
"326 967 OFFCURVE",
"37 675 OFFCURVE",
"37 304 CURVE SMOOTH"
);
}
);
};
layerId = "BE599D47-15C2-4DC8-BE97-05FFE6CA3179";
paths = (
{
closed = 1;
nodes = (
"37 100 OFFCURVE",
"185 -29 OFFCURVE",
"442 -29 CURVE SMOOTH",
"700 -29 OFFCURVE",
"897 94 OFFCURVE",
"985 506 CURVE",
"910 523 OFFCURVE",
"712 536 OFFCURVE",
"644 522 CURVE SMOOTH",
"590 511 OFFCURVE",
"547 468 OFFCURVE",
"510 332 CURVE",
"672 331 LINE",
"646 263 OFFCURVE",
"590 230 OFFCURVE",
"536 230 CURVE SMOOTH",
"472 230 OFFCURVE",
"412 276 OFFCURVE",
"412 384 CURVE SMOOTH",
"412 538 OFFCURVE",
"536 785 OFFCURVE",
"680 785 CURVE SMOOTH",
"740 785 OFFCURVE",
"781 742 OFFCURVE",
"781 684 CURVE SMOOTH",
"781 675 OFFCURVE",
"780 663 OFFCURVE",
"777 652 CURVE",
"791 649 OFFCURVE",
"818 644 OFFCURVE",
"846 644 CURVE SMOOTH",
"922 644 OFFCURVE",
"1020 680 OFFCURVE",
"1020 805 CURVE SMOOTH",
"1020 964 OFFCURVE",
"860 1029 OFFCURVE",
"689 1029 CURVE SMOOTH",
"326 1029 OFFCURVE",
"37 737 OFFCURVE",
"37 366 CURVE SMOOTH"
);
}
);
width = 940;
},
{
associatedMasterId = "BE599D47-15C2-4DC8-BE97-05FFE6CA3179";
layerId = "529CB9E8-6538-447A-948A-752476FF5489";
name = "Regular Italic Mar 27 16, 16:27";
paths = (
{
closed = 1;
nodes = (
"78 38 OFFCURVE",
"228 -91 OFFCURVE",
"497 -91 CURVE SMOOTH",
"712 -91 OFFCURVE",
"919 -8 OFFCURVE",
"919 183 CURVE SMOOTH",
"919 215 OFFCURVE",
"913 259 OFFCURVE",
"886 315 CURVE",
"809 238 OFFCURVE",
"698 197 OFFCURVE",
"584 197 CURVE SMOOTH",
"541 197 OFFCURVE",
"465 220 OFFCURVE",
"465 333 CURVE SMOOTH",
"465 478 OFFCURVE",
"591 733 OFFCURVE",
"719 733 CURVE SMOOTH",
"762 733 OFFCURVE",
"778 704 OFFCURVE",
"778 664 CURVE SMOOTH",
"778 606 OFFCURVE",
"745 539 OFFCURVE",
"693 481 CURVE",
"732 459 OFFCURVE",
"772 449 OFFCURVE",
"811 449 CURVE SMOOTH",
"933 449 OFFCURVE",
"1044 555 OFFCURVE",
"1044 710 CURVE SMOOTH",
"1044 875 OFFCURVE",
"921 967 OFFCURVE",
"725 967 CURVE SMOOTH",
"371 967 OFFCURVE",
"78 675 OFFCURVE",
"78 306 CURVE SMOOTH"
);
}
);
width = 971;
},
{
associatedMasterId = "BE599D47-15C2-4DC8-BE97-05FFE6CA3179";
background = {
paths = (
{
closed = 1;
nodes = (
"78 38 OFFCURVE",
"228 -91 OFFCURVE",
"497 -91 CURVE SMOOTH",
"712 -91 OFFCURVE",
"919 -8 OFFCURVE",
"919 183 CURVE SMOOTH",
"919 215 OFFCURVE",
"913 259 OFFCURVE",
"886 315 CURVE",
"809 238 OFFCURVE",
"698 197 OFFCURVE",
"584 197 CURVE SMOOTH",
"541 197 OFFCURVE",
"465 220 OFFCURVE",
"465 333 CURVE SMOOTH",
"465 478 OFFCURVE",
"591 733 OFFCURVE",
"719 733 CURVE SMOOTH",
"762 733 OFFCURVE",
"778 704 OFFCURVE",
"778 664 CURVE SMOOTH",
"778 606 OFFCURVE",
"745 539 OFFCURVE",
"693 481 CURVE",
"732 459 OFFCURVE",
"772 449 OFFCURVE",
"811 449 CURVE SMOOTH",
"933 449 OFFCURVE",
"1044 555 OFFCURVE",
"1044 710 CURVE SMOOTH",
"1044 875 OFFCURVE",
"921 967 OFFCURVE",
"725 967 CURVE SMOOTH",
"371 967 OFFCURVE",
"78 675 OFFCURVE",
"78 306 CURVE SMOOTH"
);
}
);
};
layerId = "ABCC03B8-054B-4498-A1B0-800F370B2A89";
name = "Regular Italic Mar 27 16, 16:30";
paths = (
{
closed = 1;
nodes = (
"78 38 OFFCURVE",
"228 -91 OFFCURVE",
"497 -91 CURVE SMOOTH",
"732 -91 OFFCURVE",
"928 8 OFFCURVE",
"928 236 CURVE",
"727 313 LINE",
"760 177 OFFCURVE",
"698 137 OFFCURVE",
"584 137 CURVE SMOOTH",
"541 137 OFFCURVE",
"465 170 OFFCURVE",
"465 333 CURVE SMOOTH",
"465 485 OFFCURVE",
"601 753 OFFCURVE",
"739 753 CURVE SMOOTH",
"782 753 OFFCURVE",
"801 724 OFFCURVE",
"802 684 CURVE SMOOTH",
"804 613 OFFCURVE",
"798 586 OFFCURVE",
"746 528 CURVE",
"785 506 OFFCURVE",
"825 496 OFFCURVE",
"864 496 CURVE SMOOTH",
"965 496 OFFCURVE",
"1044 589 OFFCURVE",
"1044 710 CURVE SMOOTH",
"1044 875 OFFCURVE",
"921 967 OFFCURVE",
"725 967 CURVE SMOOTH",
"371 967 OFFCURVE",
"78 675 OFFCURVE",
"78 306 CURVE SMOOTH"
);
},
{
closed = 1;
nodes = (
"996 220 OFFCURVE",
"1062 283 OFFCURVE",
"1081 445 CURVE",
"1037 426 OFFCURVE",
"999 421 OFFCURVE",
"964 421 CURVE SMOOTH",
"892 421 OFFCURVE",
"813 442 OFFCURVE",
"748 442 CURVE SMOOTH",
"638 442 OFFCURVE",
"568 318 OFFCURVE",
"569 226 CURVE",
"600 236 OFFCURVE",
"627 238 OFFCURVE",
"663 238 CURVE SMOOTH",
"758 238 OFFCURVE",
"813 220 OFFCURVE",
"890 220 CURVE SMOOTH"
);
}
);
width = 1001;
},
{
associatedMasterId = "BE599D47-15C2-4DC8-BE97-05FFE6CA3179";
background = {
paths = (
{
closed = 1;
nodes = (
"78 38 OFFCURVE",
"228 -91 OFFCURVE",
"497 -91 CURVE SMOOTH",
"712 -91 OFFCURVE",
"919 -8 OFFCURVE",
"919 183 CURVE SMOOTH",
"919 215 OFFCURVE",
"913 259 OFFCURVE",
"886 315 CURVE",
"809 238 OFFCURVE",
"698 197 OFFCURVE",
"584 197 CURVE SMOOTH",
"541 197 OFFCURVE",
"465 220 OFFCURVE",
"465 333 CURVE SMOOTH",
"465 478 OFFCURVE",
"591 733 OFFCURVE",
"719 733 CURVE SMOOTH",
"762 733 OFFCURVE",
"778 704 OFFCURVE",
"778 664 CURVE SMOOTH",
"778 606 OFFCURVE",
"745 539 OFFCURVE",
"693 481 CURVE",
"732 459 OFFCURVE",
"772 449 OFFCURVE",
"811 449 CURVE SMOOTH",
"933 449 OFFCURVE",
"1044 555 OFFCURVE",
"1044 710 CURVE SMOOTH",
"1044 875 OFFCURVE",
"921 967 OFFCURVE",
"725 967 CURVE SMOOTH",
"371 967 OFFCURVE",
"78 675 OFFCURVE",
"78 306 CURVE SMOOTH"
);
}
);
};
layerId = "D02F85D7-0836-43C9-8621-D4214BDB811B";
name = "Regular Italic Mar 27 16, 16:31";
paths = (
{
closed = 1;
nodes = (
"78 38 OFFCURVE",
"228 -91 OFFCURVE",
"497 -91 CURVE SMOOTH",
"667 -91 OFFCURVE",
"753 -19 OFFCURVE",
"837 -119 CURVE",
"848 -35 OFFCURVE",
"939 233 OFFCURVE",
"1023 415 CURVE",
"979 396 OFFCURVE",
"941 391 OFFCURVE",
"906 391 CURVE SMOOTH",
"834 391 OFFCURVE",
"735 422 OFFCURVE",
"670 422 CURVE SMOOTH",
"560 422 OFFCURVE",
"568 305 OFFCURVE",
"569 226 CURVE",
"613 240 OFFCURVE",
"663 240 OFFCURVE",
"723 235 CURVE",
"717 161 OFFCURVE",
"642 137 OFFCURVE",
"584 137 CURVE SMOOTH",
"541 137 OFFCURVE",
"465 170 OFFCURVE",
"465 333 CURVE SMOOTH",
"465 485 OFFCURVE",
"601 753 OFFCURVE",
"739 753 CURVE SMOOTH",
"782 753 OFFCURVE",
"801 724 OFFCURVE",
"802 684 CURVE SMOOTH",
"804 613 OFFCURVE",
"798 586 OFFCURVE",
"746 528 CURVE",
"785 506 OFFCURVE",
"825 496 OFFCURVE",
"864 496 CURVE SMOOTH",
"965 496 OFFCURVE",
"1044 589 OFFCURVE",
"1044 710 CURVE SMOOTH",
"1044 875 OFFCURVE",
"921 967 OFFCURVE",
"725 967 CURVE SMOOTH",
"371 967 OFFCURVE",
"78 675 OFFCURVE",
"78 306 CURVE SMOOTH"
);
}
);
width = 1001;
},
{
associatedMasterId = "BE599D47-15C2-4DC8-BE97-05FFE6CA3179";
background = {
paths = (
{
closed = 1;
nodes = (
"78 38 OFFCURVE",
"228 -91 OFFCURVE",
"497 -91 CURVE SMOOTH",
"712 -91 OFFCURVE",
"919 -8 OFFCURVE",
"919 183 CURVE SMOOTH",
"919 215 OFFCURVE",
"913 259 OFFCURVE",
"886 315 CURVE",
"809 238 OFFCURVE",
"698 197 OFFCURVE",
"584 197 CURVE SMOOTH",
"541 197 OFFCURVE",
"465 220 OFFCURVE",
"465 333 CURVE SMOOTH",
"465 478 OFFCURVE",
"591 733 OFFCURVE",
"719 733 CURVE SMOOTH",
"762 733 OFFCURVE",
"778 704 OFFCURVE",
"778 664 CURVE SMOOTH",
"778 606 OFFCURVE",
"745 539 OFFCURVE",
"693 481 CURVE",
"732 459 OFFCURVE",
"772 449 OFFCURVE",
"811 449 CURVE SMOOTH",
"933 449 OFFCURVE",
"1044 555 OFFCURVE",
"1044 710 CURVE SMOOTH",
"1044 875 OFFCURVE",
"921 967 OFFCURVE",
"725 967 CURVE SMOOTH",
"371 967 OFFCURVE",
"78 675 OFFCURVE",
"78 306 CURVE SMOOTH"
);
}
);
};
layerId = "32DBA38F-B4E2-4B64-BD66-70E9E3D40764";
name = "Regular Italic Mar 27 16, 16:31";
paths = (
{
closed = 1;
nodes = (
"78 38 OFFCURVE",
"228 -91 OFFCURVE",
"497 -91 CURVE SMOOTH",
"667 -91 OFFCURVE",
"753 -19 OFFCURVE",
"837 -119 CURVE",
"933 206 OFFCURVE",
"1022 361 OFFCURVE",
"906 391 CURVE SMOOTH",
"836 409 OFFCURVE",
"735 422 OFFCURVE",
"670 422 CURVE SMOOTH",
"560 422 OFFCURVE",
"568 305 OFFCURVE",
"569 226 CURVE",
"613 240 OFFCURVE",
"663 240 OFFCURVE",
"723 235 CURVE",
"717 161 OFFCURVE",
"642 137 OFFCURVE",
"584 137 CURVE SMOOTH",
"541 137 OFFCURVE",
"465 170 OFFCURVE",
"465 333 CURVE SMOOTH",
"465 485 OFFCURVE",
"601 753 OFFCURVE",
"739 753 CURVE SMOOTH",
"782 753 OFFCURVE",
"801 724 OFFCURVE",
"802 684 CURVE SMOOTH",
"804 613 OFFCURVE",
"798 586 OFFCURVE",
"746 528 CURVE",
"785 506 OFFCURVE",
"825 496 OFFCURVE",
"864 496 CURVE SMOOTH",
"965 496 OFFCURVE",
"1044 589 OFFCURVE",
"1044 710 CURVE SMOOTH",
"1044 875 OFFCURVE",
"921 967 OFFCURVE",
"725 967 CURVE SMOOTH",
"371 967 OFFCURVE",
"78 675 OFFCURVE",
"78 306 CURVE SMOOTH"
);
}
);
width = 1001;
},
{
associatedMasterId = "BE599D47-15C2-4DC8-BE97-05FFE6CA3179";
background = {
paths = (
{
closed = 1;
nodes = (
"78 38 OFFCURVE",
"228 -91 OFFCURVE",
"497 -91 CURVE SMOOTH",
"712 -91 OFFCURVE",
"919 -8 OFFCURVE",
"919 183 CURVE SMOOTH",
"919 215 OFFCURVE",
"913 259 OFFCURVE",
"886 315 CURVE",
"809 238 OFFCURVE",
"698 197 OFFCURVE",
"584 197 CURVE SMOOTH",
"541 197 OFFCURVE",
"465 220 OFFCURVE",
"465 333 CURVE SMOOTH",
"465 478 OFFCURVE",
"591 733 OFFCURVE",
"719 733 CURVE SMOOTH",
"762 733 OFFCURVE",
"778 704 OFFCURVE",
"778 664 CURVE SMOOTH",
"778 606 OFFCURVE",
"745 539 OFFCURVE",
"693 481 CURVE",
"732 459 OFFCURVE",
"772 449 OFFCURVE",
"811 449 CURVE SMOOTH",
"933 449 OFFCURVE",
"1044 555 OFFCURVE",
"1044 710 CURVE SMOOTH",
"1044 875 OFFCURVE",
"921 967 OFFCURVE",
"725 967 CURVE SMOOTH",
"371 967 OFFCURVE",
"78 675 OFFCURVE",
"78 306 CURVE SMOOTH"
);
}
);
};
layerId = "6D725111-3A13-414D-BA80-2F5641CDDF89";
name = "Regular Italic Mar 27 16, 16:34";
paths = (
{
closed = 1;
nodes = (
"78 38 OFFCURVE",
"228 -91 OFFCURVE",
"497 -91 CURVE SMOOTH",
"796 -91 OFFCURVE",
"953 48 OFFCURVE",
"972 406 CURVE",
"902 424 OFFCURVE",
"745 452 OFFCURVE",
"680 452 CURVE SMOOTH",
"586 452 OFFCURVE",
"534 380 OFFCURVE",
"569 246 CURVE",
"597 255 OFFCURVE",
"634 258 OFFCURVE",
"673 258 CURVE SMOOTH",
"697 258 OFFCURVE",
"721 257 OFFCURVE",
"743 255 CURVE",
"737 181 OFFCURVE",
"640 150 OFFCURVE",
"584 155 CURVE SMOOTH",
"541 159 OFFCURVE",
"465 190 OFFCURVE",
"465 333 CURVE SMOOTH",
"465 485 OFFCURVE",
"581 723 OFFCURVE",
"719 723 CURVE SMOOTH",
"804 723 OFFCURVE",
"865 700 OFFCURVE",
"865 605 CURVE",
"911 594 OFFCURVE",
"1061 609 OFFCURVE",
"1061 758 CURVE SMOOTH",
"1061 883 OFFCURVE",
"921 967 OFFCURVE",
"725 967 CURVE SMOOTH",
"371 967 OFFCURVE",
"78 675 OFFCURVE",
"78 306 CURVE SMOOTH"
);
}
);
width = 1001;
},
{
associatedMasterId = "BE599D47-15C2-4DC8-BE97-05FFE6CA3179";
background = {
paths = (
{
closed = 1;
nodes = (
"78 38 OFFCURVE",
"228 -91 OFFCURVE",
"497 -91 CURVE SMOOTH",
"712 -91 OFFCURVE",
"919 -8 OFFCURVE",
"919 183 CURVE SMOOTH",
"919 215 OFFCURVE",
"913 259 OFFCURVE",
"886 315 CURVE",
"809 238 OFFCURVE",
"698 197 OFFCURVE",
"584 197 CURVE SMOOTH",
"541 197 OFFCURVE",
"465 220 OFFCURVE",
"465 333 CURVE SMOOTH",
"465 478 OFFCURVE",
"591 733 OFFCURVE",
"719 733 CURVE SMOOTH",
"762 733 OFFCURVE",
"778 704 OFFCURVE",
"778 664 CURVE SMOOTH",
"778 606 OFFCURVE",
"745 539 OFFCURVE",
"693 481 CURVE",
"732 459 OFFCURVE",
"772 449 OFFCURVE",
"811 449 CURVE SMOOTH",
"933 449 OFFCURVE",
"1044 555 OFFCURVE",
"1044 710 CURVE SMOOTH",
"1044 875 OFFCURVE",
"921 967 OFFCURVE",
"725 967 CURVE SMOOTH",
"371 967 OFFCURVE",
"78 675 OFFCURVE",
"78 306 CURVE SMOOTH"
);
}
);
};
layerId = "AD1684EF-E613-46A6-AF9E-6C75B606CB11";
name = "Regular Italic Mar 27 16, 16:35";
paths = (
{
closed = 1;
nodes = (
"78 38 OFFCURVE",
"228 -91 OFFCURVE",
"497 -91 CURVE SMOOTH",
"796 -91 OFFCURVE",
"984 56 OFFCURVE",
"986 434 CURVE",
"916 452 OFFCURVE",
"759 480 OFFCURVE",
"694 480 CURVE SMOOTH",
"617 480 OFFCURVE",
"559 423 OFFCURVE",
"559 329 CURVE SMOOTH",
"559 308 OFFCURVE",
"562 285 OFFCURVE",
"569 260 CURVE",
"591 268 OFFCURVE",
"625 272 OFFCURVE",
"659 272 CURVE SMOOTH",
"678 272 OFFCURVE",
"696 271 OFFCURVE",
"713 269 CURVE",
"708 195 OFFCURVE",
"629 169 OFFCURVE",
"584 169 CURVE SMOOTH",
"541 169 OFFCURVE",
"465 190 OFFCURVE",
"465 333 CURVE SMOOTH",
"465 485 OFFCURVE",
"581 723 OFFCURVE",
"719 723 CURVE SMOOTH",
"782 723 OFFCURVE",
"822 680 OFFCURVE",
"822 623 CURVE SMOOTH",
"822 613 OFFCURVE",
"821 601 OFFCURVE",
"818 590 CURVE",
"832 587 OFFCURVE",
"858 582 OFFCURVE",
"889 582 CURVE SMOOTH",
"963 582 OFFCURVE",
"1061 610 OFFCURVE",
"1061 758 CURVE SMOOTH",
"1061 883 OFFCURVE",
"921 967 OFFCURVE",
"725 967 CURVE SMOOTH",
"371 967 OFFCURVE",
"78 675 OFFCURVE",
"78 306 CURVE SMOOTH"
);
}
);
width = 1001;
},
{
associatedMasterId = "BE599D47-15C2-4DC8-BE97-05FFE6CA3179";
background = {
paths = (
{
closed = 1;
nodes = (
"78 38 OFFCURVE",
"228 -91 OFFCURVE",
"497 -91 CURVE SMOOTH",
"796 -91 OFFCURVE",
"984 56 OFFCURVE",
"986 434 CURVE",
"916 452 OFFCURVE",
"759 480 OFFCURVE",
"694 480 CURVE SMOOTH",
"617 480 OFFCURVE",
"559 423 OFFCURVE",
"559 329 CURVE SMOOTH",
"559 308 OFFCURVE",
"562 285 OFFCURVE",
"569 260 CURVE",
"591 268 OFFCURVE",
"625 272 OFFCURVE",
"659 272 CURVE SMOOTH",
"678 272 OFFCURVE",
"696 271 OFFCURVE",
"713 269 CURVE",
"708 195 OFFCURVE",
"629 169 OFFCURVE",
"584 169 CURVE SMOOTH",
"541 169 OFFCURVE",
"465 190 OFFCURVE",
"465 333 CURVE SMOOTH",
"465 485 OFFCURVE",
"581 723 OFFCURVE",
"719 723 CURVE SMOOTH",
"782 723 OFFCURVE",
"822 680 OFFCURVE",
"822 623 CURVE SMOOTH",
"822 613 OFFCURVE",
"821 601 OFFCURVE",
"818 590 CURVE",
"832 587 OFFCURVE",
"858 582 OFFCURVE",
"889 582 CURVE SMOOTH",
"963 582 OFFCURVE",
"1061 610 OFFCURVE",
"1061 758 CURVE SMOOTH",
"1061 883 OFFCURVE",
"921 967 OFFCURVE",
"725 967 CURVE SMOOTH",
"371 967 OFFCURVE",
"78 675 OFFCURVE",
"78 306 CURVE SMOOTH"
);
}
);
};
layerId = "897CF628-6DFD-4C95-B5FD-C12008AACFF1";
name = "Regular Italic Mar 27 16, 16:36";
paths = (
{
closed = 1;
nodes = (
"78 38 OFFCURVE",
"227 -91 OFFCURVE",
"501 -91 CURVE SMOOTH",
"798 -91 OFFCURVE",
"985 61 OFFCURVE",
"986 434 CURVE",
"916 452 OFFCURVE",
"757 480 OFFCURVE",
"698 480 CURVE SMOOTH",
"615 480 OFFCURVE",
"559 423 OFFCURVE",
"559 329 CURVE SMOOTH",
"559 308 OFFCURVE",
"562 285 OFFCURVE",
"569 260 CURVE",
"591 268 OFFCURVE",
"625 272 OFFCURVE",
"660 272 CURVE SMOOTH",
"678 272 OFFCURVE",
"696 271 OFFCURVE",
"713 269 CURVE",
"708 198 OFFCURVE",
"637 169 OFFCURVE",
"588 169 CURVE SMOOTH",
"542 169 OFFCURVE",
"465 194 OFFCURVE",
"465 327 CURVE SMOOTH",
"465 491 OFFCURVE",
"581 723 OFFCURVE",
"721 723 CURVE SMOOTH",
"781 723 OFFCURVE",
"822 680 OFFCURVE",
"822 622 CURVE SMOOTH",
"822 613 OFFCURVE",
"821 601 OFFCURVE",
"818 590 CURVE",
"832 587 OFFCURVE",
"859 582 OFFCURVE",
"887 582 CURVE SMOOTH",
"963 582 OFFCURVE",
"1061 618 OFFCURVE",
"1061 743 CURVE SMOOTH",
"1061 902 OFFCURVE",
"901 967 OFFCURVE",
"730 967 CURVE SMOOTH",
"367 967 OFFCURVE",
"78 675 OFFCURVE",
"78 304 CURVE SMOOTH"
);
}
);
width = 1001;
},
{
associatedMasterId = "BE599D47-15C2-4DC8-BE97-05FFE6CA3179";
background = {
paths = (
{
closed = 1;
nodes = (
"78 38 OFFCURVE",
"228 -91 OFFCURVE",
"497 -91 CURVE SMOOTH",
"796 -91 OFFCURVE",
"984 56 OFFCURVE",
"986 434 CURVE",
"916 452 OFFCURVE",
"759 480 OFFCURVE",
"694 480 CURVE SMOOTH",
"617 480 OFFCURVE",
"559 423 OFFCURVE",
"559 329 CURVE SMOOTH",
"559 308 OFFCURVE",
"562 285 OFFCURVE",
"569 260 CURVE",
"591 268 OFFCURVE",
"625 272 OFFCURVE",
"659 272 CURVE SMOOTH",
"678 272 OFFCURVE",
"696 271 OFFCURVE",
"713 269 CURVE",
"708 195 OFFCURVE",
"629 169 OFFCURVE",
"584 169 CURVE SMOOTH",
"541 169 OFFCURVE",
"465 190 OFFCURVE",
"465 333 CURVE SMOOTH",
"465 485 OFFCURVE",
"581 723 OFFCURVE",
"719 723 CURVE SMOOTH",
"782 723 OFFCURVE",
"822 680 OFFCURVE",
"822 623 CURVE SMOOTH",
"822 613 OFFCURVE",
"821 601 OFFCURVE",
"818 590 CURVE",
"832 587 OFFCURVE",
"858 582 OFFCURVE",
"889 582 CURVE SMOOTH",
"963 582 OFFCURVE",
"1061 610 OFFCURVE",
"1061 758 CURVE SMOOTH",
"1061 883 OFFCURVE",
"921 967 OFFCURVE",
"725 967 CURVE SMOOTH",
"371 967 OFFCURVE",
"78 675 OFFCURVE",
"78 306 CURVE SMOOTH"
);
}
);
};
layerId = "E9BEE757-DD55-4DEF-B10D-16427650F74F";
name = "Regular Italic Mar 27 16, 16:37";
paths = (
{
closed = 1;
nodes = (
"78 38 OFFCURVE",
"227 -91 OFFCURVE",
"501 -91 CURVE SMOOTH",
"798 -91 OFFCURVE",
"985 61 OFFCURVE",
"986 434 CURVE",
"916 452 OFFCURVE",
"757 480 OFFCURVE",
"698 480 CURVE SMOOTH",
"615 480 OFFCURVE",
"559 423 OFFCURVE",
"559 329 CURVE SMOOTH",
"559 308 OFFCURVE",
"562 285 OFFCURVE",
"569 260 CURVE",
"591 268 OFFCURVE",
"625 272 OFFCURVE",
"660 272 CURVE SMOOTH",
"678 272 OFFCURVE",
"696 271 OFFCURVE",
"713 269 CURVE",
"687 201 OFFCURVE",
"631 168 OFFCURVE",
"577 168 CURVE SMOOTH",
"513 168 OFFCURVE",
"453 214 OFFCURVE",
"453 304 CURVE SMOOTH",
"453 311 OFFCURVE",
"453 319 OFFCURVE",
"454 327 CURVE SMOOTH",
"471 490 OFFCURVE",
"571 723 OFFCURVE",
"721 723 CURVE SMOOTH",
"781 723 OFFCURVE",
"822 680 OFFCURVE",
"822 622 CURVE SMOOTH",
"822 613 OFFCURVE",
"821 601 OFFCURVE",
"818 590 CURVE",
"832 587 OFFCURVE",
"859 582 OFFCURVE",
"887 582 CURVE SMOOTH",
"963 582 OFFCURVE",
"1061 618 OFFCURVE",
"1061 743 CURVE SMOOTH",
"1061 902 OFFCURVE",
"901 967 OFFCURVE",
"730 967 CURVE SMOOTH",
"367 967 OFFCURVE",
"78 675 OFFCURVE",
"78 304 CURVE SMOOTH"
);
}
);
width = 1001;
},
{
associatedMasterId = "BE599D47-15C2-4DC8-BE97-05FFE6CA3179";
background = {
paths = (
{
closed = 1;
nodes = (
"78 38 OFFCURVE",
"227 -91 OFFCURVE",
"501 -91 CURVE SMOOTH",
"798 -91 OFFCURVE",
"985 61 OFFCURVE",
"986 434 CURVE",
"916 452 OFFCURVE",
"757 480 OFFCURVE",
"698 480 CURVE SMOOTH",
"615 480 OFFCURVE",
"559 423 OFFCURVE",
"559 329 CURVE SMOOTH",
"559 308 OFFCURVE",
"562 285 OFFCURVE",
"569 260 CURVE",
"591 268 OFFCURVE",
"625 272 OFFCURVE",
"660 272 CURVE SMOOTH",
"678 272 OFFCURVE",
"696 271 OFFCURVE",
"713 269 CURVE",
"687 201 OFFCURVE",
"631 168 OFFCURVE",
"577 168 CURVE SMOOTH",
"513 168 OFFCURVE",
"453 214 OFFCURVE",
"453 304 CURVE SMOOTH",
"453 311 OFFCURVE",
"453 319 OFFCURVE",
"454 327 CURVE SMOOTH",
"471 490 OFFCURVE",
"571 723 OFFCURVE",
"721 723 CURVE SMOOTH",
"781 723 OFFCURVE",
"822 680 OFFCURVE",
"822 622 CURVE SMOOTH",
"822 613 OFFCURVE",
"821 601 OFFCURVE",
"818 590 CURVE",
"832 587 OFFCURVE",
"859 582 OFFCURVE",
"887 582 CURVE SMOOTH",
"963 582 OFFCURVE",
"1061 618 OFFCURVE",
"1061 743 CURVE SMOOTH",
"1061 902 OFFCURVE",
"901 967 OFFCURVE",
"730 967 CURVE SMOOTH",
"367 967 OFFCURVE",
"78 675 OFFCURVE",
"78 304 CURVE SMOOTH"
);
}
);
};
layerId = "F0BFB48A-FE12-442E-8BCB-C5A3C3D4BFD6";
name = "Regular Italic Mar 27 16, 16:43";
paths = (
{
closed = 1;
nodes = (
"78 38 OFFCURVE",
"227 -91 OFFCURVE",
"501 -91 CURVE SMOOTH",
"798 -91 OFFCURVE",
"985 61 OFFCURVE",
"986 434 CURVE",
"916 452 OFFCURVE",
"757 480 OFFCURVE",
"698 480 CURVE SMOOTH",
"615 480 OFFCURVE",
"559 423 OFFCURVE",
"559 329 CURVE SMOOTH",
"559 308 OFFCURVE",
"562 285 OFFCURVE",
"569 260 CURVE",
"591 268 OFFCURVE",
"625 272 OFFCURVE",
"660 272 CURVE SMOOTH",
"678 272 OFFCURVE",
"696 271 OFFCURVE",
"713 269 CURVE",
"687 201 OFFCURVE",
"631 168 OFFCURVE",
"577 168 CURVE SMOOTH",
"513 168 OFFCURVE",
"453 214 OFFCURVE",
"453 322 CURVE SMOOTH",
"453 476 OFFCURVE",
"577 723 OFFCURVE",
"721 723 CURVE SMOOTH",
"781 723 OFFCURVE",
"822 680 OFFCURVE",
"822 622 CURVE SMOOTH",
"822 613 OFFCURVE",
"821 601 OFFCURVE",
"818 590 CURVE",
"832 587 OFFCURVE",
"859 582 OFFCURVE",
"887 582 CURVE SMOOTH",
"963 582 OFFCURVE",
"1061 618 OFFCURVE",
"1061 743 CURVE SMOOTH",
"1061 902 OFFCURVE",
"901 967 OFFCURVE",
"730 967 CURVE SMOOTH",
"367 967 OFFCURVE",
"78 675 OFFCURVE",
"78 304 CURVE SMOOTH"
);
}
);
width = 1001;
},
{
associatedMasterId = "BE599D47-15C2-4DC8-BE97-05FFE6CA3179";
background = {
paths = (
{
closed = 1;
nodes = (
"78 38 OFFCURVE",
"227 -91 OFFCURVE",
"501 -91 CURVE SMOOTH",
"798 -91 OFFCURVE",
"985 61 OFFCURVE",
"986 434 CURVE",
"916 452 OFFCURVE",
"757 480 OFFCURVE",
"698 480 CURVE SMOOTH",
"615 480 OFFCURVE",
"559 423 OFFCURVE",
"559 329 CURVE SMOOTH",
"559 308 OFFCURVE",
"562 285 OFFCURVE",
"569 260 CURVE",
"591 268 OFFCURVE",
"625 272 OFFCURVE",
"660 272 CURVE SMOOTH",
"678 272 OFFCURVE",
"696 271 OFFCURVE",
"713 269 CURVE",
"687 201 OFFCURVE",
"631 168 OFFCURVE",
"577 168 CURVE SMOOTH",
"513 168 OFFCURVE",
"453 214 OFFCURVE",
"453 304 CURVE SMOOTH",
"453 311 OFFCURVE",
"453 319 OFFCURVE",
"454 327 CURVE SMOOTH",
"471 490 OFFCURVE",
"571 723 OFFCURVE",
"721 723 CURVE SMOOTH",
"781 723 OFFCURVE",
"822 680 OFFCURVE",
"822 622 CURVE SMOOTH",
"822 613 OFFCURVE",
"821 601 OFFCURVE",
"818 590 CURVE",
"832 587 OFFCURVE",
"859 582 OFFCURVE",
"887 582 CURVE SMOOTH",
"963 582 OFFCURVE",
"1061 618 OFFCURVE",
"1061 743 CURVE SMOOTH",
"1061 902 OFFCURVE",
"901 967 OFFCURVE",
"730 967 CURVE SMOOTH",
"367 967 OFFCURVE",
"78 675 OFFCURVE",
"78 304 CURVE SMOOTH"
);
}
);
};
layerId = "0F069C50-FF73-4A7C-940A-0C0B45FB5818";
name = "Regular Italic Mar 27 16, 16:47";
paths = (
{
closed = 1;
nodes = (
"78 38 OFFCURVE",
"226 -91 OFFCURVE",
"503 -91 CURVE SMOOTH",
"739 -91 OFFCURVE",
"896 2 OFFCURVE",
"1021 444 CURVE",
"947 461 OFFCURVE",
"752 474 OFFCURVE",
"685 460 CURVE SMOOTH",
"631 449 OFFCURVE",
"588 406 OFFCURVE",
"551 270 CURVE",
"713 269 LINE",
"687 201 OFFCURVE",
"631 168 OFFCURVE",
"577 168 CURVE SMOOTH",
"513 168 OFFCURVE",
"453 214 OFFCURVE",
"453 322 CURVE SMOOTH",
"453 476 OFFCURVE",
"577 723 OFFCURVE",
"721 723 CURVE SMOOTH",
"781 723 OFFCURVE",
"822 680 OFFCURVE",
"822 622 CURVE SMOOTH",
"822 613 OFFCURVE",
"821 601 OFFCURVE",
"818 590 CURVE",
"832 587 OFFCURVE",
"859 582 OFFCURVE",
"887 582 CURVE SMOOTH",
"963 582 OFFCURVE",
"1061 618 OFFCURVE",
"1061 743 CURVE SMOOTH",
"1061 902 OFFCURVE",
"901 967 OFFCURVE",
"730 967 CURVE SMOOTH",
"367 967 OFFCURVE",
"78 675 OFFCURVE",
"78 304 CURVE SMOOTH"
);
}
);
width = 1001;
}
);
unicode = 0047;
},
{
glyphname = H;
lastChange = "2016-04-03 01:55:00 +0000";
layers = (
{
background = {
paths = (
{
closed = 1;
nodes = (
"270 370 LINE",
"768 370 LINE",
"796 504 LINE",
"297 504 LINE"
);
},
{
closed = 1;
nodes = (
"202 -108 OFFCURVE",
"276 -68 OFFCURVE",
"343 -20 CURVE",
"336 3 OFFCURVE",
"332 27 OFFCURVE",
"332 60 CURVE SMOOTH",
"332 347 OFFCURVE",
"589 692 OFFCURVE",
"580 870 CURVE SMOOTH",
"576 948 OFFCURVE",
"525 967 OFFCURVE",
"450 967 CURVE SMOOTH",
"359 967 OFFCURVE",
"250 939 OFFCURVE",
"154 882 CURVE",
"178 838 OFFCURVE",
"183 793 OFFCURVE",
"183 755 CURVE SMOOTH",
"183 470 OFFCURVE",
"-19 266 OFFCURVE",
"-21 32 CURVE SMOOTH",
"-22 -59 OFFCURVE",
"41 -108 OFFCURVE",
"127 -108 CURVE SMOOTH"
);
},
{
closed = 1;
nodes = (
"737 -108 OFFCURVE",
"811 -68 OFFCURVE",
"878 -20 CURVE",
"871 3 OFFCURVE",
"867 27 OFFCURVE",
"867 60 CURVE SMOOTH",
"867 347 OFFCURVE",
"1124 692 OFFCURVE",
"1115 870 CURVE SMOOTH",
"1111 948 OFFCURVE",
"1060 967 OFFCURVE",
"985 967 CURVE SMOOTH",
"894 967 OFFCURVE",
"785 939 OFFCURVE",
"689 882 CURVE",
"713 838 OFFCURVE",
"718 793 OFFCURVE",
"718 755 CURVE SMOOTH",
"718 470 OFFCURVE",
"517 266 OFFCURVE",
"514 32 CURVE SMOOTH",
"513 -59 OFFCURVE",
"576 -108 OFFCURVE",
"662 -108 CURVE SMOOTH"
);
}
);
};
layerId = "BE599D47-15C2-4DC8-BE97-05FFE6CA3179";
paths = (
{
closed = 1;
nodes = (
"210 -46 OFFCURVE",
"284 -6 OFFCURVE",
"351 42 CURVE",
"344 65 OFFCURVE",
"340 89 OFFCURVE",
"340 122 CURVE SMOOTH",
"340 399 OFFCURVE",
"597 754 OFFCURVE",
"588 932 CURVE SMOOTH",
"584 1010 OFFCURVE",
"533 1029 OFFCURVE",
"458 1029 CURVE SMOOTH",
"367 1029 OFFCURVE",
"258 1001 OFFCURVE",
"162 944 CURVE",
"186 900 OFFCURVE",
"191 855 OFFCURVE",
"191 817 CURVE SMOOTH",
"191 532 OFFCURVE",
"-10 328 OFFCURVE",
"-13 94 CURVE SMOOTH",
"-14 3 OFFCURVE",
"49 -46 OFFCURVE",
"135 -46 CURVE SMOOTH"
);
},
{
closed = 1;
nodes = (
"745 -46 OFFCURVE",
"819 -6 OFFCURVE",
"886 42 CURVE",
"879 65 OFFCURVE",
"875 89 OFFCURVE",
"875 122 CURVE SMOOTH",
"875 409 OFFCURVE",
"1132 754 OFFCURVE",
"1123 932 CURVE SMOOTH",
"1119 1010 OFFCURVE",
"1068 1029 OFFCURVE",
"993 1029 CURVE SMOOTH",
"902 1029 OFFCURVE",
"793 1001 OFFCURVE",
"697 944 CURVE",
"721 900 OFFCURVE",
"726 855 OFFCURVE",
"726 817 CURVE SMOOTH",
"726 542 OFFCURVE",
"525 328 OFFCURVE",
"522 94 CURVE SMOOTH",
"521 3 OFFCURVE",
"584 -46 OFFCURVE",
"670 -46 CURVE SMOOTH"
);
},
{
closed = 1;
nodes = (
"313 385 LINE",
"724 385 LINE",
"749 590 LINE",
"338 590 LINE"
);
}
);
width = 993;
},
{
associatedMasterId = "BE599D47-15C2-4DC8-BE97-05FFE6CA3179";
layerId = "D1255F81-47FD-4292-A4D5-2E2F74A5A84D";
name = "Regular Italic Mar 24 16, 01:10";
paths = (
{
closed = 1;
nodes = (
"203 -78 OFFCURVE",
"287 -38 OFFCURVE",
"344 10 CURVE",
"337 33 OFFCURVE",
"333 57 OFFCURVE",
"333 90 CURVE SMOOTH",
"333 366 OFFCURVE",
"590 699 OFFCURVE",
"581 870 CURVE SMOOTH",
"577 948 OFFCURVE",
"526 967 OFFCURVE",
"451 967 CURVE SMOOTH",
"360 967 OFFCURVE",
"258 939 OFFCURVE",
"165 882 CURVE",
"189 838 OFFCURVE",
"194 793 OFFCURVE",
"194 755 CURVE SMOOTH",
"194 482 OFFCURVE",
"-8 286 OFFCURVE",
"-10 62 CURVE SMOOTH",
"-11 -29 OFFCURVE",
"48 -78 OFFCURVE",
"128 -78 CURVE SMOOTH"
);
},
{
closed = 1;
nodes = (
"753 -78 OFFCURVE",
"837 -38 OFFCURVE",
"894 10 CURVE",
"887 33 OFFCURVE",
"883 57 OFFCURVE",
"883 90 CURVE SMOOTH",
"883 366 OFFCURVE",
"1140 699 OFFCURVE",
"1131 870 CURVE SMOOTH",
"1127 948 OFFCURVE",
"1076 967 OFFCURVE",
"1001 967 CURVE SMOOTH",
"910 967 OFFCURVE",
"808 939 OFFCURVE",
"715 882 CURVE",
"739 838 OFFCURVE",
"744 793 OFFCURVE",
"744 755 CURVE SMOOTH",
"744 482 OFFCURVE",
"542 286 OFFCURVE",
"540 62 CURVE SMOOTH",
"539 -29 OFFCURVE",
"598 -78 OFFCURVE",
"678 -78 CURVE SMOOTH"
);
},
{
closed = 1;
nodes = (
"281 370 LINE",
"779 370 LINE",
"807 504 LINE",
"308 504 LINE"
);
}
);
width = 990;
}
);
unicode = 0048;
},
{
glyphname = I;
lastChange = "2016-04-03 01:55:00 +0000";
layers = (
{
layerId = "BE599D47-15C2-4DC8-BE97-05FFE6CA3179";
paths = (
{
closed = 1;
nodes = (
"210 -46 OFFCURVE",
"284 -6 OFFCURVE",
"351 42 CURVE",
"344 65 OFFCURVE",
"340 89 OFFCURVE",
"340 122 CURVE SMOOTH",
"340 409 OFFCURVE",
"597 754 OFFCURVE",
"588 932 CURVE SMOOTH",
"584 1010 OFFCURVE",
"533 1029 OFFCURVE",
"458 1029 CURVE SMOOTH",
"367 1029 OFFCURVE",
"258 1001 OFFCURVE",
"162 944 CURVE",
"186 900 OFFCURVE",
"191 855 OFFCURVE",
"191 817 CURVE SMOOTH",
"191 532 OFFCURVE",
"-11 328 OFFCURVE",
"-13 94 CURVE SMOOTH",
"-14 3 OFFCURVE",
"49 -46 OFFCURVE",
"135 -46 CURVE SMOOTH"
);
}
);
width = 458;
},
{
associatedMasterId = "BE599D47-15C2-4DC8-BE97-05FFE6CA3179";
layerId = "5FAE9B01-1040-49BE-AB96-8A465C40B196";
name = "Regular Italic Mar 24 16, 01:01";
paths = (
{
closed = 1;
nodes = (
"203 -78 OFFCURVE",
"287 -38 OFFCURVE",
"344 10 CURVE",
"337 33 OFFCURVE",
"333 57 OFFCURVE",
"333 90 CURVE SMOOTH",
"333 366 OFFCURVE",
"590 699 OFFCURVE",
"581 870 CURVE SMOOTH",
"577 948 OFFCURVE",
"526 967 OFFCURVE",
"451 967 CURVE SMOOTH",
"360 967 OFFCURVE",
"258 939 OFFCURVE",
"165 882 CURVE",
"189 838 OFFCURVE",
"194 793 OFFCURVE",
"194 755 CURVE SMOOTH",
"194 482 OFFCURVE",
"-8 286 OFFCURVE",
"-10 62 CURVE SMOOTH",
"-11 -29 OFFCURVE",
"48 -78 OFFCURVE",
"128 -78 CURVE SMOOTH"
);
}
);
width = 440;
}
);
unicode = 0049;
},
{
glyphname = J;
lastChange = "2016-04-03 01:55:00 +0000";
layers = (
{
background = {
paths = (
{
closed = 1;
nodes = (
"65 -320 OFFCURVE",
"211 -247 OFFCURVE",
"341 10 CURVE SMOOTH",
"447 219 OFFCURVE",
"565 601 OFFCURVE",
"565 807 CURVE SMOOTH",
"565 948 OFFCURVE",
"510 967 OFFCURVE",
"440 967 CURVE SMOOTH",
"356 967 OFFCURVE",
"262 939 OFFCURVE",
"179 882 CURVE",
"203 838 OFFCURVE",
"208 793 OFFCURVE",
"208 755 CURVE SMOOTH",
"208 616 OFFCURVE",
"136 183 OFFCURVE",
"3 18 CURVE SMOOTH",
"-51 -49 OFFCURVE",
"-117 -74 OFFCURVE",
"-187 -74 CURVE SMOOTH",
"-207 -74 OFFCURVE",
"-228 -72 OFFCURVE",
"-249 -68 CURVE",
"-255 -88 OFFCURVE",
"-261 -111 OFFCURVE",
"-261 -138 CURVE SMOOTH",
"-261 -229 OFFCURVE",
"-193 -320 OFFCURVE",
"-57 -320 CURVE SMOOTH"
);
}
);
};
layerId = "BE599D47-15C2-4DC8-BE97-05FFE6CA3179";
paths = (
{
closed = 1;
nodes = (
"179 -278 OFFCURVE",
"292 -98 OFFCURVE",
"376 126 CURVE SMOOTH",
"514 494 OFFCURVE",
"619 782 OFFCURVE",
"619 911 CURVE SMOOTH",
"619 1007 OFFCURVE",
"566 1027 OFFCURVE",
"400 1027 CURVE SMOOTH",
"284 1027 OFFCURVE",
"179 1020 OFFCURVE",
"126 810 CURVE",
"199 810 OFFCURVE",
"252 797 OFFCURVE",
"252 754 CURVE SMOOTH",
"252 691 OFFCURVE",
"168 388 OFFCURVE",
"84 204 CURVE SMOOTH",
"-18 -19 OFFCURVE",
"-108 -51 OFFCURVE",
"-266 -73 CURVE",
"-266 -219 OFFCURVE",
"-137 -278 OFFCURVE",
"-22 -278 CURVE SMOOTH"
);
}
);
width = 508;
},
{
associatedMasterId = "BE599D47-15C2-4DC8-BE97-05FFE6CA3179";
background = {
paths = (
{
closed = 1;
nodes = (
"218 -320 OFFCURVE",
"363 -247 OFFCURVE",
"494 10 CURVE SMOOTH",
"600 219 OFFCURVE",
"718 601 OFFCURVE",
"718 807 CURVE SMOOTH",
"718 948 OFFCURVE",
"663 967 OFFCURVE",
"593 967 CURVE SMOOTH",
"509 967 OFFCURVE",
"415 939 OFFCURVE",
"332 882 CURVE",
"356 838 OFFCURVE",
"361 793 OFFCURVE",
"361 755 CURVE SMOOTH",
"361 616 OFFCURVE",
"290 183 OFFCURVE",
"156 18 CURVE SMOOTH",
"102 -49 OFFCURVE",
"36 -74 OFFCURVE",
"-34 -74 CURVE SMOOTH",
"-54 -74 OFFCURVE",
"-75 -72 OFFCURVE",
"-96 -68 CURVE",
"-102 -88 OFFCURVE",
"-108 -111 OFFCURVE",
"-108 -138 CURVE SMOOTH",
"-108 -229 OFFCURVE",
"-40 -320 OFFCURVE",
"96 -320 CURVE SMOOTH"
);
}
);
};
layerId = "ACAB985A-2741-46CC-8BA9-6F7C0E7DC47B";
name = "Regular Italic Apr 1 16, 04:05";
paths = (
{
closed = 1;
nodes = (
"218 -320 OFFCURVE",
"363 -247 OFFCURVE",
"494 10 CURVE SMOOTH",
"600 219 OFFCURVE",
"718 601 OFFCURVE",
"718 807 CURVE SMOOTH",
"718 948 OFFCURVE",
"663 967 OFFCURVE",
"593 967 CURVE SMOOTH",
"509 967 OFFCURVE",
"415 939 OFFCURVE",
"332 882 CURVE",
"356 838 OFFCURVE",
"361 793 OFFCURVE",
"361 755 CURVE SMOOTH",
"361 616 OFFCURVE",
"290 183 OFFCURVE",
"156 18 CURVE SMOOTH",
"102 -49 OFFCURVE",
"36 -74 OFFCURVE",
"-34 -74 CURVE SMOOTH",
"-54 -74 OFFCURVE",
"-75 -72 OFFCURVE",
"-96 -68 CURVE",
"-102 -88 OFFCURVE",
"-108 -111 OFFCURVE",
"-108 -138 CURVE SMOOTH",
"-108 -229 OFFCURVE",
"-40 -320 OFFCURVE",
"96 -320 CURVE SMOOTH"
);
}
);
width = 652;
}
);
unicode = 004A;
},
{
glyphname = K;
lastChange = "2016-04-02 06:13:40 +0000";
layers = (
{
background = {
paths = (
{
closed = 1;
nodes = (
"210 -108 OFFCURVE",
"284 -68 OFFCURVE",
"351 -20 CURVE",
"344 3 OFFCURVE",
"340 27 OFFCURVE",
"340 60 CURVE SMOOTH",
"340 347 OFFCURVE",
"597 692 OFFCURVE",
"588 870 CURVE SMOOTH",
"584 948 OFFCURVE",
"533 967 OFFCURVE",
"458 967 CURVE SMOOTH",
"367 967 OFFCURVE",
"258 939 OFFCURVE",
"162 882 CURVE",
"186 838 OFFCURVE",
"191 793 OFFCURVE",
"191 755 CURVE SMOOTH",
"191 470 OFFCURVE",
"-11 266 OFFCURVE",
"-13 32 CURVE SMOOTH",
"-14 -59 OFFCURVE",
"49 -108 OFFCURVE",
"135 -108 CURVE SMOOTH"
);
},
{
closed = 1;
nodes = (
"389 376 OFFCURVE",
"409 376 OFFCURVE",
"428 376 CURVE SMOOTH",
"677 376 OFFCURVE",
"1014 524 OFFCURVE",
"1014 806 CURVE SMOOTH",
"1014 914 OFFCURVE",
"911 968 OFFCURVE",
"788 967 CURVE",
"702 734 OFFCURVE",
"575 565 OFFCURVE",
"402 513 CURVE",
"370 377 LINE"
);
},
{
closed = 1;
nodes = (
"437 100 OFFCURVE",
"579 -78 OFFCURVE",
"721 -78 CURVE SMOOTH",
"895 -78 OFFCURVE",
"960 69 OFFCURVE",
"941 194 CURVE",
"817 219 OFFCURVE",
"724 257 OFFCURVE",
"645 428 CURVE",
"350 386 LINE"
);
}
);
};
layerId = "BE599D47-15C2-4DC8-BE97-05FFE6CA3179";
paths = (
{
closed = 1;
nodes = (
"210 -46 OFFCURVE",
"284 -6 OFFCURVE",
"351 42 CURVE",
"344 65 OFFCURVE",
"340 89 OFFCURVE",
"340 122 CURVE SMOOTH",
"340 409 OFFCURVE",
"597 754 OFFCURVE",
"588 932 CURVE SMOOTH",
"584 1010 OFFCURVE",
"533 1029 OFFCURVE",
"458 1029 CURVE SMOOTH",
"367 1029 OFFCURVE",
"258 1001 OFFCURVE",
"162 944 CURVE",
"186 900 OFFCURVE",
"191 855 OFFCURVE",
"191 817 CURVE SMOOTH",
"191 532 OFFCURVE",
"-11 328 OFFCURVE",
"-13 94 CURVE SMOOTH",
"-14 3 OFFCURVE",
"49 -46 OFFCURVE",
"135 -46 CURVE SMOOTH"
);
},
{
closed = 1;
nodes = (
"389 438 OFFCURVE",
"409 438 OFFCURVE",
"428 438 CURVE SMOOTH",
"677 438 OFFCURVE",
"1014 586 OFFCURVE",
"1014 868 CURVE SMOOTH",
"1014 976 OFFCURVE",
"911 1030 OFFCURVE",
"788 1029 CURVE",
"702 796 OFFCURVE",
"575 627 OFFCURVE",
"402 575 CURVE",
"370 439 LINE"
);
},
{
closed = 1;
nodes = (
"437 162 OFFCURVE",
"579 -16 OFFCURVE",
"721 -16 CURVE SMOOTH",
"895 -16 OFFCURVE",
"960 193 OFFCURVE",
"941 371 CURVE",
"902 345 OFFCURVE",
"862 332 OFFCURVE",
"822 332 CURVE SMOOTH",
"743 332 OFFCURVE",
"681 379 OFFCURVE",
"645 490 CURVE",
"350 448 LINE"
);
}
);
width = 960;
},
{
associatedMasterId = "BE599D47-15C2-4DC8-BE97-05FFE6CA3179";
layerId = "F6CBF3D6-7712-4EE2-AC38-762D28A0D85E";
name = "Regular Italic Mar 28 16, 04:43";
paths = (
{
closed = 1;
nodes = (
"213 -108 OFFCURVE",
"287 -68 OFFCURVE",
"354 -20 CURVE",
"347 3 OFFCURVE",
"343 27 OFFCURVE",
"343 60 CURVE SMOOTH",
"343 347 OFFCURVE",
"600 692 OFFCURVE",
"591 870 CURVE SMOOTH",
"587 948 OFFCURVE",
"536 967 OFFCURVE",
"461 967 CURVE SMOOTH",
"370 967 OFFCURVE",
"261 939 OFFCURVE",
"165 882 CURVE",
"189 838 OFFCURVE",
"194 793 OFFCURVE",
"194 755 CURVE SMOOTH",
"194 470 OFFCURVE",
"-8 266 OFFCURVE",
"-10 32 CURVE SMOOTH",
"-11 -59 OFFCURVE",
"52 -108 OFFCURVE",
"138 -108 CURVE SMOOTH"
);
},
{
closed = 1;
nodes = (
"392 376 OFFCURVE",
"412 376 OFFCURVE",
"431 376 CURVE SMOOTH",
"680 376 OFFCURVE",
"1017 479 OFFCURVE",
"1017 676 CURVE SMOOTH",
"1017 784 OFFCURVE",
"914 837 OFFCURVE",
"791 836 CURVE",
"705 670 OFFCURVE",
"578 550 OFFCURVE",
"405 513 CURVE",
"373 377 LINE"
);
},
{
closed = 1;
nodes = (
"440 100 OFFCURVE",
"582 -78 OFFCURVE",
"724 -78 CURVE SMOOTH",
"898 -78 OFFCURVE",
"963 131 OFFCURVE",
"944 309 CURVE",
"905 283 OFFCURVE",
"865 270 OFFCURVE",
"825 270 CURVE SMOOTH",
"746 270 OFFCURVE",
"684 317 OFFCURVE",
"648 428 CURVE",
"353 386 LINE"
);
}
);
width = 1000;
},
{
associatedMasterId = "BE599D47-15C2-4DC8-BE97-05FFE6CA3179";
background = {
paths = (
{
closed = 1;
nodes = (
"213 -108 OFFCURVE",
"287 -68 OFFCURVE",
"354 -20 CURVE",
"347 3 OFFCURVE",
"343 27 OFFCURVE",
"343 60 CURVE SMOOTH",
"343 347 OFFCURVE",
"600 692 OFFCURVE",
"591 870 CURVE SMOOTH",
"587 948 OFFCURVE",
"536 967 OFFCURVE",
"461 967 CURVE SMOOTH",
"370 967 OFFCURVE",
"261 939 OFFCURVE",
"165 882 CURVE",
"189 838 OFFCURVE",
"194 793 OFFCURVE",
"194 755 CURVE SMOOTH",
"194 470 OFFCURVE",
"-8 266 OFFCURVE",
"-10 32 CURVE SMOOTH",
"-11 -59 OFFCURVE",
"52 -108 OFFCURVE",
"138 -108 CURVE SMOOTH"
);
},
{
closed = 1;
nodes = (
"392 376 OFFCURVE",
"412 376 OFFCURVE",
"431 376 CURVE SMOOTH",
"680 376 OFFCURVE",
"1017 479 OFFCURVE",
"1017 676 CURVE SMOOTH",
"1017 784 OFFCURVE",
"914 837 OFFCURVE",
"791 836 CURVE",
"705 670 OFFCURVE",
"578 550 OFFCURVE",
"405 513 CURVE",
"373 377 LINE"
);
},
{
closed = 1;
nodes = (
"440 100 OFFCURVE",
"582 -78 OFFCURVE",
"724 -78 CURVE SMOOTH",
"898 -78 OFFCURVE",
"963 131 OFFCURVE",
"944 309 CURVE",
"905 283 OFFCURVE",
"865 270 OFFCURVE",
"825 270 CURVE SMOOTH",
"746 270 OFFCURVE",
"684 317 OFFCURVE",
"648 428 CURVE",
"353 386 LINE"
);
}
);
};
layerId = "A98F2DEB-9BD7-4BE4-83A2-C726E3E192FF";
name = "Regular Italic Mar 28 16, 04:44";
paths = (
{
closed = 1;
nodes = (
"213 -108 OFFCURVE",
"287 -68 OFFCURVE",
"354 -20 CURVE",
"347 3 OFFCURVE",
"343 27 OFFCURVE",
"343 60 CURVE SMOOTH",
"343 347 OFFCURVE",
"600 692 OFFCURVE",
"591 870 CURVE SMOOTH",
"587 948 OFFCURVE",
"536 967 OFFCURVE",
"461 967 CURVE SMOOTH",
"370 967 OFFCURVE",
"261 939 OFFCURVE",
"165 882 CURVE",
"189 838 OFFCURVE",
"194 793 OFFCURVE",
"194 755 CURVE SMOOTH",
"194 470 OFFCURVE",
"-8 266 OFFCURVE",
"-10 32 CURVE SMOOTH",
"-11 -59 OFFCURVE",
"52 -108 OFFCURVE",
"138 -108 CURVE SMOOTH"
);
},
{
closed = 1;
nodes = (
"392 376 OFFCURVE",
"412 376 OFFCURVE",
"431 376 CURVE SMOOTH",
"680 376 OFFCURVE",
"1017 524 OFFCURVE",
"1017 806 CURVE SMOOTH",
"1017 914 OFFCURVE",
"914 968 OFFCURVE",
"791 967 CURVE",
"705 734 OFFCURVE",
"578 565 OFFCURVE",
"405 513 CURVE",
"373 377 LINE"
);
},
{
closed = 1;
nodes = (
"440 100 OFFCURVE",
"582 -78 OFFCURVE",
"724 -78 CURVE SMOOTH",
"898 -78 OFFCURVE",
"963 131 OFFCURVE",
"944 309 CURVE",
"905 283 OFFCURVE",
"865 270 OFFCURVE",
"825 270 CURVE SMOOTH",
"746 270 OFFCURVE",
"684 317 OFFCURVE",
"648 428 CURVE",
"353 386 LINE"
);
}
);
width = 1000;
},
{
associatedMasterId = "BE599D47-15C2-4DC8-BE97-05FFE6CA3179";
background = {
paths = (
{
closed = 1;
nodes = (
"213 -108 OFFCURVE",
"287 -68 OFFCURVE",
"354 -20 CURVE",
"347 3 OFFCURVE",
"343 27 OFFCURVE",
"343 60 CURVE SMOOTH",
"343 347 OFFCURVE",
"600 692 OFFCURVE",
"591 870 CURVE SMOOTH",
"587 948 OFFCURVE",
"536 967 OFFCURVE",
"461 967 CURVE SMOOTH",
"370 967 OFFCURVE",
"261 939 OFFCURVE",
"165 882 CURVE",
"189 838 OFFCURVE",
"194 793 OFFCURVE",
"194 755 CURVE SMOOTH",
"194 470 OFFCURVE",
"-8 266 OFFCURVE",
"-10 32 CURVE SMOOTH",
"-11 -59 OFFCURVE",
"52 -108 OFFCURVE",
"138 -108 CURVE SMOOTH"
);
},
{
closed = 1;
nodes = (
"392 376 OFFCURVE",
"412 376 OFFCURVE",
"431 376 CURVE SMOOTH",
"680 376 OFFCURVE",
"1017 524 OFFCURVE",
"1017 806 CURVE SMOOTH",
"1017 914 OFFCURVE",
"914 968 OFFCURVE",
"791 967 CURVE",
"705 734 OFFCURVE",
"578 565 OFFCURVE",
"405 513 CURVE",
"373 377 LINE"
);
},
{
closed = 1;
nodes = (
"440 100 OFFCURVE",
"582 -78 OFFCURVE",
"724 -78 CURVE SMOOTH",
"898 -78 OFFCURVE",
"963 131 OFFCURVE",
"944 309 CURVE",
"905 283 OFFCURVE",
"865 270 OFFCURVE",
"825 270 CURVE SMOOTH",
"746 270 OFFCURVE",
"684 317 OFFCURVE",
"648 428 CURVE",
"353 386 LINE"
);
}
);
};
layerId = "3CD0A2FB-EF22-4968-A6B2-2293E0AD5B54";
name = "Regular Italic Mar 28 16, 04:45";
paths = (
{
closed = 1;
nodes = (
"213 -108 OFFCURVE",
"287 -68 OFFCURVE",
"354 -20 CURVE",
"347 3 OFFCURVE",
"343 27 OFFCURVE",
"343 60 CURVE SMOOTH",
"343 347 OFFCURVE",
"600 692 OFFCURVE",
"591 870 CURVE SMOOTH",
"587 948 OFFCURVE",
"536 967 OFFCURVE",
"461 967 CURVE SMOOTH",
"370 967 OFFCURVE",
"261 939 OFFCURVE",
"165 882 CURVE",
"189 838 OFFCURVE",
"194 793 OFFCURVE",
"194 755 CURVE SMOOTH",
"194 470 OFFCURVE",
"-8 266 OFFCURVE",
"-10 32 CURVE SMOOTH",
"-11 -59 OFFCURVE",
"52 -108 OFFCURVE",
"138 -108 CURVE SMOOTH"
);
},
{
closed = 1;
nodes = (
"392 376 OFFCURVE",
"412 376 OFFCURVE",
"431 376 CURVE SMOOTH",
"680 376 OFFCURVE",
"1017 524 OFFCURVE",
"1017 806 CURVE SMOOTH",
"1017 914 OFFCURVE",
"914 968 OFFCURVE",
"791 967 CURVE",
"705 734 OFFCURVE",
"578 565 OFFCURVE",
"405 513 CURVE",
"373 377 LINE"
);
},
{
closed = 1;
nodes = (
"440 100 OFFCURVE",
"582 -78 OFFCURVE",
"724 -78 CURVE SMOOTH",
"898 -78 OFFCURVE",
"963 69 OFFCURVE",
"944 194 CURVE",
"820 219 OFFCURVE",
"727 257 OFFCURVE",
"648 428 CURVE",
"353 386 LINE"
);
}
);
width = 1000;
}
);
unicode = 004B;
},
{
glyphname = L;
lastChange = "2016-04-03 01:55:00 +0000";
layers = (
{
background = {
paths = (
{
closed = 1;
nodes = (
"2 -39 OFFCURVE",
"156 -84 OFFCURVE",
"419 -84 CURVE SMOOTH",
"592 -84 OFFCURVE",
"711 -63 OFFCURVE",
"711 140 CURVE SMOOTH",
"711 181 OFFCURVE",
"708 228 OFFCURVE",
"689 257 CURVE",
"648 219 OFFCURVE",
"568 182 OFFCURVE",
"483 182 CURVE SMOOTH",
"435 182 OFFCURVE",
"396 188 OFFCURVE",
"371 198 CURVE SMOOTH",
"348 207 OFFCURVE",
"344 223 OFFCURVE",
"348 241 CURVE SMOOTH",
"400 473 OFFCURVE",
"576 712 OFFCURVE",
"576 861 CURVE SMOOTH",
"576 947 OFFCURVE",
"524 967 OFFCURVE",
"446 967 CURVE SMOOTH",
"355 967 OFFCURVE",
"253 939 OFFCURVE",
"160 882 CURVE",
"184 838 OFFCURVE",
"189 793 OFFCURVE",
"189 755 CURVE SMOOTH",
"189 482 OFFCURVE",
"6 286 OFFCURVE",
"4 163 CURVE SMOOTH"
);
}
);
};
layerId = "BE599D47-15C2-4DC8-BE97-05FFE6CA3179";
paths = (
{
closed = 1;
nodes = (
"2 23 OFFCURVE",
"141 -22 OFFCURVE",
"379 -22 CURVE SMOOTH",
"582 -22 OFFCURVE",
"678 -1 OFFCURVE",
"678 202 CURVE SMOOTH",
"678 243 OFFCURVE",
"672 265 OFFCURVE",
"649 294 CURVE",
"610 263 OFFCURVE",
"554 246 OFFCURVE",
"490 246 CURVE SMOOTH",
"442 246 OFFCURVE",
"400 251 OFFCURVE",
"375 261 CURVE SMOOTH",
"352 270 OFFCURVE",
"348 286 OFFCURVE",
"352 304 CURVE SMOOTH",
"404 536 OFFCURVE",
"576 774 OFFCURVE",
"576 923 CURVE SMOOTH",
"576 1009 OFFCURVE",
"524 1029 OFFCURVE",
"446 1029 CURVE SMOOTH",
"355 1029 OFFCURVE",
"253 1001 OFFCURVE",
"160 944 CURVE",
"184 900 OFFCURVE",
"189 855 OFFCURVE",
"189 817 CURVE SMOOTH",
"189 544 OFFCURVE",
"6 348 OFFCURVE",
"4 175 CURVE SMOOTH"
);
}
);
width = 715;
},
{
associatedMasterId = "BE599D47-15C2-4DC8-BE97-05FFE6CA3179";
layerId = "0CBCE923-702A-441B-A9D4-99FFB1224413";
name = "Regular Italic Mar 24 16, 03:09";
paths = (
{
closed = 1;
nodes = (
"7 -39 OFFCURVE",
"161 -84 OFFCURVE",
"424 -84 CURVE SMOOTH",
"615 -84 OFFCURVE",
"746 -63 OFFCURVE",
"746 144 CURVE SMOOTH",
"746 178 OFFCURVE",
"739 212 OFFCURVE",
"720 241 CURVE",
"679 203 OFFCURVE",
"581 162 OFFCURVE",
"484 162 CURVE SMOOTH",
"436 162 OFFCURVE",
"397 168 OFFCURVE",
"372 178 CURVE SMOOTH",
"349 186 OFFCURVE",
"345 203 OFFCURVE",
"349 221 CURVE SMOOTH",
"402 460 OFFCURVE",
"581 707 OFFCURVE",
"581 861 CURVE SMOOTH",
"581 947 OFFCURVE",
"529 967 OFFCURVE",
"451 967 CURVE SMOOTH",
"360 967 OFFCURVE",
"258 939 OFFCURVE",
"165 882 CURVE",
"189 838 OFFCURVE",
"194 793 OFFCURVE",
"194 755 CURVE SMOOTH",
"194 482 OFFCURVE",
"11 286 OFFCURVE",
"9 163 CURVE SMOOTH"
);
}
);
width = 800;
},
{
associatedMasterId = "BE599D47-15C2-4DC8-BE97-05FFE6CA3179";
background = {
paths = (
{
closed = 1;
nodes = (
"7 -39 OFFCURVE",
"161 -84 OFFCURVE",
"424 -84 CURVE SMOOTH",
"615 -84 OFFCURVE",
"746 -63 OFFCURVE",
"746 144 CURVE SMOOTH",
"746 178 OFFCURVE",
"739 212 OFFCURVE",
"720 241 CURVE",
"679 203 OFFCURVE",
"581 162 OFFCURVE",
"484 162 CURVE SMOOTH",
"436 162 OFFCURVE",
"397 168 OFFCURVE",
"372 178 CURVE SMOOTH",
"349 186 OFFCURVE",
"345 203 OFFCURVE",
"349 221 CURVE SMOOTH",
"402 460 OFFCURVE",
"581 707 OFFCURVE",
"581 861 CURVE SMOOTH",
"581 947 OFFCURVE",
"529 967 OFFCURVE",
"451 967 CURVE SMOOTH",
"360 967 OFFCURVE",
"258 939 OFFCURVE",
"165 882 CURVE",
"189 838 OFFCURVE",
"194 793 OFFCURVE",
"194 755 CURVE SMOOTH",
"194 482 OFFCURVE",
"11 286 OFFCURVE",
"9 163 CURVE SMOOTH"
);
}
);
};
layerId = "A2550379-674D-4E9D-8256-665B917E3168";
name = "Regular Italic Mar 25 16, 02:30";
paths = (
{
closed = 1;
nodes = (
"7 -39 OFFCURVE",
"161 -84 OFFCURVE",
"424 -84 CURVE SMOOTH",
"597 -84 OFFCURVE",
"716 -63 OFFCURVE",
"716 140 CURVE SMOOTH",
"716 181 OFFCURVE",
"713 228 OFFCURVE",
"694 257 CURVE",
"653 219 OFFCURVE",
"573 182 OFFCURVE",
"488 182 CURVE SMOOTH",
"440 182 OFFCURVE",
"401 188 OFFCURVE",
"376 198 CURVE SMOOTH",
"353 207 OFFCURVE",
"349 223 OFFCURVE",
"353 241 CURVE SMOOTH",
"405 473 OFFCURVE",
"581 712 OFFCURVE",
"581 861 CURVE SMOOTH",
"581 947 OFFCURVE",
"529 967 OFFCURVE",
"451 967 CURVE SMOOTH",
"360 967 OFFCURVE",
"258 939 OFFCURVE",
"165 882 CURVE",
"189 838 OFFCURVE",
"194 793 OFFCURVE",
"194 755 CURVE SMOOTH",
"194 482 OFFCURVE",
"11 286 OFFCURVE",
"9 163 CURVE SMOOTH"
);
}
);
width = 773;
}
);
unicode = 004C;
},
{
glyphname = M;
lastChange = "2016-04-03 01:55:00 +0000";
layers = (
{
background = {
paths = (
{
closed = 1;
nodes = (
"-41 -48 OFFCURVE",
"-2 -96 OFFCURVE",
"83 -97 CURVE SMOOTH",
"161 -98 OFFCURVE",
"257 -60 OFFCURVE",
"306 -13 CURVE",
"300 10 OFFCURVE",
"297 35 OFFCURVE",
"299 64 CURVE SMOOTH",
"306 202 OFFCURVE",
"416 533 OFFCURVE",
"471 662 CURVE",
"378 644 LINE",
"429 109 LINE SMOOTH",
"438 13 OFFCURVE",
"487 -3 OFFCURVE",
"559 -4 CURVE SMOOTH",
"632 -6 OFFCURVE",
"722 8 OFFCURVE",
"798 44 CURVE",
"797 48 OFFCURVE",
"797 52 OFFCURVE",
"798 59 CURVE SMOOTH",
"800 102 OFFCURVE",
"837 231 OFFCURVE",
"1176 678 CURVE",
"1136 679 LINE",
"1089 569 OFFCURVE",
"934 235 OFFCURVE",
"924 50 CURVE SMOOTH",
"918 -74 OFFCURVE",
"978 -113 OFFCURVE",
"1060 -114 CURVE SMOOTH",
"1140 -115 OFFCURVE",
"1210 -80 OFFCURVE",
"1284 -30 CURVE",
"1279 -7 OFFCURVE",
"1276 15 OFFCURVE",
"1278 58 CURVE SMOOTH",
"1292 320 OFFCURVE",
"1459 685 OFFCURVE",
"1467 836 CURVE SMOOTH",
"1472 934 OFFCURVE",
"1411 955 OFFCURVE",
"1260 958 CURVE SMOOTH",
"1135 960 OFFCURVE",
"1035 947 OFFCURVE",
"946 906 CURVE",
"954 894 OFFCURVE",
"957 874 OFFCURVE",
"957 860 CURVE SMOOTH",
"952 767 OFFCURVE",
"781 477 OFFCURVE",
"660 313 CURVE",
"732 277 LINE",
"689 751 LINE SMOOTH",
"672 932 OFFCURVE",
"646 968 OFFCURVE",
"512 971 CURVE SMOOTH",
"392 973 OFFCURVE",
"300 945 OFFCURVE",
"188 891 CURVE",
"209 847 OFFCURVE",
"212 803 OFFCURVE",
"210 760 CURVE SMOOTH",
"195 484 OFFCURVE",
"-24 266 OFFCURVE",
"-35 49 CURVE SMOOTH"
);
}
);
};
layerId = "BE599D47-15C2-4DC8-BE97-05FFE6CA3179";
paths = (
{
closed = 1;
nodes = (
"-41 3 OFFCURVE",
"-2 -45 OFFCURVE",
"83 -46 CURVE SMOOTH",
"161 -47 OFFCURVE",
"257 -9 OFFCURVE",
"306 38 CURVE",
"300 61 OFFCURVE",
"297 86 OFFCURVE",
"299 115 CURVE SMOOTH",
"306 256 OFFCURVE",
"416 593 OFFCURVE",
"471 724 CURVE",
"378 706 LINE",
"429 171 LINE SMOOTH",
"438 75 OFFCURVE",
"487 59 OFFCURVE",
"559 58 CURVE SMOOTH",
"632 56 OFFCURVE",
"722 70 OFFCURVE",
"798 106 CURVE",
"797 110 OFFCURVE",
"797 114 OFFCURVE",
"798 121 CURVE SMOOTH",
"800 164 OFFCURVE",
"837 293 OFFCURVE",
"1176 740 CURVE",
"1136 741 LINE",
"1089 632 OFFCURVE",
"934 301 OFFCURVE",
"924 118 CURVE SMOOTH",
"918 -6 OFFCURVE",
"978 -45 OFFCURVE",
"1060 -46 CURVE SMOOTH",
"1140 -47 OFFCURVE",
"1210 -12 OFFCURVE",
"1284 38 CURVE",
"1279 61 OFFCURVE",
"1276 83 OFFCURVE",
"1278 126 CURVE SMOOTH",
"1292 389 OFFCURVE",
"1459 757 OFFCURVE",
"1467 907 CURVE SMOOTH",
"1472 1005 OFFCURVE",
"1411 1026 OFFCURVE",
"1260 1029 CURVE SMOOTH",
"1135 1031 OFFCURVE",
"1035 1018 OFFCURVE",
"946 977 CURVE",
"954 965 OFFCURVE",
"957 945 OFFCURVE",
"957 931 CURVE SMOOTH",
"952 838 OFFCURVE",
"781 542 OFFCURVE",
"660 375 CURVE",
"732 339 LINE",
"689 809 LINE SMOOTH",
"672 990 OFFCURVE",
"646 1026 OFFCURVE",
"512 1029 CURVE SMOOTH",
"392 1031 OFFCURVE",
"300 1003 OFFCURVE",
"188 949 CURVE",
"209 905 OFFCURVE",
"212 861 OFFCURVE",
"210 818 CURVE SMOOTH",
"195 539 OFFCURVE",
"-24 319 OFFCURVE",
"-35 100 CURVE SMOOTH"
);
}
);
width = 1372;
},
{
associatedMasterId = "BE599D47-15C2-4DC8-BE97-05FFE6CA3179";
background = {
paths = (
{
closed = 1;
nodes = (
"251 -108 OFFCURVE",
"325 -68 OFFCURVE",
"392 -20 CURVE",
"385 3 OFFCURVE",
"381 27 OFFCURVE",
"381 60 CURVE SMOOTH",
"381 337 OFFCURVE",
"638 692 OFFCURVE",
"629 870 CURVE SMOOTH",
"625 948 OFFCURVE",
"574 967 OFFCURVE",
"499 967 CURVE SMOOTH",
"408 967 OFFCURVE",
"299 939 OFFCURVE",
"203 882 CURVE",
"227 838 OFFCURVE",
"232 793 OFFCURVE",
"232 755 CURVE SMOOTH",
"232 470 OFFCURVE",
"31 266 OFFCURVE",
"28 32 CURVE SMOOTH",
"27 -59 OFFCURVE",
"90 -108 OFFCURVE",
"176 -108 CURVE SMOOTH"
);
},
{
closed = 1;
nodes = (
"786 -108 OFFCURVE",
"860 -68 OFFCURVE",
"927 -20 CURVE",
"920 3 OFFCURVE",
"916 27 OFFCURVE",
"916 60 CURVE SMOOTH",
"916 347 OFFCURVE",
"1173 692 OFFCURVE",
"1164 870 CURVE SMOOTH",
"1160 948 OFFCURVE",
"1109 967 OFFCURVE",
"1034 967 CURVE SMOOTH",
"943 967 OFFCURVE",
"834 939 OFFCURVE",
"738 882 CURVE",
"762 838 OFFCURVE",
"767 793 OFFCURVE",
"767 755 CURVE SMOOTH",
"767 480 OFFCURVE",
"566 266 OFFCURVE",
"563 32 CURVE SMOOTH",
"562 -59 OFFCURVE",
"625 -108 OFFCURVE",
"711 -108 CURVE SMOOTH"
);
},
{
closed = 1;
nodes = (
"355 350 LINE",
"766 350 LINE",
"791 506 LINE",
"380 506 LINE"
);
}
);
};
layerId = "C7EBF0CD-920A-4D11-9742-411A01A64211";
name = "Regular Italic Mar 28 16, 20:41";
paths = (
{
closed = 1;
nodes = (
"251 -108 OFFCURVE",
"325 -68 OFFCURVE",
"392 -20 CURVE",
"385 3 OFFCURVE",
"381 27 OFFCURVE",
"381 60 CURVE SMOOTH",
"381 337 OFFCURVE",
"638 692 OFFCURVE",
"629 870 CURVE SMOOTH",
"625 948 OFFCURVE",
"574 967 OFFCURVE",
"499 967 CURVE SMOOTH",
"408 967 OFFCURVE",
"299 939 OFFCURVE",
"203 882 CURVE",
"227 838 OFFCURVE",
"232 793 OFFCURVE",
"232 755 CURVE SMOOTH",
"232 470 OFFCURVE",
"31 266 OFFCURVE",
"28 32 CURVE SMOOTH",
"27 -59 OFFCURVE",
"90 -108 OFFCURVE",
"176 -108 CURVE SMOOTH"
);
},
{
closed = 1;
nodes = (
"1386 -108 OFFCURVE",
"1460 -68 OFFCURVE",
"1527 -20 CURVE",
"1520 3 OFFCURVE",
"1516 27 OFFCURVE",
"1516 60 CURVE SMOOTH",
"1516 347 OFFCURVE",
"1773 692 OFFCURVE",
"1764 870 CURVE SMOOTH",
"1760 948 OFFCURVE",
"1709 967 OFFCURVE",
"1634 967 CURVE SMOOTH",
"1543 967 OFFCURVE",
"1434 939 OFFCURVE",
"1338 882 CURVE",
"1362 838 OFFCURVE",
"1367 793 OFFCURVE",
"1367 755 CURVE SMOOTH",
"1367 480 OFFCURVE",
"1166 266 OFFCURVE",
"1163 32 CURVE SMOOTH",
"1162 -59 OFFCURVE",
"1225 -108 OFFCURVE",
"1311 -108 CURVE SMOOTH"
);
},
{
closed = 1;
nodes = (
"1160 938 OFFCURVE",
"1116 778 OFFCURVE",
"1093 719 CURVE SMOOTH",
"1034 567 OFFCURVE",
"931 425 OFFCURVE",
"828 258 CURVE",
"824 258 LINE",
"823 274 OFFCURVE",
"822 289 OFFCURVE",
"822 304 CURVE SMOOTH",
"822 467 OFFCURVE",
"882 596 OFFCURVE",
"882 754 CURVE SMOOTH",
"882 882 OFFCURVE",
"852 952 OFFCURVE",
"742 952 CURVE SMOOTH",
"646 952 OFFCURVE",
"563 909 OFFCURVE",
"498 852 CURVE",
"530 795 OFFCURVE",
"540 728 OFFCURVE",
"540 649 CURVE SMOOTH",
"540 430 OFFCURVE",
"478 227 OFFCURVE",
"478 69 CURVE SMOOTH",
"478 -57 OFFCURVE",
"524 -100 OFFCURVE",
"625 -100 CURVE SMOOTH",
"767 -100 OFFCURVE",
"904 -85 OFFCURVE",
"1007 -46 CURVE",
"967 27 OFFCURVE",
"1131 239 OFFCURVE",
"1220 383 CURVE SMOOTH",
"1320 544 OFFCURVE",
"1424 694 OFFCURVE",
"1424 814 CURVE SMOOTH",
"1424 921 OFFCURVE",
"1349 952 OFFCURVE",
"1158 975 CURVE"
);
}
);
width = 1640;
},
{
associatedMasterId = "BE599D47-15C2-4DC8-BE97-05FFE6CA3179";
background = {
paths = (
{
closed = 1;
nodes = (
"251 -108 OFFCURVE",
"325 -68 OFFCURVE",
"392 -20 CURVE",
"385 3 OFFCURVE",
"381 27 OFFCURVE",
"381 60 CURVE SMOOTH",
"381 337 OFFCURVE",
"638 692 OFFCURVE",
"629 870 CURVE SMOOTH",
"625 948 OFFCURVE",
"574 967 OFFCURVE",
"499 967 CURVE SMOOTH",
"408 967 OFFCURVE",
"299 939 OFFCURVE",
"203 882 CURVE",
"227 838 OFFCURVE",
"232 793 OFFCURVE",
"232 755 CURVE SMOOTH",
"232 470 OFFCURVE",
"31 266 OFFCURVE",
"28 32 CURVE SMOOTH",
"27 -59 OFFCURVE",
"90 -108 OFFCURVE",
"176 -108 CURVE SMOOTH"
);
},
{
closed = 1;
nodes = (
"786 -108 OFFCURVE",
"860 -68 OFFCURVE",
"927 -20 CURVE",
"920 3 OFFCURVE",
"916 27 OFFCURVE",
"916 60 CURVE SMOOTH",
"916 347 OFFCURVE",
"1173 692 OFFCURVE",
"1164 870 CURVE SMOOTH",
"1160 948 OFFCURVE",
"1109 967 OFFCURVE",
"1034 967 CURVE SMOOTH",
"943 967 OFFCURVE",
"834 939 OFFCURVE",
"738 882 CURVE",
"762 838 OFFCURVE",
"767 793 OFFCURVE",
"767 755 CURVE SMOOTH",
"767 480 OFFCURVE",
"566 266 OFFCURVE",
"563 32 CURVE SMOOTH",
"562 -59 OFFCURVE",
"625 -108 OFFCURVE",
"711 -108 CURVE SMOOTH"
);
},
{
closed = 1;
nodes = (
"355 350 LINE",
"766 350 LINE",
"791 506 LINE",
"380 506 LINE"
);
}
);
};
layerId = "A28237D4-9A91-4B54-A39A-A9BB7E4F2330";
name = "Regular Italic Mar 28 16, 20:43";
paths = (
{
closed = 1;
nodes = (
"228 -108 OFFCURVE",
"318 -68 OFFCURVE",
"362 -20 CURVE",
"355 3 OFFCURVE",
"351 27 OFFCURVE",
"351 60 CURVE SMOOTH",
"351 337 OFFCURVE",
"599 692 OFFCURVE",
"599 870 CURVE SMOOTH",
"599 948 OFFCURVE",
"548 967 OFFCURVE",
"479 967 CURVE SMOOTH",
"388 967 OFFCURVE",
"293 939 OFFCURVE",
"203 882 CURVE",
"227 838 OFFCURVE",
"232 793 OFFCURVE",
"232 755 CURVE SMOOTH",
"232 470 OFFCURVE",
"31 266 OFFCURVE",
"28 32 CURVE SMOOTH",
"27 -59 OFFCURVE",
"70 -108 OFFCURVE",
"156 -108 CURVE SMOOTH"
);
},
{
closed = 1;
nodes = (
"1306 -108 OFFCURVE",
"1380 -68 OFFCURVE",
"1447 -20 CURVE",
"1440 3 OFFCURVE",
"1436 27 OFFCURVE",
"1436 60 CURVE SMOOTH",
"1436 347 OFFCURVE",
"1693 692 OFFCURVE",
"1684 870 CURVE SMOOTH",
"1680 948 OFFCURVE",
"1629 967 OFFCURVE",
"1554 967 CURVE SMOOTH",
"1463 967 OFFCURVE",
"1354 939 OFFCURVE",
"1258 882 CURVE",
"1282 838 OFFCURVE",
"1287 793 OFFCURVE",
"1287 755 CURVE SMOOTH",
"1287 480 OFFCURVE",
"1086 266 OFFCURVE",
"1083 32 CURVE SMOOTH",
"1082 -59 OFFCURVE",
"1145 -108 OFFCURVE",
"1231 -108 CURVE SMOOTH"
);
},
{
closed = 1;
nodes = (
"1113 938 OFFCURVE",
"1070 778 OFFCURVE",
"1047 719 CURVE SMOOTH",
"988 567 OFFCURVE",
"889 425 OFFCURVE",
"789 258 CURVE",
"785 258 LINE",
"784 274 OFFCURVE",
"783 289 OFFCURVE",
"783 304 CURVE SMOOTH",
"783 467 OFFCURVE",
"841 596 OFFCURVE",
"841 754 CURVE SMOOTH",
"841 882 OFFCURVE",
"812 952 OFFCURVE",
"705 952 CURVE SMOOTH",
"611 952 OFFCURVE",
"530 909 OFFCURVE",
"466 852 CURVE",
"498 795 OFFCURVE",
"507 728 OFFCURVE",
"507 649 CURVE SMOOTH",
"507 430 OFFCURVE",
"447 227 OFFCURVE",
"447 69 CURVE SMOOTH",
"447 -57 OFFCURVE",
"492 -100 OFFCURVE",
"590 -100 CURVE SMOOTH",
"718 -100 OFFCURVE",
"841 -85 OFFCURVE",
"934 -46 CURVE",
"924 27 OFFCURVE",
"1055 239 OFFCURVE",
"1142 383 CURVE SMOOTH",
"1239 544 OFFCURVE",
"1341 694 OFFCURVE",
"1341 814 CURVE SMOOTH",
"1341 921 OFFCURVE",
"1276 952 OFFCURVE",
"1111 975 CURVE"
);
}
);
width = 1560;
},
{
associatedMasterId = "BE599D47-15C2-4DC8-BE97-05FFE6CA3179";
background = {
paths = (
{
closed = 1;
nodes = (
"228 -108 OFFCURVE",
"318 -68 OFFCURVE",
"362 -20 CURVE",
"355 3 OFFCURVE",
"351 27 OFFCURVE",
"351 60 CURVE SMOOTH",
"351 337 OFFCURVE",
"599 692 OFFCURVE",
"599 870 CURVE SMOOTH",
"599 948 OFFCURVE",
"548 967 OFFCURVE",
"479 967 CURVE SMOOTH",
"388 967 OFFCURVE",
"293 939 OFFCURVE",
"203 882 CURVE",
"227 838 OFFCURVE",
"232 793 OFFCURVE",
"232 755 CURVE SMOOTH",
"232 470 OFFCURVE",
"31 266 OFFCURVE",
"28 32 CURVE SMOOTH",
"27 -59 OFFCURVE",
"70 -108 OFFCURVE",
"156 -108 CURVE SMOOTH"
);
},
{
closed = 1;
nodes = (
"1306 -108 OFFCURVE",
"1380 -68 OFFCURVE",
"1447 -20 CURVE",
"1440 3 OFFCURVE",
"1436 27 OFFCURVE",
"1436 60 CURVE SMOOTH",
"1436 347 OFFCURVE",
"1693 692 OFFCURVE",
"1684 870 CURVE SMOOTH",
"1680 948 OFFCURVE",
"1629 967 OFFCURVE",
"1554 967 CURVE SMOOTH",
"1463 967 OFFCURVE",
"1354 939 OFFCURVE",
"1258 882 CURVE",
"1282 838 OFFCURVE",
"1287 793 OFFCURVE",
"1287 755 CURVE SMOOTH",
"1287 480 OFFCURVE",
"1086 266 OFFCURVE",
"1083 32 CURVE SMOOTH",
"1082 -59 OFFCURVE",
"1145 -108 OFFCURVE",
"1231 -108 CURVE SMOOTH"
);
},
{
closed = 1;
nodes = (
"1113 938 OFFCURVE",
"1070 778 OFFCURVE",
"1047 719 CURVE SMOOTH",
"988 567 OFFCURVE",
"889 425 OFFCURVE",
"789 258 CURVE",
"785 258 LINE",
"784 274 OFFCURVE",
"783 289 OFFCURVE",
"783 304 CURVE SMOOTH",
"783 467 OFFCURVE",
"841 596 OFFCURVE",
"841 754 CURVE SMOOTH",
"841 882 OFFCURVE",
"812 952 OFFCURVE",
"705 952 CURVE SMOOTH",
"611 952 OFFCURVE",
"530 909 OFFCURVE",
"466 852 CURVE",
"498 795 OFFCURVE",
"507 728 OFFCURVE",
"507 649 CURVE SMOOTH",
"507 430 OFFCURVE",
"447 227 OFFCURVE",
"447 69 CURVE SMOOTH",
"447 -57 OFFCURVE",
"492 -100 OFFCURVE",
"590 -100 CURVE SMOOTH",
"718 -100 OFFCURVE",
"841 -85 OFFCURVE",
"934 -46 CURVE",
"924 27 OFFCURVE",
"1055 239 OFFCURVE",
"1142 383 CURVE SMOOTH",
"1239 544 OFFCURVE",
"1341 694 OFFCURVE",
"1341 814 CURVE SMOOTH",
"1341 921 OFFCURVE",
"1276 952 OFFCURVE",
"1111 975 CURVE"
);
}
);
};
layerId = "64356029-7413-45D4-94AB-25E993607381";
name = "Regular Italic Mar 28 16, 20:46";
paths = (
{
closed = 1;
nodes = (
"228 -108 OFFCURVE",
"318 -68 OFFCURVE",
"362 -20 CURVE",
"355 3 OFFCURVE",
"351 27 OFFCURVE",
"351 60 CURVE SMOOTH",
"351 337 OFFCURVE",
"599 692 OFFCURVE",
"599 870 CURVE SMOOTH",
"599 948 OFFCURVE",
"548 967 OFFCURVE",
"479 967 CURVE SMOOTH",
"388 967 OFFCURVE",
"293 939 OFFCURVE",
"203 882 CURVE",
"227 838 OFFCURVE",
"232 793 OFFCURVE",
"232 755 CURVE SMOOTH",
"232 470 OFFCURVE",
"31 266 OFFCURVE",
"28 32 CURVE SMOOTH",
"27 -59 OFFCURVE",
"70 -108 OFFCURVE",
"156 -108 CURVE SMOOTH"
);
},
{
closed = 1;
nodes = (
"1206 -108 OFFCURVE",
"1280 -68 OFFCURVE",
"1347 -20 CURVE",
"1340 3 OFFCURVE",
"1336 27 OFFCURVE",
"1336 60 CURVE SMOOTH",
"1336 347 OFFCURVE",
"1593 692 OFFCURVE",
"1584 870 CURVE SMOOTH",
"1580 948 OFFCURVE",
"1529 967 OFFCURVE",
"1454 967 CURVE SMOOTH",
"1363 967 OFFCURVE",
"1100 973 OFFCURVE",
"1004 916 CURVE",
"1028 872 OFFCURVE",
"1187 793 OFFCURVE",
"1187 755 CURVE SMOOTH",
"1187 480 OFFCURVE",
"986 266 OFFCURVE",
"983 32 CURVE SMOOTH",
"982 -59 OFFCURVE",
"1045 -108 OFFCURVE",
"1131 -108 CURVE SMOOTH"
);
},
{
closed = 1;
nodes = (
"1008 879 OFFCURVE",
"973 787 OFFCURVE",
"953 727 CURVE SMOOTH",
"903 576 OFFCURVE",
"822 424 OFFCURVE",
"760 252 CURVE",
"756 252 LINE",
"754 268 OFFCURVE",
"752 283 OFFCURVE",
"751 298 CURVE SMOOTH",
"740 460 OFFCURVE",
"793 592 OFFCURVE",
"786 750 CURVE SMOOTH",
"780 878 OFFCURVE",
"746 933 OFFCURVE",
"639 941 CURVE SMOOTH",
"545 948 OFFCURVE",
"514 948 OFFCURVE",
"413 944 CURVE",
"448 889 OFFCURVE",
"453 707 OFFCURVE",
"457 628 CURVE SMOOTH",
"467 424 OFFCURVE",
"437 243 OFFCURVE",
"445 96 CURVE SMOOTH",
"452 -30 OFFCURVE",
"490 -61 OFFCURVE",
"587 -55 CURVE SMOOTH",
"708 -48 OFFCURVE",
"803 -58 OFFCURVE",
"888 -15 CURVE",
"892 115 OFFCURVE",
"1242 691 OFFCURVE",
"1242 837 CURVE SMOOTH",
"1242 944 OFFCURVE",
"1250 902 OFFCURVE",
"1004 916 CURVE"
);
}
);
width = 1560;
},
{
associatedMasterId = "BE599D47-15C2-4DC8-BE97-05FFE6CA3179";
background = {
paths = (
{
closed = 1;
nodes = (
"27 -59 OFFCURVE",
"70 -108 OFFCURVE",
"156 -108 CURVE SMOOTH",
"228 -108 OFFCURVE",
"318 -68 OFFCURVE",
"362 -20 CURVE",
"355 3 OFFCURVE",
"351 27 OFFCURVE",
"351 60 CURVE SMOOTH",
"351 185.551 OFFCURVE",
"401.949 327.126 OFFCURVE",
"457.661 460.981 CURVE",
"453.09 324.518 OFFCURVE",
"439.258 201.502 OFFCURVE",
"445 96 CURVE SMOOTH",
"452 -30 OFFCURVE",
"490 -61 OFFCURVE",
"587 -55 CURVE SMOOTH",
"708 -48 OFFCURVE",
"803 -58 OFFCURVE",
"888 -15 CURVE",
"890.868 78.199 OFFCURVE",
"1071.57 400.63 OFFCURVE",
"1173.647 629.508 CURVE",
"1128.694 412.219 OFFCURVE",
"985.528 229.212 OFFCURVE",
"983 32 CURVE SMOOTH",
"982 -59 OFFCURVE",
"1045 -108 OFFCURVE",
"1131 -108 CURVE SMOOTH",
"1206 -108 OFFCURVE",
"1280 -68 OFFCURVE",
"1347 -20 CURVE",
"1340 3 OFFCURVE",
"1336 27 OFFCURVE",
"1336 60 CURVE SMOOTH",
"1336 347 OFFCURVE",
"1593 692 OFFCURVE",
"1584 870 CURVE SMOOTH",
"1580 948 OFFCURVE",
"1529 967 OFFCURVE",
"1454 967 CURVE SMOOTH",
"1363 967 OFFCURVE",
"1100 973 OFFCURVE",
"1004 916 CURVE",
"1008 879 OFFCURVE",
"973 787 OFFCURVE",
"953 727 CURVE SMOOTH",
"903 576 OFFCURVE",
"822 424 OFFCURVE",
"760 252 CURVE",
"756 252 LINE",
"754 268 OFFCURVE",
"752 283 OFFCURVE",
"751 298 CURVE SMOOTH",
"740 460 OFFCURVE",
"793 592 OFFCURVE",
"786 750 CURVE SMOOTH",
"778 917 OFFCURVE",
"688 967 OFFCURVE",
"479 967 CURVE SMOOTH",
"388 967 OFFCURVE",
"293 939 OFFCURVE",
"203 882 CURVE",
"227 838 OFFCURVE",
"232 793 OFFCURVE",
"232 755 CURVE SMOOTH",
"232 470 OFFCURVE",
"31 266 OFFCURVE",
"28 32 CURVE SMOOTH"
);
}
);
};
layerId = "BF9CDBD3-583E-4400-8F56-8965FFEFAE31";
name = "Regular Italic Mar 28 16, 20:51";
paths = (
{
closed = 1;
nodes = (
"27 -59 OFFCURVE",
"70 -108 OFFCURVE",
"156 -108 CURVE SMOOTH",
"221 -108 OFFCURVE",
"302 -68 OFFCURVE",
"342 -20 CURVE",
"335 3 OFFCURVE",
"331 27 OFFCURVE",
"331 60 CURVE SMOOTH",
"331 194 OFFCURVE",
"441 528 OFFCURVE",
"498 658 CURVE",
"459 658 LINE",
"454 517 OFFCURVE",
"449 248 OFFCURVE",
"455 134 CURVE SMOOTH",
"465 -44 OFFCURVE",
"621 -49 OFFCURVE",
"852 5 CURVE",
"838 95 OFFCURVE",
"1077 530 OFFCURVE",
"1202 686 CURVE",
"1162 686 LINE",
"1073 474 OFFCURVE",
"966 239 OFFCURVE",
"963 32 CURVE SMOOTH",
"962 -59 OFFCURVE",
"1025 -108 OFFCURVE",
"1111 -108 CURVE SMOOTH",
"1186 -108 OFFCURVE",
"1260 -68 OFFCURVE",
"1327 -20 CURVE",
"1320 3 OFFCURVE",
"1316 27 OFFCURVE",
"1316 60 CURVE SMOOTH",
"1316 347 OFFCURVE",
"1573 692 OFFCURVE",
"1564 870 CURVE SMOOTH",
"1557 948 OFFCURVE",
"1462 967 OFFCURVE",
"1324 967 CURVE SMOOTH",
"1256 967 OFFCURVE",
"1060 973 OFFCURVE",
"988 916 CURVE",
"992 786 OFFCURVE",
"838 455 OFFCURVE",
"712 266 CURVE",
"772 266 LINE",
"771 423 OFFCURVE",
"760 593 OFFCURVE",
"743 750 CURVE SMOOTH",
"728 917 OFFCURVE",
"688 967 OFFCURVE",
"529 967 CURVE SMOOTH",
"402 967 OFFCURVE",
"306 939 OFFCURVE",
"203 882 CURVE",
"227 838 OFFCURVE",
"232 793 OFFCURVE",
"232 755 CURVE SMOOTH",
"232 470 OFFCURVE",
"31 266 OFFCURVE",
"28 32 CURVE SMOOTH"
);
}
);
width = 1440;
},
{
associatedMasterId = "BE599D47-15C2-4DC8-BE97-05FFE6CA3179";
background = {
paths = (
{
closed = 1;
nodes = (
"27 -59 OFFCURVE",
"70 -108 OFFCURVE",
"156 -108 CURVE SMOOTH",
"228 -108 OFFCURVE",
"318 -68 OFFCURVE",
"362 -20 CURVE",
"355 3 OFFCURVE",
"351 27 OFFCURVE",
"351 60 CURVE SMOOTH",
"351 185.551 OFFCURVE",
"401.949 327.126 OFFCURVE",
"457.661 460.981 CURVE",
"453.09 324.518 OFFCURVE",
"439.258 201.502 OFFCURVE",
"445 96 CURVE SMOOTH",
"452 -30 OFFCURVE",
"490 -61 OFFCURVE",
"587 -55 CURVE SMOOTH",
"708 -48 OFFCURVE",
"803 -58 OFFCURVE",
"888 -15 CURVE",
"890.868 78.199 OFFCURVE",
"1071.57 400.63 OFFCURVE",
"1173.647 629.508 CURVE",
"1128.694 412.219 OFFCURVE",
"985.528 229.212 OFFCURVE",
"983 32 CURVE SMOOTH",
"982 -59 OFFCURVE",
"1045 -108 OFFCURVE",
"1131 -108 CURVE SMOOTH",
"1206 -108 OFFCURVE",
"1280 -68 OFFCURVE",
"1347 -20 CURVE",
"1340 3 OFFCURVE",
"1336 27 OFFCURVE",
"1336 60 CURVE SMOOTH",
"1336 347 OFFCURVE",
"1593 692 OFFCURVE",
"1584 870 CURVE SMOOTH",
"1580 948 OFFCURVE",
"1529 967 OFFCURVE",
"1454 967 CURVE SMOOTH",
"1363 967 OFFCURVE",
"1100 973 OFFCURVE",
"1004 916 CURVE",
"1008 879 OFFCURVE",
"973 787 OFFCURVE",
"953 727 CURVE SMOOTH",
"903 576 OFFCURVE",
"822 424 OFFCURVE",
"760 252 CURVE",
"756 252 LINE",
"754 268 OFFCURVE",
"752 283 OFFCURVE",
"751 298 CURVE SMOOTH",
"740 460 OFFCURVE",
"793 592 OFFCURVE",
"786 750 CURVE SMOOTH",
"778 917 OFFCURVE",
"688 967 OFFCURVE",
"479 967 CURVE SMOOTH",
"388 967 OFFCURVE",
"293 939 OFFCURVE",
"203 882 CURVE",
"227 838 OFFCURVE",
"232 793 OFFCURVE",
"232 755 CURVE SMOOTH",
"232 470 OFFCURVE",
"31 266 OFFCURVE",
"28 32 CURVE SMOOTH"
);
}
);
};
layerId = "2B18E96C-CCB0-49CC-889D-DFCCD9933577";
name = "Regular Italic Mar 28 16, 20:54";
paths = (
{
closed = 1;
nodes = (
"28 -60 OFFCURVE",
"71 -108 OFFCURVE",
"156 -108 CURVE SMOOTH",
"231 -108 OFFCURVE",
"326 -68 OFFCURVE",
"372 -20 CURVE",
"365 3 OFFCURVE",
"361 27 OFFCURVE",
"361 60 CURVE SMOOTH",
"361 194 OFFCURVE",
"451 528 OFFCURVE",
"498 658 CURVE",
"426 638 LINE",
"471 164 LINE SMOOTH",
"478 53 OFFCURVE",
"542 5 OFFCURVE",
"654 5 CURVE SMOOTH",
"713 5 OFFCURVE",
"784 16 OFFCURVE",
"863 35 CURVE",
"849 125 OFFCURVE",
"1081 537 OFFCURVE",
"1202 686 CURVE",
"1162 686 LINE",
"1077 472 OFFCURVE",
"973 235 OFFCURVE",
"973 30 CURVE SMOOTH",
"973 -60 OFFCURVE",
"1036 -108 OFFCURVE",
"1121 -108 CURVE SMOOTH",
"1196 -108 OFFCURVE",
"1270 -68 OFFCURVE",
"1337 -20 CURVE",
"1330 3 OFFCURVE",
"1326 27 OFFCURVE",
"1326 60 CURVE SMOOTH",
"1326 342 OFFCURVE",
"1524 680 OFFCURVE",
"1524 861 CURVE SMOOTH",
"1524 947 OFFCURVE",
"1443 967 OFFCURVE",
"1324 967 CURVE SMOOTH",
"1162 967 OFFCURVE",
"1066 952 OFFCURVE",
"968 906 CURVE",
"1005 851 OFFCURVE",
"828 501 OFFCURVE",
"705 312 CURVE",
"759 267 LINE",
"758 424 OFFCURVE",
"742 593 OFFCURVE",
"733 750 CURVE SMOOTH",
"718 917 OFFCURVE",
"678 967 OFFCURVE",
"519 967 CURVE SMOOTH",
"392 967 OFFCURVE",
"306 939 OFFCURVE",
"203 882 CURVE",
"227 838 OFFCURVE",
"232 793 OFFCURVE",
"232 755 CURVE SMOOTH",
"232 468 OFFCURVE",
"28 263 OFFCURVE",
"28 29 CURVE SMOOTH"
);
}
);
width = 1440;
},
{
associatedMasterId = "BE599D47-15C2-4DC8-BE97-05FFE6CA3179";
background = {
paths = (
{
closed = 1;
nodes = (
"28 -60 OFFCURVE",
"71 -108 OFFCURVE",
"156 -108 CURVE SMOOTH",
"231 -108 OFFCURVE",
"326 -68 OFFCURVE",
"372 -20 CURVE",
"365 3 OFFCURVE",
"361 27 OFFCURVE",
"361 60 CURVE SMOOTH",
"361 194 OFFCURVE",
"451 528 OFFCURVE",
"498 658 CURVE",
"426 638 LINE",
"471 164 LINE SMOOTH",
"478 53 OFFCURVE",
"542 5 OFFCURVE",
"654 5 CURVE SMOOTH",
"713 5 OFFCURVE",
"784 16 OFFCURVE",
"863 35 CURVE",
"849 125 OFFCURVE",
"1081 537 OFFCURVE",
"1202 686 CURVE",
"1162 686 LINE",
"1077 472 OFFCURVE",
"973 235 OFFCURVE",
"973 30 CURVE SMOOTH",
"973 -60 OFFCURVE",
"1036 -108 OFFCURVE",
"1121 -108 CURVE SMOOTH",
"1196 -108 OFFCURVE",
"1270 -68 OFFCURVE",
"1337 -20 CURVE",
"1330 3 OFFCURVE",
"1326 27 OFFCURVE",
"1326 60 CURVE SMOOTH",
"1326 342 OFFCURVE",
"1524 680 OFFCURVE",
"1524 861 CURVE SMOOTH",
"1524 947 OFFCURVE",
"1443 967 OFFCURVE",
"1324 967 CURVE SMOOTH",
"1162 967 OFFCURVE",
"1066 952 OFFCURVE",
"968 906 CURVE",
"1005 851 OFFCURVE",
"828 501 OFFCURVE",
"705 312 CURVE",
"759 267 LINE",
"758 424 OFFCURVE",
"742 593 OFFCURVE",
"733 750 CURVE SMOOTH",
"718 917 OFFCURVE",
"678 967 OFFCURVE",
"519 967 CURVE SMOOTH",
"392 967 OFFCURVE",
"306 939 OFFCURVE",
"203 882 CURVE",
"227 838 OFFCURVE",
"232 793 OFFCURVE",
"232 755 CURVE SMOOTH",
"232 468 OFFCURVE",
"28 263 OFFCURVE",
"28 29 CURVE SMOOTH"
);
}
);
};
layerId = "FB05D59A-F259-440E-AC2C-E0BCFAECF65D";
name = "Regular Italic Mar 28 16, 20:59";
paths = (
{
closed = 1;
nodes = (
"24 -61 OFFCURVE",
"65 -108 OFFCURVE",
"150 -108 CURVE SMOOTH",
"228 -108 OFFCURVE",
"322 -68 OFFCURVE",
"368 -20 CURVE",
"361 3 OFFCURVE",
"357 28 OFFCURVE",
"357 57 CURVE SMOOTH",
"357 195 OFFCURVE",
"450 528 OFFCURVE",
"498 658 CURVE",
"406 638 LINE",
"485 104 LINE SMOOTH",
"500 8 OFFCURVE",
"547 -7 OFFCURVE",
"621 -7 CURVE SMOOTH",
"694 -7 OFFCURVE",
"783 8 OFFCURVE",
"857 45 CURVE",
"856 52 OFFCURVE",
"857 76 OFFCURVE",
"863 103 CURVE SMOOTH",
"875 153 OFFCURVE",
"924 287 OFFCURVE",
"1202 686 CURVE",
"1162 686 LINE",
"1120 575 OFFCURVE",
"983 239 OFFCURVE",
"983 54 CURVE SMOOTH",
"983 -70 OFFCURVE",
"1045 -108 OFFCURVE",
"1127 -108 CURVE SMOOTH",
"1207 -108 OFFCURVE",
"1275 -71 OFFCURVE",
"1347 -20 CURVE",
"1340 3 OFFCURVE",
"1336 25 OFFCURVE",
"1336 68 CURVE SMOOTH",
"1336 330 OFFCURVE",
"1484 698 OFFCURVE",
"1484 849 CURVE SMOOTH",
"1484 947 OFFCURVE",
"1422 967 OFFCURVE",
"1271 967 CURVE SMOOTH",
"1146 967 OFFCURVE",
"1047 953 OFFCURVE",
"960 910 CURVE",
"969 898 OFFCURVE",
"973 878 OFFCURVE",
"973 864 CURVE SMOOTH",
"973 771 OFFCURVE",
"817 478 OFFCURVE",
"705 312 CURVE",
"779 277 LINE",
"715 750 LINE SMOOTH",
"690 930 OFFCURVE",
"661 967 OFFCURVE",
"526 967 CURVE SMOOTH",
"407 967 OFFCURVE",
"312 938 OFFCURVE",
"203 882 CURVE",
"227 838 OFFCURVE",
"232 794 OFFCURVE",
"232 751 CURVE SMOOTH",
"232 475 OFFCURVE",
"24 253 OFFCURVE",
"24 36 CURVE SMOOTH"
);
}
);
width = 1440;
},
{
associatedMasterId = "BE599D47-15C2-4DC8-BE97-05FFE6CA3179";
background = {
paths = (
{
closed = 1;
nodes = (
"24 -61 OFFCURVE",
"65 -108 OFFCURVE",
"150 -108 CURVE SMOOTH",
"228 -108 OFFCURVE",
"322 -68 OFFCURVE",
"368 -20 CURVE",
"361 3 OFFCURVE",
"357 28 OFFCURVE",
"357 57 CURVE SMOOTH",
"357 195 OFFCURVE",
"450 528 OFFCURVE",
"498 658 CURVE",
"406 638 LINE",
"485 104 LINE SMOOTH",
"500 8 OFFCURVE",
"547 -7 OFFCURVE",
"621 -7 CURVE SMOOTH",
"694 -7 OFFCURVE",
"783 8 OFFCURVE",
"857 45 CURVE",
"856 52 OFFCURVE",
"857 76 OFFCURVE",
"863 103 CURVE SMOOTH",
"875 153 OFFCURVE",
"924 287 OFFCURVE",
"1202 686 CURVE",
"1162 686 LINE",
"1120 575 OFFCURVE",
"983 239 OFFCURVE",
"983 54 CURVE SMOOTH",
"983 -70 OFFCURVE",
"1045 -108 OFFCURVE",
"1127 -108 CURVE SMOOTH",
"1207 -108 OFFCURVE",
"1275 -71 OFFCURVE",
"1347 -20 CURVE",
"1340 3 OFFCURVE",
"1336 25 OFFCURVE",
"1336 68 CURVE SMOOTH",
"1336 330 OFFCURVE",
"1484 698 OFFCURVE",
"1484 849 CURVE SMOOTH",
"1484 947 OFFCURVE",
"1422 967 OFFCURVE",
"1271 967 CURVE SMOOTH",
"1146 967 OFFCURVE",
"1047 953 OFFCURVE",
"960 910 CURVE",
"969 898 OFFCURVE",
"973 878 OFFCURVE",
"973 864 CURVE SMOOTH",
"973 771 OFFCURVE",
"817 478 OFFCURVE",
"705 312 CURVE",
"779 277 LINE",
"711 750 LINE SMOOTH",
"685 931 OFFCURVE",
"657 967 OFFCURVE",
"522 967 CURVE SMOOTH",
"403 967 OFFCURVE",
"312 938 OFFCURVE",
"203 882 CURVE",
"227 838 OFFCURVE",
"232 794 OFFCURVE",
"232 751 CURVE SMOOTH",
"232 475 OFFCURVE",
"24 253 OFFCURVE",
"24 36 CURVE SMOOTH"
);
}
);
};
layerId = "E488F9AB-FFEF-4535-AFDD-DAF0A5F4901E";
name = "Regular Italic Mar 28 16, 21:01";
paths = (
{
closed = 1;
nodes = (
"24 -61 OFFCURVE",
"65 -108 OFFCURVE",
"150 -108 CURVE SMOOTH",
"228 -108 OFFCURVE",
"322 -68 OFFCURVE",
"368 -20 CURVE",
"361 3 OFFCURVE",
"357 28 OFFCURVE",
"357 57 CURVE SMOOTH",
"357 195 OFFCURVE",
"450 528 OFFCURVE",
"498 658 CURVE",
"406 638 LINE",
"485 104 LINE SMOOTH",
"499 8 OFFCURVE",
"549 -7 OFFCURVE",
"621 -7 CURVE SMOOTH",
"694 -7 OFFCURVE",
"783 8 OFFCURVE",
"857 45 CURVE",
"856 49 OFFCURVE",
"856 53 OFFCURVE",
"856 60 CURVE SMOOTH",
"856 104 OFFCURVE",
"886 233 OFFCURVE",
"1202 686 CURVE",
"1162 686 LINE",
"1120 575 OFFCURVE",
"983 239 OFFCURVE",
"983 54 CURVE SMOOTH",
"983 -70 OFFCURVE",
"1045 -108 OFFCURVE",
"1127 -108 CURVE SMOOTH",
"1207 -108 OFFCURVE",
"1275 -71 OFFCURVE",
"1347 -20 CURVE",
"1340 3 OFFCURVE",
"1336 25 OFFCURVE",
"1336 68 CURVE SMOOTH",
"1336 330 OFFCURVE",
"1484 698 OFFCURVE",
"1484 849 CURVE SMOOTH",
"1484 947 OFFCURVE",
"1422 967 OFFCURVE",
"1271 967 CURVE SMOOTH",
"1146 967 OFFCURVE",
"1047 953 OFFCURVE",
"960 910 CURVE",
"969 898 OFFCURVE",
"973 878 OFFCURVE",
"973 864 CURVE SMOOTH",
"973 771 OFFCURVE",
"817 478 OFFCURVE",
"705 312 CURVE",
"779 277 LINE",
"711 750 LINE SMOOTH",
"685 931 OFFCURVE",
"657 967 OFFCURVE",
"523 967 CURVE SMOOTH",
"403 967 OFFCURVE",
"312 938 OFFCURVE",
"203 882 CURVE",
"227 838 OFFCURVE",
"232 794 OFFCURVE",
"232 751 CURVE SMOOTH",
"232 475 OFFCURVE",
"24 253 OFFCURVE",
"24 36 CURVE SMOOTH"
);
}
);
width = 1440;
},
{
associatedMasterId = "BE599D47-15C2-4DC8-BE97-05FFE6CA3179";
background = {
paths = (
{
closed = 1;
nodes = (
"24 -61 OFFCURVE",
"65 -108 OFFCURVE",
"150 -108 CURVE SMOOTH",
"228 -108 OFFCURVE",
"322 -68 OFFCURVE",
"368 -20 CURVE",
"361 3 OFFCURVE",
"357 28 OFFCURVE",
"357 57 CURVE SMOOTH",
"357 195 OFFCURVE",
"450 528 OFFCURVE",
"498 658 CURVE",
"406 638 LINE",
"485 104 LINE SMOOTH",
"500 8 OFFCURVE",
"547 -7 OFFCURVE",
"621 -7 CURVE SMOOTH",
"694 -7 OFFCURVE",
"783 8 OFFCURVE",
"857 45 CURVE",
"856 52 OFFCURVE",
"857 76 OFFCURVE",
"863 103 CURVE SMOOTH",
"875 153 OFFCURVE",
"924 287 OFFCURVE",
"1202 686 CURVE",
"1162 686 LINE",
"1120 575 OFFCURVE",
"983 239 OFFCURVE",
"983 54 CURVE SMOOTH",
"983 -70 OFFCURVE",
"1045 -108 OFFCURVE",
"1127 -108 CURVE SMOOTH",
"1207 -108 OFFCURVE",
"1275 -71 OFFCURVE",
"1347 -20 CURVE",
"1340 3 OFFCURVE",
"1336 25 OFFCURVE",
"1336 68 CURVE SMOOTH",
"1336 330 OFFCURVE",
"1484 698 OFFCURVE",
"1484 849 CURVE SMOOTH",
"1484 947 OFFCURVE",
"1422 967 OFFCURVE",
"1271 967 CURVE SMOOTH",
"1146 967 OFFCURVE",
"1047 953 OFFCURVE",
"960 910 CURVE",
"969 898 OFFCURVE",
"973 878 OFFCURVE",
"973 864 CURVE SMOOTH",
"973 771 OFFCURVE",
"817 478 OFFCURVE",
"705 312 CURVE",
"779 277 LINE",
"711 750 LINE SMOOTH",
"685 931 OFFCURVE",
"657 967 OFFCURVE",
"522 967 CURVE SMOOTH",
"403 967 OFFCURVE",
"312 938 OFFCURVE",
"203 882 CURVE",
"227 838 OFFCURVE",
"232 794 OFFCURVE",
"232 751 CURVE SMOOTH",
"232 475 OFFCURVE",
"24 253 OFFCURVE",
"24 36 CURVE SMOOTH"
);
}
);
};
layerId = "B9E369AF-D2A9-4ACE-B875-06C54A543747";
name = "Regular Italic Mar 28 16, 21:02";
paths = (
{
closed = 1;
nodes = (
"15 -61 OFFCURVE",
"56 -108 OFFCURVE",
"141 -108 CURVE SMOOTH",
"219 -108 OFFCURVE",
"313 -68 OFFCURVE",
"360 -20 CURVE",
"354 3 OFFCURVE",
"350 28 OFFCURVE",
"350 57 CURVE SMOOTH",
"353 195 OFFCURVE",
"452 528 OFFCURVE",
"502 658 CURVE",
"410 638 LINE",
"479 104 LINE SMOOTH",
"492 8 OFFCURVE",
"541 -7 OFFCURVE",
"613 -7 CURVE SMOOTH",
"686 -7 OFFCURVE",
"776 8 OFFCURVE",
"850 45 CURVE",
"849 49 OFFCURVE",
"849 53 OFFCURVE",
"850 60 CURVE SMOOTH",
"850 104 OFFCURVE",
"883 233 OFFCURVE",
"1206 686 CURVE",
"1166 686 LINE",
"1123 575 OFFCURVE",
"980 239 OFFCURVE",
"976 54 CURVE SMOOTH",
"974 -70 OFFCURVE",
"1036 -108 OFFCURVE",
"1118 -108 CURVE SMOOTH",
"1198 -108 OFFCURVE",
"1266 -71 OFFCURVE",
"1339 -20 CURVE",
"1333 3 OFFCURVE",
"1329 25 OFFCURVE",
"1330 68 CURVE SMOOTH",
"1334 330 OFFCURVE",
"1489 698 OFFCURVE",
"1491 849 CURVE SMOOTH",
"1493 947 OFFCURVE",
"1431 967 OFFCURVE",
"1280 967 CURVE SMOOTH",
"1155 967 OFFCURVE",
"1056 953 OFFCURVE",
"968 910 CURVE",
"977 898 OFFCURVE",
"981 878 OFFCURVE",
"981 864 CURVE SMOOTH",
"979 771 OFFCURVE",
"818 478 OFFCURVE",
"703 312 CURVE",
"776 277 LINE",
"717 750 LINE SMOOTH",
"694 931 OFFCURVE",
"666 967 OFFCURVE",
"532 967 CURVE SMOOTH",
"412 967 OFFCURVE",
"321 938 OFFCURVE",
"211 882 CURVE",
"234 838 OFFCURVE",
"238 794 OFFCURVE",
"238 751 CURVE SMOOTH",
"233 475 OFFCURVE",
"21 253 OFFCURVE",
"17 36 CURVE SMOOTH"
);
}
);
width = 1440;
},
{
associatedMasterId = "BE599D47-15C2-4DC8-BE97-05FFE6CA3179";
background = {
paths = (
{
closed = 1;
nodes = (
"24 -61 OFFCURVE",
"65 -108 OFFCURVE",
"150 -108 CURVE SMOOTH",
"228 -108 OFFCURVE",
"322 -68 OFFCURVE",
"368 -20 CURVE",
"361 3 OFFCURVE",
"357 28 OFFCURVE",
"357 57 CURVE SMOOTH",
"357 195 OFFCURVE",
"450 528 OFFCURVE",
"498 658 CURVE",
"406 638 LINE",
"485 104 LINE SMOOTH",
"500 8 OFFCURVE",
"547 -7 OFFCURVE",
"621 -7 CURVE SMOOTH",
"694 -7 OFFCURVE",
"783 8 OFFCURVE",
"857 45 CURVE",
"856 52 OFFCURVE",
"857 76 OFFCURVE",
"863 103 CURVE SMOOTH",
"875 153 OFFCURVE",
"924 287 OFFCURVE",
"1202 686 CURVE",
"1162 686 LINE",
"1120 575 OFFCURVE",
"983 239 OFFCURVE",
"983 54 CURVE SMOOTH",
"983 -70 OFFCURVE",
"1045 -108 OFFCURVE",
"1127 -108 CURVE SMOOTH",
"1207 -108 OFFCURVE",
"1275 -71 OFFCURVE",
"1347 -20 CURVE",
"1340 3 OFFCURVE",
"1336 25 OFFCURVE",
"1336 68 CURVE SMOOTH",
"1336 330 OFFCURVE",
"1484 698 OFFCURVE",
"1484 849 CURVE SMOOTH",
"1484 947 OFFCURVE",
"1422 967 OFFCURVE",
"1271 967 CURVE SMOOTH",
"1146 967 OFFCURVE",
"1047 953 OFFCURVE",
"960 910 CURVE",
"969 898 OFFCURVE",
"973 878 OFFCURVE",
"973 864 CURVE SMOOTH",
"973 771 OFFCURVE",
"817 478 OFFCURVE",
"705 312 CURVE",
"779 277 LINE",
"711 750 LINE SMOOTH",
"685 931 OFFCURVE",
"657 967 OFFCURVE",
"522 967 CURVE SMOOTH",
"403 967 OFFCURVE",
"312 938 OFFCURVE",
"203 882 CURVE",
"227 838 OFFCURVE",
"232 794 OFFCURVE",
"232 751 CURVE SMOOTH",
"232 475 OFFCURVE",
"24 253 OFFCURVE",
"24 36 CURVE SMOOTH"
);
}
);
};
layerId = "F3036CE5-76CD-4EA1-80B4-CB37CC2B7CBE";
name = "Regular Italic Mar 28 16, 21:08";
paths = (
{
closed = 1;
nodes = (
"-2 -48 OFFCURVE",
"37 -96 OFFCURVE",
"122 -97 CURVE SMOOTH",
"200 -98 OFFCURVE",
"296 -60 OFFCURVE",
"345 -13 CURVE",
"339 10 OFFCURVE",
"336 35 OFFCURVE",
"338 64 CURVE SMOOTH",
"345 202 OFFCURVE",
"455 533 OFFCURVE",
"510 662 CURVE",
"417 644 LINE",
"468 109 LINE SMOOTH",
"477 13 OFFCURVE",
"526 -3 OFFCURVE",
"598 -4 CURVE SMOOTH",
"671 -6 OFFCURVE",
"761 8 OFFCURVE",
"837 44 CURVE",
"836 48 OFFCURVE",
"836 52 OFFCURVE",
"837 59 CURVE SMOOTH",
"839 102 OFFCURVE",
"876 231 OFFCURVE",
"1215 678 CURVE",
"1175 679 LINE",
"1128 569 OFFCURVE",
"973 235 OFFCURVE",
"963 50 CURVE SMOOTH",
"957 -74 OFFCURVE",
"1017 -113 OFFCURVE",
"1099 -114 CURVE SMOOTH",
"1179 -115 OFFCURVE",
"1249 -80 OFFCURVE",
"1323 -30 CURVE",
"1318 -7 OFFCURVE",
"1315 15 OFFCURVE",
"1317 58 CURVE SMOOTH",
"1331 320 OFFCURVE",
"1498 685 OFFCURVE",
"1506 836 CURVE SMOOTH",
"1511 934 OFFCURVE",
"1450 955 OFFCURVE",
"1299 958 CURVE SMOOTH",
"1174 960 OFFCURVE",
"1074 947 OFFCURVE",
"985 906 CURVE",
"993 894 OFFCURVE",
"996 874 OFFCURVE",
"996 860 CURVE SMOOTH",
"991 767 OFFCURVE",
"820 477 OFFCURVE",
"699 313 CURVE",
"771 277 LINE",
"728 751 LINE SMOOTH",
"711 932 OFFCURVE",
"685 968 OFFCURVE",
"551 971 CURVE SMOOTH",
"431 973 OFFCURVE",
"339 945 OFFCURVE",
"227 891 CURVE",
"248 847 OFFCURVE",
"251 803 OFFCURVE",
"249 760 CURVE SMOOTH",
"234 484 OFFCURVE",
"15 266 OFFCURVE",
"4 49 CURVE SMOOTH"
);
}
);
width = 1440;
}
);
unicode = 004D;
},
{
glyphname = N;
lastChange = "2016-04-03 01:55:00 +0000";
layers = (
{
background = {
paths = (
{
closed = 1;
nodes = (
"203 -108 OFFCURVE",
"264 -68 OFFCURVE",
"331 -20 CURVE",
"324 3 OFFCURVE",
"320 27 OFFCURVE",
"320 60 CURVE SMOOTH",
"320 337 OFFCURVE",
"577 692 OFFCURVE",
"568 870 CURVE SMOOTH",
"564 948 OFFCURVE",
"513 967 OFFCURVE",
"438 967 CURVE SMOOTH",
"350 967 OFFCURVE",
"252 939 OFFCURVE",
"162 882 CURVE",
"186 838 OFFCURVE",
"191 793 OFFCURVE",
"191 755 CURVE SMOOTH",
"191 470 OFFCURVE",
"-10 266 OFFCURVE",
"-13 32 CURVE SMOOTH",
"-14 -59 OFFCURVE",
"49 -108 OFFCURVE",
"135 -108 CURVE SMOOTH"
);
},
{
closed = 1;
nodes = (
"755 -108 OFFCURVE",
"829 -68 OFFCURVE",
"896 -20 CURVE",
"889 3 OFFCURVE",
"885 27 OFFCURVE",
"885 60 CURVE SMOOTH",
"885 347 OFFCURVE",
"1142 692 OFFCURVE",
"1133 870 CURVE SMOOTH",
"1129 948 OFFCURVE",
"1078 967 OFFCURVE",
"1003 967 CURVE SMOOTH",
"918 967 OFFCURVE",
"820 939 OFFCURVE",
"727 882 CURVE",
"751 838 OFFCURVE",
"756 793 OFFCURVE",
"756 755 CURVE SMOOTH",
"756 480 OFFCURVE",
"555 266 OFFCURVE",
"552 32 CURVE SMOOTH",
"551 -59 OFFCURVE",
"606 -108 OFFCURVE",
"680 -108 CURVE SMOOTH"
);
},
{
closed = 1;
nodes = (
"338 596 LINE",
"552 32 LINE",
"731 311 LINE",
"568 870 LINE"
);
}
);
};
layerId = "BE599D47-15C2-4DC8-BE97-05FFE6CA3179";
paths = (
{
closed = 1;
nodes = (
"-13 -3 OFFCURVE",
"49 -46 OFFCURVE",
"130 -46 CURVE SMOOTH",
"205 -46 OFFCURVE",
"259 -9 OFFCURVE",
"331 42 CURVE",
"324 65 OFFCURVE",
"320 89 OFFCURVE",
"320 123 CURVE SMOOTH",
"320 245 OFFCURVE",
"371 384 OFFCURVE",
"427 516 CURVE",
"385 548 LINE",
"523 59 OFFCURVE",
"567 -46 OFFCURVE",
"683 -46 CURVE SMOOTH",
"754 -46 OFFCURVE",
"829 -6 OFFCURVE",
"896 42 CURVE",
"889 65 OFFCURVE",
"885 88 OFFCURVE",
"885 123 CURVE SMOOTH",
"885 407 OFFCURVE",
"1141 753 OFFCURVE",
"1133 932 CURVE SMOOTH",
"1129 1010 OFFCURVE",
"1077 1029 OFFCURVE",
"1005 1029 CURVE SMOOTH",
"917 1029 OFFCURVE",
"820 1001 OFFCURVE",
"727 944 CURVE",
"751 900 OFFCURVE",
"756 856 OFFCURVE",
"756 815 CURVE SMOOTH",
"756 710 OFFCURVE",
"723 602 OFFCURVE",
"686 510 CURVE",
"710 471 LINE",
"583 949 OFFCURVE",
"584 1029 OFFCURVE",
"438 1029 CURVE SMOOTH",
"351 1029 OFFCURVE",
"252 1001 OFFCURVE",
"162 944 CURVE",
"186 900 OFFCURVE",
"191 856 OFFCURVE",
"191 813 CURVE SMOOTH",
"191 541 OFFCURVE",
"-13 304 OFFCURVE",
"-13 106 CURVE SMOOTH"
);
}
);
width = 1003;
},
{
associatedMasterId = "BE599D47-15C2-4DC8-BE97-05FFE6CA3179";
background = {
paths = (
{
closed = 1;
nodes = (
"233 -108 OFFCURVE",
"307 -68 OFFCURVE",
"374 -20 CURVE",
"367 3 OFFCURVE",
"363 27 OFFCURVE",
"363 60 CURVE SMOOTH",
"363 337 OFFCURVE",
"620 692 OFFCURVE",
"611 870 CURVE SMOOTH",
"607 948 OFFCURVE",
"556 967 OFFCURVE",
"481 967 CURVE SMOOTH",
"390 967 OFFCURVE",
"281 939 OFFCURVE",
"185 882 CURVE",
"209 838 OFFCURVE",
"214 793 OFFCURVE",
"214 755 CURVE SMOOTH",
"214 470 OFFCURVE",
"13 266 OFFCURVE",
"10 32 CURVE SMOOTH",
"9 -59 OFFCURVE",
"72 -108 OFFCURVE",
"158 -108 CURVE SMOOTH"
);
},
{
closed = 1;
nodes = (
"768 -108 OFFCURVE",
"842 -68 OFFCURVE",
"909 -20 CURVE",
"902 3 OFFCURVE",
"898 27 OFFCURVE",
"898 60 CURVE SMOOTH",
"898 347 OFFCURVE",
"1155 692 OFFCURVE",
"1146 870 CURVE SMOOTH",
"1142 948 OFFCURVE",
"1091 967 OFFCURVE",
"1016 967 CURVE SMOOTH",
"925 967 OFFCURVE",
"816 939 OFFCURVE",
"720 882 CURVE",
"744 838 OFFCURVE",
"749 793 OFFCURVE",
"749 755 CURVE SMOOTH",
"749 480 OFFCURVE",
"548 266 OFFCURVE",
"545 32 CURVE SMOOTH",
"544 -59 OFFCURVE",
"607 -108 OFFCURVE",
"693 -108 CURVE SMOOTH"
);
},
{
closed = 1;
nodes = (
"337 350 LINE",
"748 350 LINE",
"773 506 LINE",
"362 506 LINE"
);
}
);
};
layerId = "30A8892D-99E0-4ECD-8451-2A604FB84249";
name = "Regular Italic Apr 1 16, 00:48";
paths = (
{
closed = 1;
nodes = (
"233 -108 OFFCURVE",
"307 -68 OFFCURVE",
"374 -20 CURVE",
"367 3 OFFCURVE",
"363 27 OFFCURVE",
"363 60 CURVE SMOOTH",
"363 337 OFFCURVE",
"620 692 OFFCURVE",
"611 870 CURVE SMOOTH",
"607 948 OFFCURVE",
"556 967 OFFCURVE",
"481 967 CURVE SMOOTH",
"390 967 OFFCURVE",
"281 939 OFFCURVE",
"185 882 CURVE",
"209 838 OFFCURVE",
"214 793 OFFCURVE",
"214 755 CURVE SMOOTH",
"214 470 OFFCURVE",
"13 266 OFFCURVE",
"10 32 CURVE SMOOTH",
"9 -59 OFFCURVE",
"72 -108 OFFCURVE",
"158 -108 CURVE SMOOTH"
);
},
{
closed = 1;
nodes = (
"768 -108 OFFCURVE",
"842 -68 OFFCURVE",
"909 -20 CURVE",
"902 3 OFFCURVE",
"898 27 OFFCURVE",
"898 60 CURVE SMOOTH",
"898 347 OFFCURVE",
"1155 692 OFFCURVE",
"1146 870 CURVE SMOOTH",
"1142 948 OFFCURVE",
"1091 967 OFFCURVE",
"1016 967 CURVE SMOOTH",
"925 967 OFFCURVE",
"816 939 OFFCURVE",
"720 882 CURVE",
"744 838 OFFCURVE",
"749 793 OFFCURVE",
"749 755 CURVE SMOOTH",
"749 480 OFFCURVE",
"548 266 OFFCURVE",
"545 32 CURVE SMOOTH",
"544 -59 OFFCURVE",
"607 -108 OFFCURVE",
"693 -108 CURVE SMOOTH"
);
},
{
closed = 1;
nodes = (
"431 732 LINE",
"627 -34 LINE",
"652 122 LINE",
"456 888 LINE"
);
}
);
width = 1030;
},
{
associatedMasterId = "BE599D47-15C2-4DC8-BE97-05FFE6CA3179";
background = {
paths = (
{
closed = 1;
nodes = (
"233 -108 OFFCURVE",
"307 -68 OFFCURVE",
"374 -20 CURVE",
"367 3 OFFCURVE",
"363 27 OFFCURVE",
"363 60 CURVE SMOOTH",
"363 337 OFFCURVE",
"620 692 OFFCURVE",
"611 870 CURVE SMOOTH",
"607 948 OFFCURVE",
"556 967 OFFCURVE",
"481 967 CURVE SMOOTH",
"390 967 OFFCURVE",
"281 939 OFFCURVE",
"185 882 CURVE",
"209 838 OFFCURVE",
"214 793 OFFCURVE",
"214 755 CURVE SMOOTH",
"214 470 OFFCURVE",
"13 266 OFFCURVE",
"10 32 CURVE SMOOTH",
"9 -59 OFFCURVE",
"72 -108 OFFCURVE",
"158 -108 CURVE SMOOTH"
);
},
{
closed = 1;
nodes = (
"768 -108 OFFCURVE",
"842 -68 OFFCURVE",
"909 -20 CURVE",
"902 3 OFFCURVE",
"898 27 OFFCURVE",
"898 60 CURVE SMOOTH",
"898 347 OFFCURVE",
"1155 692 OFFCURVE",
"1146 870 CURVE SMOOTH",
"1142 948 OFFCURVE",
"1091 967 OFFCURVE",
"1016 967 CURVE SMOOTH",
"925 967 OFFCURVE",
"816 939 OFFCURVE",
"720 882 CURVE",
"744 838 OFFCURVE",
"749 793 OFFCURVE",
"749 755 CURVE SMOOTH",
"749 480 OFFCURVE",
"548 266 OFFCURVE",
"545 32 CURVE SMOOTH",
"544 -59 OFFCURVE",
"607 -108 OFFCURVE",
"693 -108 CURVE SMOOTH"
);
},
{
closed = 1;
nodes = (
"337 350 LINE",
"748 350 LINE",
"773 506 LINE",
"362 506 LINE"
);
}
);
};
layerId = "0BA4C065-D230-45F7-9EC0-609FB2E84399";
name = "Regular Italic Apr 1 16, 00:50";
paths = (
{
closed = 1;
nodes = (
"230 -108 OFFCURVE",
"297 -68 OFFCURVE",
"364 -20 CURVE",
"357 3 OFFCURVE",
"353 27 OFFCURVE",
"353 60 CURVE SMOOTH",
"353 337 OFFCURVE",
"610 692 OFFCURVE",
"601 870 CURVE SMOOTH",
"597 948 OFFCURVE",
"546 967 OFFCURVE",
"471 967 CURVE SMOOTH",
"380 967 OFFCURVE",
"278 939 OFFCURVE",
"185 882 CURVE",
"209 838 OFFCURVE",
"214 793 OFFCURVE",
"214 755 CURVE SMOOTH",
"214 470 OFFCURVE",
"13 266 OFFCURVE",
"10 32 CURVE SMOOTH",
"9 -59 OFFCURVE",
"72 -108 OFFCURVE",
"158 -108 CURVE SMOOTH"
);
},
{
closed = 1;
nodes = (
"778 -108 OFFCURVE",
"852 -68 OFFCURVE",
"919 -20 CURVE",
"912 3 OFFCURVE",
"908 27 OFFCURVE",
"908 60 CURVE SMOOTH",
"908 347 OFFCURVE",
"1165 692 OFFCURVE",
"1156 870 CURVE SMOOTH",
"1152 948 OFFCURVE",
"1101 967 OFFCURVE",
"1026 967 CURVE SMOOTH",
"938 967 OFFCURVE",
"836 939 OFFCURVE",
"740 882 CURVE",
"764 838 OFFCURVE",
"769 793 OFFCURVE",
"769 755 CURVE SMOOTH",
"769 480 OFFCURVE",
"568 266 OFFCURVE",
"565 32 CURVE SMOOTH",
"564 -59 OFFCURVE",
"623 -108 OFFCURVE",
"703 -108 CURVE SMOOTH"
);
},
{
closed = 1;
nodes = (
"371 596 LINE",
"565 32 LINE",
"744 311 LINE",
"601 870 LINE"
);
}
);
width = 1040;
},
{
associatedMasterId = "BE599D47-15C2-4DC8-BE97-05FFE6CA3179";
background = {
paths = (
{
closed = 1;
nodes = (
"226 -108 OFFCURVE",
"287 -68 OFFCURVE",
"354 -20 CURVE",
"347 3 OFFCURVE",
"343 27 OFFCURVE",
"343 60 CURVE SMOOTH",
"343 337 OFFCURVE",
"600 692 OFFCURVE",
"591 870 CURVE SMOOTH",
"587 948 OFFCURVE",
"536 967 OFFCURVE",
"461 967 CURVE SMOOTH",
"373 967 OFFCURVE",
"275 939 OFFCURVE",
"185 882 CURVE",
"209 838 OFFCURVE",
"214 793 OFFCURVE",
"214 755 CURVE SMOOTH",
"214 470 OFFCURVE",
"13 266 OFFCURVE",
"10 32 CURVE SMOOTH",
"9 -59 OFFCURVE",
"72 -108 OFFCURVE",
"158 -108 CURVE SMOOTH"
);
},
{
closed = 1;
nodes = (
"778 -108 OFFCURVE",
"852 -68 OFFCURVE",
"919 -20 CURVE",
"912 3 OFFCURVE",
"908 27 OFFCURVE",
"908 60 CURVE SMOOTH",
"908 347 OFFCURVE",
"1165 692 OFFCURVE",
"1156 870 CURVE SMOOTH",
"1152 948 OFFCURVE",
"1101 967 OFFCURVE",
"1026 967 CURVE SMOOTH",
"941 967 OFFCURVE",
"843 939 OFFCURVE",
"750 882 CURVE",
"774 838 OFFCURVE",
"779 793 OFFCURVE",
"779 755 CURVE SMOOTH",
"779 480 OFFCURVE",
"578 266 OFFCURVE",
"575 32 CURVE SMOOTH",
"574 -59 OFFCURVE",
"629 -108 OFFCURVE",
"703 -108 CURVE SMOOTH"
);
},
{
closed = 1;
nodes = (
"361 596 LINE",
"575 32 LINE",
"754 311 LINE",
"591 870 LINE"
);
}
);
};
layerId = "F230F2D8-5ECE-4696-B755-9E0991E97455";
name = "Regular Italic Apr 1 16, 00:51";
paths = (
{
closed = 1;
nodes = (
"226 -108 OFFCURVE",
"287 -68 OFFCURVE",
"354 -20 CURVE",
"347 3 OFFCURVE",
"343 27 OFFCURVE",
"343 60 CURVE SMOOTH",
"343 337 OFFCURVE",
"600 692 OFFCURVE",
"591 870 CURVE SMOOTH",
"587 948 OFFCURVE",
"536 967 OFFCURVE",
"461 967 CURVE SMOOTH",
"373 967 OFFCURVE",
"275 939 OFFCURVE",
"185 882 CURVE",
"209 838 OFFCURVE",
"214 793 OFFCURVE",
"214 755 CURVE SMOOTH",
"214 470 OFFCURVE",
"13 266 OFFCURVE",
"10 32 CURVE SMOOTH",
"9 -59 OFFCURVE",
"72 -108 OFFCURVE",
"158 -108 CURVE SMOOTH"
);
},
{
closed = 1;
nodes = (
"778 -108 OFFCURVE",
"852 -68 OFFCURVE",
"919 -20 CURVE",
"912 3 OFFCURVE",
"908 27 OFFCURVE",
"908 60 CURVE SMOOTH",
"908 347 OFFCURVE",
"1165 692 OFFCURVE",
"1156 870 CURVE SMOOTH",
"1152 948 OFFCURVE",
"1101 967 OFFCURVE",
"1026 967 CURVE SMOOTH",
"941 967 OFFCURVE",
"843 939 OFFCURVE",
"750 882 CURVE",
"774 838 OFFCURVE",
"779 793 OFFCURVE",
"779 755 CURVE SMOOTH",
"779 480 OFFCURVE",
"578 266 OFFCURVE",
"575 32 CURVE SMOOTH",
"574 -59 OFFCURVE",
"629 -108 OFFCURVE",
"703 -108 CURVE SMOOTH"
);
},
{
closed = 1;
nodes = (
"371 616 LINE",
"575 32 LINE",
"773 321 LINE",
"591 870 LINE"
);
}
);
width = 1040;
}
);
unicode = 004E;
},
{
glyphname = O;
lastChange = "2016-04-02 06:13:40 +0000";
layers = (
{
background = {
paths = (
{
closed = 1;
nodes = (
"443 160 OFFCURVE",
"432 185 OFFCURVE",
"432 237 CURVE SMOOTH",
"432 413 OFFCURVE",
"561 722 OFFCURVE",
"645 722 CURVE SMOOTH",
"669 722 OFFCURVE",
"675 697 OFFCURVE",
"675 652 CURVE SMOOTH",
"675 460 OFFCURVE",
"550 160 OFFCURVE",
"467 160 CURVE SMOOTH"
);
},
{
closed = 1;
nodes = (
"24 35 OFFCURVE",
"211 -75 OFFCURVE",
"404 -81 CURVE SMOOTH",
"766 -92 OFFCURVE",
"1041 238 OFFCURVE",
"1054 618 CURVE SMOOTH",
"1063 875 OFFCURVE",
"876 967 OFFCURVE",
"700 973 CURVE SMOOTH",
"332 986 OFFCURVE",
"47 671 OFFCURVE",
"34 317 CURVE SMOOTH"
);
}
);
};
layerId = "BE599D47-15C2-4DC8-BE97-05FFE6CA3179";
paths = (
{
closed = 1;
nodes = (
"443 220 OFFCURVE",
"432 245 OFFCURVE",
"432 297 CURVE SMOOTH",
"432 473 OFFCURVE",
"561 782 OFFCURVE",
"645 782 CURVE SMOOTH",
"669 782 OFFCURVE",
"675 757 OFFCURVE",
"675 712 CURVE SMOOTH",
"675 520 OFFCURVE",
"550 220 OFFCURVE",
"467 220 CURVE SMOOTH"
);
},
{
closed = 1;
nodes = (
"23 84 OFFCURVE",
"225 -21 OFFCURVE",
"425 -21 CURVE SMOOTH",
"776 -21 OFFCURVE",
"1041 305 OFFCURVE",
"1054 678 CURVE SMOOTH",
"1063 946 OFFCURVE",
"860 1033 OFFCURVE",
"678 1033 CURVE SMOOTH",
"321 1033 OFFCURVE",
"47 724 OFFCURVE",
"34 377 CURVE SMOOTH"
);
}
);
width = 985;
},
{
associatedMasterId = "BE599D47-15C2-4DC8-BE97-05FFE6CA3179";
layerId = "99127A64-36F0-4EBD-BD71-E4CCDD784759";
name = "Regular Italic Mar 24 16, 01:55";
paths = (
{
closed = 1;
nodes = (
"13 -4 OFFCURVE",
"159 -80 OFFCURVE",
"340 -80 CURVE SMOOTH",
"630 -80 OFFCURVE",
"832 117 OFFCURVE",
"832 352 CURVE SMOOTH",
"832 551 OFFCURVE",
"686 627 OFFCURVE",
"505 627 CURVE SMOOTH",
"215 627 OFFCURVE",
"13 430 OFFCURVE",
"13 196 CURVE SMOOTH"
);
},
{
closed = 1;
nodes = (
"335 90 OFFCURVE",
"326 108 OFFCURVE",
"326 145 CURVE SMOOTH",
"326 262 OFFCURVE",
"425 470 OFFCURVE",
"495 470 CURVE SMOOTH",
"515 470 OFFCURVE",
"520 453 OFFCURVE",
"520 424 CURVE SMOOTH",
"520 293 OFFCURVE",
"422 90 OFFCURVE",
"355 90 CURVE SMOOTH"
);
}
);
width = 990;
},
{
associatedMasterId = "BE599D47-15C2-4DC8-BE97-05FFE6CA3179";
layerId = "EE8527E5-F617-4280-93FC-9474E75AD7BC";
name = "Regular Italic Mar 24 16, 02:03";
paths = (
{
closed = 1;
nodes = (
"483 170 OFFCURVE",
"472 195 OFFCURVE",
"472 247 CURVE SMOOTH",
"472 423 OFFCURVE",
"601 732 OFFCURVE",
"685 732 CURVE SMOOTH",
"709 732 OFFCURVE",
"715 707 OFFCURVE",
"715 662 CURVE SMOOTH",
"715 470 OFFCURVE",
"590 170 OFFCURVE",
"507 170 CURVE SMOOTH"
);
},
{
closed = 1;
nodes = (
"79 32 OFFCURVE",
"275 -76 OFFCURVE",
"482 -76 CURVE SMOOTH",
"835 -76 OFFCURVE",
"1085 237 OFFCURVE",
"1085 588 CURVE SMOOTH",
"1085 890 OFFCURVE",
"901 988 OFFCURVE",
"702 988 CURVE SMOOTH",
"350 988 OFFCURVE",
"79 675 OFFCURVE",
"79 329 CURVE SMOOTH"
);
}
);
width = 1062;
},
{
associatedMasterId = "BE599D47-15C2-4DC8-BE97-05FFE6CA3179";
background = {
paths = (
{
closed = 1;
nodes = (
"483 170 OFFCURVE",
"472 195 OFFCURVE",
"472 247 CURVE SMOOTH",
"472 423 OFFCURVE",
"601 732 OFFCURVE",
"685 732 CURVE SMOOTH",
"709 732 OFFCURVE",
"715 707 OFFCURVE",
"715 662 CURVE SMOOTH",
"715 470 OFFCURVE",
"590 170 OFFCURVE",
"507 170 CURVE SMOOTH"
);
},
{
closed = 1;
nodes = (
"70 32 OFFCURVE",
"265 -76 OFFCURVE",
"462 -76 CURVE SMOOTH",
"827 -76 OFFCURVE",
"1050 239 OFFCURVE",
"1085 588 CURVE SMOOTH",
"1115 890 OFFCURVE",
"911 988 OFFCURVE",
"722 988 CURVE SMOOTH",
"359 988 OFFCURVE",
"89 675 OFFCURVE",
"79 329 CURVE SMOOTH"
);
}
);
};
layerId = "65C6D169-50D5-47C4-BE53-1FA551490203";
name = "Regular Italic Mar 24 16, 02:05";
paths = (
{
closed = 1;
nodes = (
"483 170 OFFCURVE",
"472 195 OFFCURVE",
"472 247 CURVE SMOOTH",
"472 423 OFFCURVE",
"601 732 OFFCURVE",
"685 732 CURVE SMOOTH",
"709 732 OFFCURVE",
"715 707 OFFCURVE",
"715 662 CURVE SMOOTH",
"715 470 OFFCURVE",
"590 170 OFFCURVE",
"507 170 CURVE SMOOTH"
);
},
{
closed = 1;
nodes = (
"79 27 OFFCURVE",
"269 -76 OFFCURVE",
"462 -76 CURVE SMOOTH",
"825 -76 OFFCURVE",
"1088 265 OFFCURVE",
"1088 646 CURVE SMOOTH",
"1088 903 OFFCURVE",
"898 988 OFFCURVE",
"722 988 CURVE SMOOTH",
"353 988 OFFCURVE",
"79 664 OFFCURVE",
"79 309 CURVE SMOOTH"
);
}
);
width = 1062;
}
);
unicode = 004F;
},
{
glyphname = P;
lastChange = "2016-04-02 06:13:40 +0000";
layers = (
{
background = {
paths = (
{
closed = 1;
nodes = (
"440 413 OFFCURVE",
"391 424 OFFCURVE",
"307 441 CURVE",
"399 342 LINE",
"415 389 OFFCURVE",
"550 700 OFFCURVE",
"580 754 CURVE",
"454 700 LINE",
"523 721 OFFCURVE",
"561 723 OFFCURVE",
"575 723 CURVE SMOOTH",
"636 723 OFFCURVE",
"673 697 OFFCURVE",
"671 633 CURVE SMOOTH",
"669 555 OFFCURVE",
"625 438 OFFCURVE",
"506 422 CURVE SMOOTH"
);
},
{
closed = 1;
nodes = (
"208 506 OFFCURVE",
"9 246 OFFCURVE",
"9 68 CURVE SMOOTH",
"9 -29 OFFCURVE",
"67 -78 OFFCURVE",
"160 -78 CURVE SMOOTH",
"240 -78 OFFCURVE",
"318 -41 OFFCURVE",
"374 10 CURVE",
"355 44 OFFCURVE",
"344 80 OFFCURVE",
"344 128 CURVE SMOOTH",
"344 170 OFFCURVE",
"364 242 OFFCURVE",
"376 287 CURVE",
"238 245 LINE",
"296 217 OFFCURVE",
"373 203 OFFCURVE",
"457 203 CURVE SMOOTH",
"806 203 OFFCURVE",
"961 373 OFFCURVE",
"1002 597 CURVE SMOOTH",
"1042 817 OFFCURVE",
"887 967 OFFCURVE",
"621 967 CURVE SMOOTH",
"352 967 LINE SMOOTH",
"253 967 OFFCURVE",
"171 952 OFFCURVE",
"122 748 CURVE",
"191 748 OFFCURVE",
"208 738 OFFCURVE",
"208 684 CURVE"
);
}
);
};
layerId = "BE599D47-15C2-4DC8-BE97-05FFE6CA3179";
paths = (
{
closed = 1;
nodes = (
"595 481 OFFCURVE",
"460 481 CURVE SMOOTH",
"414 481 OFFCURVE",
"370 490 OFFCURVE",
"307 503 CURVE",
"399 404 LINE",
"415 451 OFFCURVE",
"550 762 OFFCURVE",
"580 816 CURVE",
"454 762 LINE",
"523 783 OFFCURVE",
"561 785 OFFCURVE",
"575 785 CURVE SMOOTH",
"634 785 OFFCURVE",
"671 760 OFFCURVE",
"671 700 CURVE SMOOTH",
"671 574 OFFCURVE"
);
},
{
closed = 1;
nodes = (
"208 568 OFFCURVE",
"9 308 OFFCURVE",
"9 130 CURVE SMOOTH",
"9 33 OFFCURVE",
"67 -16 OFFCURVE",
"160 -16 CURVE SMOOTH",
"240 -16 OFFCURVE",
"318 21 OFFCURVE",
"374 72 CURVE",
"355 106 OFFCURVE",
"344 142 OFFCURVE",
"344 190 CURVE SMOOTH",
"344 232 OFFCURVE",
"364 304 OFFCURVE",
"376 349 CURVE",
"238 307 LINE",
"296 279 OFFCURVE",
"373 265 OFFCURVE",
"457 265 CURVE SMOOTH",
"777 265 OFFCURVE",
"1008 433 OFFCURVE",
"1008 726 CURVE SMOOTH",
"1008 909 OFFCURVE",
"859 1029 OFFCURVE",
"621 1029 CURVE SMOOTH",
"352 1029 LINE SMOOTH",
"253 1029 OFFCURVE",
"171 1014 OFFCURVE",
"122 810 CURVE",
"191 810 OFFCURVE",
"208 800 OFFCURVE",
"208 746 CURVE"
);
}
);
width = 908;
},
{
associatedMasterId = "BE599D47-15C2-4DC8-BE97-05FFE6CA3179";
background = {
paths = (
{
closed = 1;
nodes = (
"747 -79 OFFCURVE",
"1026 239 OFFCURVE",
"1026 579 CURVE SMOOTH",
"1026 824 OFFCURVE",
"885 967 OFFCURVE",
"620 967 CURVE SMOOTH",
"351 967 LINE SMOOTH",
"252 967 OFFCURVE",
"170 952 OFFCURVE",
"121 748 CURVE",
"190 748 OFFCURVE",
"207 738 OFFCURVE",
"207 684 CURVE SMOOTH",
"207 505 OFFCURVE",
"17 258 OFFCURVE",
"17 111 CURVE SMOOTH",
"17 -19 OFFCURVE",
"163 -79 OFFCURVE",
"339 -79 CURVE SMOOTH"
);
},
{
closed = 1;
nodes = (
"386 176 OFFCURVE",
"359 186 OFFCURVE",
"359 213 CURVE SMOOTH",
"359 281 OFFCURVE",
"530 646 OFFCURVE",
"580 740 CURVE",
"455 685 LINE",
"524 706 OFFCURVE",
"562 708 OFFCURVE",
"576 708 CURVE SMOOTH",
"636 708 OFFCURVE",
"670 672 OFFCURVE",
"670 584 CURVE SMOOTH",
"670 419 OFFCURVE",
"551 176 OFFCURVE",
"414 176 CURVE SMOOTH"
);
}
);
};
layerId = "8B01F2BE-8006-4B7C-B261-D8CA120AD9AE";
name = "Regular Italic Mar 25 16, 23:36";
paths = (
{
closed = 1;
nodes = (
"439 413 OFFCURVE",
"390 424 OFFCURVE",
"306 441 CURVE",
"398 342 LINE",
"414 389 OFFCURVE",
"549 700 OFFCURVE",
"579 754 CURVE",
"453 700 LINE",
"522 721 OFFCURVE",
"560 723 OFFCURVE",
"574 723 CURVE SMOOTH",
"635 723 OFFCURVE",
"672 697 OFFCURVE",
"670 633 CURVE SMOOTH",
"668 555 OFFCURVE",
"624 438 OFFCURVE",
"505 422 CURVE SMOOTH"
);
},
{
closed = 1;
nodes = (
"207 506 OFFCURVE",
"8 246 OFFCURVE",
"8 68 CURVE SMOOTH",
"8 -29 OFFCURVE",
"66 -78 OFFCURVE",
"159 -78 CURVE SMOOTH",
"239 -78 OFFCURVE",
"317 -41 OFFCURVE",
"373 10 CURVE",
"354 44 OFFCURVE",
"343 80 OFFCURVE",
"343 128 CURVE SMOOTH",
"343 170 OFFCURVE",
"363 242 OFFCURVE",
"375 287 CURVE",
"237 245 LINE",
"295 217 OFFCURVE",
"372 203 OFFCURVE",
"456 203 CURVE SMOOTH",
"805 203 OFFCURVE",
"960 373 OFFCURVE",
"1001 597 CURVE SMOOTH",
"1041 817 OFFCURVE",
"886 967 OFFCURVE",
"620 967 CURVE SMOOTH",
"351 967 LINE SMOOTH",
"252 967 OFFCURVE",
"170 952 OFFCURVE",
"121 748 CURVE",
"190 748 OFFCURVE",
"207 738 OFFCURVE",
"207 684 CURVE"
);
}
);
width = 1040;
},
{
associatedMasterId = "BE599D47-15C2-4DC8-BE97-05FFE6CA3179";
background = {
paths = (
{
closed = 1;
nodes = (
"747 -79 OFFCURVE",
"1026 239 OFFCURVE",
"1026 579 CURVE SMOOTH",
"1026 824 OFFCURVE",
"885 967 OFFCURVE",
"620 967 CURVE SMOOTH",
"351 967 LINE SMOOTH",
"252 967 OFFCURVE",
"170 952 OFFCURVE",
"121 748 CURVE",
"190 748 OFFCURVE",
"207 738 OFFCURVE",
"207 684 CURVE SMOOTH",
"207 505 OFFCURVE",
"17 258 OFFCURVE",
"17 111 CURVE SMOOTH",
"17 -19 OFFCURVE",
"163 -79 OFFCURVE",
"339 -79 CURVE SMOOTH"
);
},
{
closed = 1;
nodes = (
"386 176 OFFCURVE",
"359 186 OFFCURVE",
"359 213 CURVE SMOOTH",
"359 281 OFFCURVE",
"530 646 OFFCURVE",
"580 740 CURVE",
"455 685 LINE",
"524 706 OFFCURVE",
"562 708 OFFCURVE",
"576 708 CURVE SMOOTH",
"636 708 OFFCURVE",
"670 672 OFFCURVE",
"670 584 CURVE SMOOTH",
"670 419 OFFCURVE",
"551 176 OFFCURVE",
"414 176 CURVE SMOOTH"
);
}
);
};
layerId = "80881496-AD5B-4548-82AC-F61A5042D1A1";
name = "Regular Italic Mar 25 16, 23:44";
paths = (
{
closed = 1;
nodes = (
"439 413 OFFCURVE",
"390 424 OFFCURVE",
"306 441 CURVE",
"398 342 LINE",
"414 389 OFFCURVE",
"549 700 OFFCURVE",
"579 754 CURVE",
"453 700 LINE",
"522 721 OFFCURVE",
"560 723 OFFCURVE",
"574 723 CURVE SMOOTH",
"635 723 OFFCURVE",
"672 697 OFFCURVE",
"670 633 CURVE SMOOTH",
"668 555 OFFCURVE",
"624 438 OFFCURVE",
"505 422 CURVE SMOOTH"
);
},
{
closed = 1;
nodes = (
"207 506 OFFCURVE",
"8 246 OFFCURVE",
"8 68 CURVE SMOOTH",
"8 -29 OFFCURVE",
"66 -78 OFFCURVE",
"159 -78 CURVE SMOOTH",
"239 -78 OFFCURVE",
"317 -41 OFFCURVE",
"373 10 CURVE",
"354 44 OFFCURVE",
"343 80 OFFCURVE",
"343 128 CURVE SMOOTH",
"343 170 OFFCURVE",
"363 242 OFFCURVE",
"375 287 CURVE",
"237 245 LINE",
"295 217 OFFCURVE",
"372 203 OFFCURVE",
"456 203 CURVE SMOOTH",
"805 203 OFFCURVE",
"960 373 OFFCURVE",
"1001 597 CURVE SMOOTH",
"1041 817 OFFCURVE",
"886 967 OFFCURVE",
"620 967 CURVE SMOOTH",
"351 967 LINE SMOOTH",
"252 967 OFFCURVE",
"170 952 OFFCURVE",
"121 748 CURVE",
"190 748 OFFCURVE",
"207 738 OFFCURVE",
"207 684 CURVE"
);
}
);
width = 925;
}
);
unicode = 0050;
},
{
glyphname = Q;
lastChange = "2016-04-03 01:55:00 +0000";
layers = (
{
background = {
paths = (
{
closed = 1;
nodes = (
"534 -339 OFFCURVE",
"695 -339 CURVE SMOOTH",
"797 -339 OFFCURVE",
"868 -286 OFFCURVE",
"924 -130 CURVE",
"894 -136 OFFCURVE",
"866 -139 OFFCURVE",
"839 -139 CURVE SMOOTH",
"665 -139 OFFCURVE",
"450 -50 OFFCURVE",
"375 -50 CURVE SMOOTH",
"230 -50 OFFCURVE",
"131 -99 OFFCURVE",
"131 -219 CURVE",
"142 -218 OFFCURVE",
"153 -218 OFFCURVE",
"164 -218 CURVE SMOOTH",
"337 -218 OFFCURVE"
);
},
{
closed = 1;
nodes = (
"442 158 OFFCURVE",
"431 183 OFFCURVE",
"431 235 CURVE SMOOTH",
"431 411 OFFCURVE",
"560 720 OFFCURVE",
"644 720 CURVE SMOOTH",
"668 720 OFFCURVE",
"674 695 OFFCURVE",
"674 650 CURVE SMOOTH",
"674 458 OFFCURVE",
"549 158 OFFCURVE",
"466 158 CURVE SMOOTH"
);
},
{
closed = 1;
nodes = (
"22 22 OFFCURVE",
"224 -83 OFFCURVE",
"424 -83 CURVE SMOOTH",
"775 -83 OFFCURVE",
"1040 243 OFFCURVE",
"1053 616 CURVE SMOOTH",
"1062 884 OFFCURVE",
"859 971 OFFCURVE",
"677 971 CURVE SMOOTH",
"320 971 OFFCURVE",
"46 662 OFFCURVE",
"33 315 CURVE SMOOTH"
);
}
);
};
layerId = "BE599D47-15C2-4DC8-BE97-05FFE6CA3179";
paths = (
{
closed = 1;
nodes = (
"534 -307 OFFCURVE",
"695 -307 CURVE SMOOTH",
"797 -307 OFFCURVE",
"868 -231 OFFCURVE",
"924 -68 CURVE",
"894 -74 OFFCURVE",
"866 -77 OFFCURVE",
"839 -77 CURVE SMOOTH",
"665 -77 OFFCURVE",
"450 12 OFFCURVE",
"375 12 CURVE SMOOTH",
"230 12 OFFCURVE",
"131 -19 OFFCURVE",
"131 -187 CURVE",
"142 -186 OFFCURVE",
"153 -186 OFFCURVE",
"164 -186 CURVE SMOOTH",
"337 -186 OFFCURVE"
);
},
{
closed = 1;
nodes = (
"442 220 OFFCURVE",
"431 245 OFFCURVE",
"431 297 CURVE SMOOTH",
"431 473 OFFCURVE",
"560 782 OFFCURVE",
"644 782 CURVE SMOOTH",
"668 782 OFFCURVE",
"674 757 OFFCURVE",
"674 712 CURVE SMOOTH",
"674 520 OFFCURVE",
"549 220 OFFCURVE",
"466 220 CURVE SMOOTH"
);
},
{
closed = 1;
nodes = (
"22 84 OFFCURVE",
"224 -21 OFFCURVE",
"424 -21 CURVE SMOOTH",
"775 -21 OFFCURVE",
"1040 305 OFFCURVE",
"1053 678 CURVE SMOOTH",
"1062 946 OFFCURVE",
"859 1033 OFFCURVE",
"677 1033 CURVE SMOOTH",
"320 1033 OFFCURVE",
"46 724 OFFCURVE",
"33 377 CURVE SMOOTH"
);
}
);
width = 982;
},
{
associatedMasterId = "BE599D47-15C2-4DC8-BE97-05FFE6CA3179";
layerId = "9FE25CE0-8305-4FC9-BE72-D53589CB2B38";
name = "Regular Italic Mar 25 16, 02:37";
paths = (
{
closed = 1;
nodes = (
"575 -339 OFFCURVE",
"736 -339 CURVE SMOOTH",
"838 -339 OFFCURVE",
"909 -286 OFFCURVE",
"965 -130 CURVE",
"935 -136 OFFCURVE",
"907 -139 OFFCURVE",
"880 -139 CURVE SMOOTH",
"706 -139 OFFCURVE",
"491 -50 OFFCURVE",
"416 -50 CURVE SMOOTH",
"271 -50 OFFCURVE",
"172 -99 OFFCURVE",
"172 -219 CURVE",
"183 -218 OFFCURVE",
"194 -218 OFFCURVE",
"205 -218 CURVE SMOOTH",
"378 -218 OFFCURVE"
);
},
{
closed = 1;
nodes = (
"483 158 OFFCURVE",
"472 183 OFFCURVE",
"472 235 CURVE SMOOTH",
"472 411 OFFCURVE",
"601 720 OFFCURVE",
"685 720 CURVE SMOOTH",
"709 720 OFFCURVE",
"715 695 OFFCURVE",
"715 650 CURVE SMOOTH",
"715 458 OFFCURVE",
"590 158 OFFCURVE",
"507 158 CURVE SMOOTH"
);
},
{
closed = 1;
nodes = (
"63 22 OFFCURVE",
"265 -83 OFFCURVE",
"465 -83 CURVE SMOOTH",
"816 -83 OFFCURVE",
"1081 243 OFFCURVE",
"1094 616 CURVE SMOOTH",
"1103 884 OFFCURVE",
"900 971 OFFCURVE",
"718 971 CURVE SMOOTH",
"361 971 OFFCURVE",
"87 662 OFFCURVE",
"74 315 CURVE SMOOTH"
);
}
);
width = 1062;
}
);
unicode = 0051;
},
{
glyphname = R;
lastChange = "2016-04-02 06:13:40 +0000";
layers = (
{
background = {
paths = (
{
closed = 1;
nodes = (
"439 463 OFFCURVE",
"390 474 OFFCURVE",
"306 491 CURVE",
"398 392 LINE",
"414 433 OFFCURVE",
"549 707 OFFCURVE",
"579 754 CURVE",
"453 700 LINE",
"522 721 OFFCURVE",
"560 723 OFFCURVE",
"574 723 CURVE SMOOTH",
"635 723 OFFCURVE",
"672 697 OFFCURVE",
"670 633 CURVE SMOOTH",
"668 573 OFFCURVE",
"624 484 OFFCURVE",
"505 472 CURVE SMOOTH"
);
},
{
closed = 1;
nodes = (
"207 506 OFFCURVE",
"8 246 OFFCURVE",
"8 68 CURVE SMOOTH",
"8 -29 OFFCURVE",
"66 -78 OFFCURVE",
"159 -78 CURVE SMOOTH",
"239 -78 OFFCURVE",
"317 -41 OFFCURVE",
"373 10 CURVE",
"354 44 OFFCURVE",
"343 80 OFFCURVE",
"343 128 CURVE SMOOTH",
"343 183 OFFCURVE",
"363 278 OFFCURVE",
"375 337 CURVE",
"237 295 LINE",
"295 267 OFFCURVE",
"372 253 OFFCURVE",
"456 253 CURVE SMOOTH",
"805 253 OFFCURVE",
"960 401 OFFCURVE",
"1001 597 CURVE SMOOTH",
"1041 817 OFFCURVE",
"886 967 OFFCURVE",
"620 967 CURVE SMOOTH",
"351 967 LINE SMOOTH",
"252 967 OFFCURVE",
"170 952 OFFCURVE",
"121 748 CURVE",
"190 748 OFFCURVE",
"207 738 OFFCURVE",
"207 684 CURVE"
);
},
{
closed = 1;
nodes = (
"382 378 LINE",
"442 139 OFFCURVE",
"548 -98 OFFCURVE",
"661 -98 CURVE SMOOTH",
"760 -98 OFFCURVE",
"825 -17 OFFCURVE",
"880 93 CURVE",
"768 123 OFFCURVE",
"725 192 OFFCURVE",
"607 446 CURVE"
);
}
);
};
layerId = "BE599D47-15C2-4DC8-BE97-05FFE6CA3179";
paths = (
{
closed = 1;
nodes = (
"586 531 OFFCURVE",
"459 531 CURVE SMOOTH",
"423 531 OFFCURVE",
"393 535 OFFCURVE",
"306 553 CURVE",
"398 454 LINE",
"418 504 OFFCURVE",
"554 776 OFFCURVE",
"579 816 CURVE",
"453 762 LINE",
"499 776 OFFCURVE",
"546 785 OFFCURVE",
"574 785 CURVE SMOOTH",
"637 785 OFFCURVE",
"670 756 OFFCURVE",
"670 700 CURVE SMOOTH",
"670 599 OFFCURVE"
);
},
{
closed = 1;
nodes = (
"207 568 OFFCURVE",
"8 308 OFFCURVE",
"8 130 CURVE SMOOTH",
"8 33 OFFCURVE",
"66 -16 OFFCURVE",
"159 -16 CURVE SMOOTH",
"239 -16 OFFCURVE",
"317 21 OFFCURVE",
"373 72 CURVE",
"354 106 OFFCURVE",
"343 142 OFFCURVE",
"343 190 CURVE SMOOTH",
"343 245 OFFCURVE",
"363 340 OFFCURVE",
"375 399 CURVE",
"237 357 LINE",
"295 329 OFFCURVE",
"372 315 OFFCURVE",
"456 315 CURVE SMOOTH",
"767 315 OFFCURVE",
"1007 466 OFFCURVE",
"1007 740 CURVE SMOOTH",
"1007 907 OFFCURVE",
"858 1029 OFFCURVE",
"620 1029 CURVE SMOOTH",
"351 1029 LINE SMOOTH",
"252 1029 OFFCURVE",
"170 1014 OFFCURVE",
"121 810 CURVE",
"190 810 OFFCURVE",
"207 800 OFFCURVE",
"207 746 CURVE"
);
},
{
closed = 1;
nodes = (
"382 440 LINE",
"442 201 OFFCURVE",
"548 -36 OFFCURVE",
"661 -36 CURVE SMOOTH",
"760 -36 OFFCURVE",
"825 45 OFFCURVE",
"880 155 CURVE",
"768 185 OFFCURVE",
"725 254 OFFCURVE",
"607 508 CURVE"
);
}
);
width = 925;
},
{
associatedMasterId = "BE599D47-15C2-4DC8-BE97-05FFE6CA3179";
background = {
paths = (
{
closed = 1;
nodes = (
"77 -36 OFFCURVE",
"142 -89 OFFCURVE",
"206 -87 CURVE SMOOTH",
"269 -85 OFFCURVE",
"345 -21 OFFCURVE",
"435 69 CURVE",
"475 1 OFFCURVE",
"514 -83 OFFCURVE",
"578 -81 CURVE SMOOTH",
"681 -78 OFFCURVE",
"750 0 OFFCURVE",
"807 110 CURVE",
"736 128 OFFCURVE",
"684 188 OFFCURVE",
"653 256 CURVE",
"761 340 OFFCURVE",
"841 438 OFFCURVE",
"840 519 CURVE SMOOTH",
"839 577 OFFCURVE",
"776 630 OFFCURVE",
"652 642 CURVE",
"647 584 OFFCURVE",
"609 525 OFFCURVE",
"550 461 CURVE",
"505 583 OFFCURVE",
"460 627 OFFCURVE",
"322 622 CURVE SMOOTH",
"261 620 OFFCURVE",
"189 583 OFFCURVE",
"147 544 CURVE",
"210 482 OFFCURVE",
"259 398 OFFCURVE",
"317 265 CURVE",
"231 201 OFFCURVE",
"143 129 OFFCURVE",
"58 101 CURVE"
);
}
);
};
layerId = "78BC9198-40C6-4CB7-89EA-647C92FB6CB8";
name = "Regular Italic Mar 25 16, 23:41";
paths = (
{
closed = 1;
nodes = (
"439 413 OFFCURVE",
"390 424 OFFCURVE",
"306 441 CURVE",
"398 342 LINE",
"414 389 OFFCURVE",
"549 700 OFFCURVE",
"579 754 CURVE",
"453 700 LINE",
"522 721 OFFCURVE",
"560 723 OFFCURVE",
"574 723 CURVE SMOOTH",
"635 723 OFFCURVE",
"672 697 OFFCURVE",
"670 633 CURVE SMOOTH",
"668 555 OFFCURVE",
"624 438 OFFCURVE",
"505 422 CURVE SMOOTH"
);
},
{
closed = 1;
nodes = (
"207 506 OFFCURVE",
"8 246 OFFCURVE",
"8 68 CURVE SMOOTH",
"8 -29 OFFCURVE",
"66 -78 OFFCURVE",
"159 -78 CURVE SMOOTH",
"239 -78 OFFCURVE",
"317 -41 OFFCURVE",
"373 10 CURVE",
"354 44 OFFCURVE",
"343 80 OFFCURVE",
"343 128 CURVE SMOOTH",
"343 170 OFFCURVE",
"363 242 OFFCURVE",
"375 287 CURVE",
"237 245 LINE",
"295 217 OFFCURVE",
"372 203 OFFCURVE",
"456 203 CURVE SMOOTH",
"805 203 OFFCURVE",
"960 373 OFFCURVE",
"1001 597 CURVE SMOOTH",
"1041 817 OFFCURVE",
"886 967 OFFCURVE",
"620 967 CURVE SMOOTH",
"351 967 LINE SMOOTH",
"252 967 OFFCURVE",
"170 952 OFFCURVE",
"121 748 CURVE",
"190 748 OFFCURVE",
"207 738 OFFCURVE",
"207 684 CURVE"
);
},
{
closed = 1;
nodes = (
"352 308 LINE",
"358 295 OFFCURVE",
"364 282 OFFCURVE",
"370 268 CURVE",
"488 72 LINE",
"528 4 OFFCURVE",
"567 -78 OFFCURVE",
"631 -78 CURVE SMOOTH",
"734 -78 OFFCURVE",
"803 3 OFFCURVE",
"860 113 CURVE",
"789 131 OFFCURVE",
"737 191 OFFCURVE",
"706 259 CURVE",
"647 376 LINE"
);
}
);
width = 925;
},
{
associatedMasterId = "BE599D47-15C2-4DC8-BE97-05FFE6CA3179";
background = {
paths = (
{
closed = 1;
nodes = (
"439 413 OFFCURVE",
"390 424 OFFCURVE",
"306 441 CURVE",
"398 342 LINE",
"414 389 OFFCURVE",
"549 700 OFFCURVE",
"579 754 CURVE",
"453 700 LINE",
"522 721 OFFCURVE",
"560 723 OFFCURVE",
"574 723 CURVE SMOOTH",
"635 723 OFFCURVE",
"672 697 OFFCURVE",
"670 633 CURVE SMOOTH",
"668 555 OFFCURVE",
"624 438 OFFCURVE",
"505 422 CURVE SMOOTH"
);
},
{
closed = 1;
nodes = (
"207 506 OFFCURVE",
"8 246 OFFCURVE",
"8 68 CURVE SMOOTH",
"8 -29 OFFCURVE",
"66 -78 OFFCURVE",
"159 -78 CURVE SMOOTH",
"239 -78 OFFCURVE",
"317 -41 OFFCURVE",
"373 10 CURVE",
"354 44 OFFCURVE",
"343 80 OFFCURVE",
"343 128 CURVE SMOOTH",
"343 170 OFFCURVE",
"363 242 OFFCURVE",
"375 287 CURVE",
"237 245 LINE",
"295 217 OFFCURVE",
"372 203 OFFCURVE",
"456 203 CURVE SMOOTH",
"805 203 OFFCURVE",
"960 373 OFFCURVE",
"1001 597 CURVE SMOOTH",
"1041 817 OFFCURVE",
"886 967 OFFCURVE",
"620 967 CURVE SMOOTH",
"351 967 LINE SMOOTH",
"252 967 OFFCURVE",
"170 952 OFFCURVE",
"121 748 CURVE",
"190 748 OFFCURVE",
"207 738 OFFCURVE",
"207 684 CURVE"
);
},
{
closed = 1;
nodes = (
"352 308 LINE",
"358 295 OFFCURVE",
"364 282 OFFCURVE",
"370 268 CURVE",
"488 72 LINE",
"528 4 OFFCURVE",
"567 -78 OFFCURVE",
"631 -78 CURVE SMOOTH",
"734 -78 OFFCURVE",
"803 3 OFFCURVE",
"860 113 CURVE",
"789 131 OFFCURVE",
"737 191 OFFCURVE",
"706 259 CURVE",
"647 376 LINE"
);
}
);
};
layerId = "D902065B-5AB6-48B9-9279-E29860DA9991";
name = "Regular Italic Mar 25 16, 23:41";
paths = (
{
closed = 1;
nodes = (
"439 413 OFFCURVE",
"390 424 OFFCURVE",
"306 441 CURVE",
"398 342 LINE",
"414 389 OFFCURVE",
"549 700 OFFCURVE",
"579 754 CURVE",
"453 700 LINE",
"522 721 OFFCURVE",
"560 723 OFFCURVE",
"574 723 CURVE SMOOTH",
"635 723 OFFCURVE",
"672 697 OFFCURVE",
"670 633 CURVE SMOOTH",
"668 555 OFFCURVE",
"624 438 OFFCURVE",
"505 422 CURVE SMOOTH"
);
},
{
closed = 1;
nodes = (
"207 506 OFFCURVE",
"8 246 OFFCURVE",
"8 68 CURVE SMOOTH",
"8 -29 OFFCURVE",
"66 -78 OFFCURVE",
"159 -78 CURVE SMOOTH",
"239 -78 OFFCURVE",
"317 -41 OFFCURVE",
"373 10 CURVE",
"354 44 OFFCURVE",
"343 80 OFFCURVE",
"343 128 CURVE SMOOTH",
"343 170 OFFCURVE",
"363 242 OFFCURVE",
"375 287 CURVE",
"237 245 LINE",
"295 217 OFFCURVE",
"372 203 OFFCURVE",
"456 203 CURVE SMOOTH",
"805 203 OFFCURVE",
"960 373 OFFCURVE",
"1001 597 CURVE SMOOTH",
"1041 817 OFFCURVE",
"886 967 OFFCURVE",
"620 967 CURVE SMOOTH",
"351 967 LINE SMOOTH",
"252 967 OFFCURVE",
"170 952 OFFCURVE",
"121 748 CURVE",
"190 748 OFFCURVE",
"207 738 OFFCURVE",
"207 684 CURVE"
);
},
{
closed = 1;
nodes = (
"352 308 LINE",
"358 295 OFFCURVE",
"364 282 OFFCURVE",
"370 268 CURVE",
"488 72 LINE",
"528 4 OFFCURVE",
"567 -78 OFFCURVE",
"631 -78 CURVE SMOOTH",
"734 -78 OFFCURVE",
"803 3 OFFCURVE",
"860 113 CURVE",
"789 131 OFFCURVE",
"737 191 OFFCURVE",
"706 259 CURVE",
"647 376 LINE"
);
}
);
width = 925;
},
{
associatedMasterId = "BE599D47-15C2-4DC8-BE97-05FFE6CA3179";
background = {
paths = (
{
closed = 1;
nodes = (
"439 413 OFFCURVE",
"390 424 OFFCURVE",
"306 441 CURVE",
"398 342 LINE",
"414 389 OFFCURVE",
"549 700 OFFCURVE",
"579 754 CURVE",
"453 700 LINE",
"522 721 OFFCURVE",
"560 723 OFFCURVE",
"574 723 CURVE SMOOTH",
"635 723 OFFCURVE",
"672 697 OFFCURVE",
"670 633 CURVE SMOOTH",
"668 555 OFFCURVE",
"624 438 OFFCURVE",
"505 422 CURVE SMOOTH"
);
},
{
closed = 1;
nodes = (
"207 506 OFFCURVE",
"8 246 OFFCURVE",
"8 68 CURVE SMOOTH",
"8 -29 OFFCURVE",
"66 -78 OFFCURVE",
"159 -78 CURVE SMOOTH",
"239 -78 OFFCURVE",
"317 -41 OFFCURVE",
"373 10 CURVE",
"354 44 OFFCURVE",
"343 80 OFFCURVE",
"343 128 CURVE SMOOTH",
"343 170 OFFCURVE",
"363 242 OFFCURVE",
"375 287 CURVE",
"237 245 LINE",
"295 217 OFFCURVE",
"372 203 OFFCURVE",
"456 203 CURVE SMOOTH",
"805 203 OFFCURVE",
"960 373 OFFCURVE",
"1001 597 CURVE SMOOTH",
"1041 817 OFFCURVE",
"886 967 OFFCURVE",
"620 967 CURVE SMOOTH",
"351 967 LINE SMOOTH",
"252 967 OFFCURVE",
"170 952 OFFCURVE",
"121 748 CURVE",
"190 748 OFFCURVE",
"207 738 OFFCURVE",
"207 684 CURVE"
);
},
{
closed = 1;
nodes = (
"352 308 LINE",
"358 295 OFFCURVE",
"364 282 OFFCURVE",
"370 268 CURVE",
"488 72 LINE",
"528 4 OFFCURVE",
"567 -78 OFFCURVE",
"631 -78 CURVE SMOOTH",
"734 -78 OFFCURVE",
"803 3 OFFCURVE",
"860 113 CURVE",
"789 131 OFFCURVE",
"737 191 OFFCURVE",
"706 259 CURVE",
"647 376 LINE"
);
}
);
};
layerId = "029954DD-C2EC-4520-BADB-211DFBBAF206";
name = "Regular Italic Mar 25 16, 23:43";
paths = (
{
closed = 1;
nodes = (
"439 463 OFFCURVE",
"390 474 OFFCURVE",
"306 491 CURVE",
"398 392 LINE",
"414 433 OFFCURVE",
"549 707 OFFCURVE",
"579 754 CURVE",
"453 700 LINE",
"522 721 OFFCURVE",
"560 723 OFFCURVE",
"574 723 CURVE SMOOTH",
"635 723 OFFCURVE",
"672 697 OFFCURVE",
"670 633 CURVE SMOOTH",
"668 573 OFFCURVE",
"624 484 OFFCURVE",
"505 472 CURVE SMOOTH"
);
},
{
closed = 1;
nodes = (
"207 506 OFFCURVE",
"8 246 OFFCURVE",
"8 68 CURVE SMOOTH",
"8 -29 OFFCURVE",
"66 -78 OFFCURVE",
"159 -78 CURVE SMOOTH",
"239 -78 OFFCURVE",
"317 -41 OFFCURVE",
"373 10 CURVE",
"354 44 OFFCURVE",
"343 80 OFFCURVE",
"343 128 CURVE SMOOTH",
"343 183 OFFCURVE",
"363 278 OFFCURVE",
"375 337 CURVE",
"237 295 LINE",
"295 267 OFFCURVE",
"372 253 OFFCURVE",
"456 253 CURVE SMOOTH",
"805 253 OFFCURVE",
"960 401 OFFCURVE",
"1001 597 CURVE SMOOTH",
"1041 817 OFFCURVE",
"886 967 OFFCURVE",
"620 967 CURVE SMOOTH",
"351 967 LINE SMOOTH",
"252 967 OFFCURVE",
"170 952 OFFCURVE",
"121 748 CURVE",
"190 748 OFFCURVE",
"207 738 OFFCURVE",
"207 684 CURVE"
);
},
{
closed = 1;
nodes = (
"382 378 LINE",
"442 139 OFFCURVE",
"548 -98 OFFCURVE",
"661 -98 CURVE SMOOTH",
"760 -98 OFFCURVE",
"825 -17 OFFCURVE",
"880 93 CURVE",
"768 123 OFFCURVE",
"725 192 OFFCURVE",
"607 446 CURVE"
);
}
);
width = 925;
}
);
unicode = 0052;
},
{
glyphname = S;
lastChange = "2016-04-02 06:13:40 +0000";
layers = (
{
background = {
paths = (
{
closed = 1;
nodes = (
"19 281 OFFCURVE",
"-3 235 OFFCURVE",
"-4 148 CURVE SMOOTH",
"-7 9 OFFCURVE",
"141 -78 OFFCURVE",
"351 -78 CURVE SMOOTH",
"617 -78 OFFCURVE",
"824 37 OFFCURVE",
"827 298 CURVE SMOOTH",
"831 565 OFFCURVE",
"507 576 OFFCURVE",
"508 641 CURVE SMOOTH",
"509 677 OFFCURVE",
"550 697 OFFCURVE",
"610 697 CURVE SMOOTH",
"692 697 OFFCURVE",
"779 663 OFFCURVE",
"842 610 CURVE",
"911 639 OFFCURVE",
"943 720 OFFCURVE",
"943 765 CURVE SMOOTH",
"945 910 OFFCURVE",
"766 971 OFFCURVE",
"623 971 CURVE SMOOTH",
"353 971 OFFCURVE",
"118 841 OFFCURVE",
"114 595 CURVE SMOOTH",
"111 369 OFFCURVE",
"417 366 OFFCURVE",
"416 297 CURVE SMOOTH",
"415 243 OFFCURVE",
"390 218 OFFCURVE",
"342 218 CURVE SMOOTH",
"278 218 OFFCURVE",
"146 259 OFFCURVE",
"72 345 CURVE"
);
}
);
};
layerId = "BE599D47-15C2-4DC8-BE97-05FFE6CA3179";
paths = (
{
closed = 1;
nodes = (
"24 351 OFFCURVE",
"-4 291 OFFCURVE",
"-4 221 CURVE SMOOTH",
"-4 62 OFFCURVE",
"141 -16 OFFCURVE",
"352 -16 CURVE SMOOTH",
"617 -16 OFFCURVE",
"827 107 OFFCURVE",
"827 347 CURVE SMOOTH",
"827 640 OFFCURVE",
"516 629 OFFCURVE",
"508 703 CURVE SMOOTH",
"506 726 OFFCURVE",
"532 759 OFFCURVE",
"611 759 CURVE SMOOTH",
"691 759 OFFCURVE",
"779 725 OFFCURVE",
"842 672 CURVE",
"914 704 OFFCURVE",
"943 780 OFFCURVE",
"943 835 CURVE SMOOTH",
"943 960 OFFCURVE",
"791 1033 OFFCURVE",
"609 1033 CURVE SMOOTH",
"359 1033 OFFCURVE",
"114 896 OFFCURVE",
"114 669 CURVE SMOOTH",
"114 416 OFFCURVE",
"416 449 OFFCURVE",
"416 343 CURVE SMOOTH",
"416 313 OFFCURVE",
"391 280 OFFCURVE",
"339 280 CURVE SMOOTH",
"280 280 OFFCURVE",
"146 321 OFFCURVE",
"72 407 CURVE"
);
}
);
width = 838;
},
{
associatedMasterId = "BE599D47-15C2-4DC8-BE97-05FFE6CA3179";
layerId = "E6D89D02-6F16-40A0-8FDC-A46309A62962";
name = "Regular Italic Mar 28 16, 04:50";
paths = (
{
closed = 1;
nodes = (
"71 230 OFFCURVE",
"71 154 CURVE SMOOTH",
"71 25 OFFCURVE",
"230 -57 OFFCURVE",
"455 -57 CURVE SMOOTH",
"711 -57 OFFCURVE",
"910 38 OFFCURVE",
"910 251 CURVE SMOOTH",
"910 473 OFFCURVE",
"633 481 OFFCURVE",
"633 533 CURVE SMOOTH",
"633 560 OFFCURVE",
"668 574 OFFCURVE",
"720 574 CURVE SMOOTH",
"789 574 OFFCURVE",
"864 546 OFFCURVE",
"919 502 CURVE",
"978 527 OFFCURVE",
"1005 597 OFFCURVE",
"1005 636 CURVE SMOOTH",
"1005 755 OFFCURVE",
"797 805 OFFCURVE",
"633 805 CURVE SMOOTH",
"382 805 OFFCURVE",
"168 700 OFFCURVE",
"168 498 CURVE SMOOTH",
"168 328 OFFCURVE",
"430 308 OFFCURVE",
"430 250 CURVE SMOOTH",
"430 232 OFFCURVE",
"408 223 OFFCURVE",
"366 223 CURVE SMOOTH",
"313 223 OFFCURVE",
"199 256 OFFCURVE",
"134 328 CURVE",
"90 277 OFFCURVE"
);
}
);
width = 980;
},
{
associatedMasterId = "BE599D47-15C2-4DC8-BE97-05FFE6CA3179";
layerId = "B66F1134-B14F-409A-A723-E0BE6579664A";
name = "Regular Italic Mar 28 16, 05:10";
paths = (
{
closed = 1;
nodes = (
"39 271 OFFCURVE",
"38 178 CURVE SMOOTH",
"35 21 OFFCURVE",
"183 -78 OFFCURVE",
"393 -78 CURVE SMOOTH",
"659 -78 OFFCURVE",
"866 37 OFFCURVE",
"869 298 CURVE SMOOTH",
"873 565 OFFCURVE",
"549 576 OFFCURVE",
"550 641 CURVE SMOOTH",
"551 672 OFFCURVE",
"592 689 OFFCURVE",
"652 689 CURVE SMOOTH",
"734 689 OFFCURVE",
"821 655 OFFCURVE",
"884 602 CURVE",
"953 633 OFFCURVE",
"985 718 OFFCURVE",
"985 765 CURVE SMOOTH",
"987 910 OFFCURVE",
"808 971 OFFCURVE",
"665 971 CURVE SMOOTH",
"395 971 OFFCURVE",
"160 841 OFFCURVE",
"156 595 CURVE SMOOTH",
"153 389 OFFCURVE",
"459 366 OFFCURVE",
"458 297 CURVE SMOOTH",
"457 273 OFFCURVE",
"432 262 OFFCURVE",
"384 262 CURVE SMOOTH",
"320 262 OFFCURVE",
"188 303 OFFCURVE",
"114 389 CURVE",
"61 329 OFFCURVE"
);
}
);
width = 902;
},
{
associatedMasterId = "BE599D47-15C2-4DC8-BE97-05FFE6CA3179";
background = {
paths = (
{
closed = 1;
nodes = (
"61 281 OFFCURVE",
"39 235 OFFCURVE",
"38 148 CURVE SMOOTH",
"35 9 OFFCURVE",
"183 -78 OFFCURVE",
"393 -78 CURVE SMOOTH",
"659 -78 OFFCURVE",
"866 37 OFFCURVE",
"869 298 CURVE SMOOTH",
"873 565 OFFCURVE",
"549 576 OFFCURVE",
"550 641 CURVE SMOOTH",
"551 677 OFFCURVE",
"592 697 OFFCURVE",
"652 697 CURVE SMOOTH",
"734 697 OFFCURVE",
"821 663 OFFCURVE",
"884 610 CURVE",
"953 639 OFFCURVE",
"985 720 OFFCURVE",
"985 765 CURVE SMOOTH",
"987 910 OFFCURVE",
"808 971 OFFCURVE",
"665 971 CURVE SMOOTH",
"395 971 OFFCURVE",
"160 841 OFFCURVE",
"156 595 CURVE SMOOTH",
"153 369 OFFCURVE",
"459 366 OFFCURVE",
"458 297 CURVE SMOOTH",
"457 243 OFFCURVE",
"432 218 OFFCURVE",
"384 218 CURVE SMOOTH",
"320 218 OFFCURVE",
"188 259 OFFCURVE",
"114 345 CURVE"
);
}
);
};
layerId = "2E28A237-2436-4176-8332-1FD741639E13";
name = "Regular Italic Mar 28 16, 05:12";
paths = (
{
closed = 1;
nodes = (
"61 281 OFFCURVE",
"39 235 OFFCURVE",
"38 148 CURVE SMOOTH",
"35 9 OFFCURVE",
"183 -78 OFFCURVE",
"393 -78 CURVE SMOOTH",
"659 -78 OFFCURVE",
"866 37 OFFCURVE",
"869 298 CURVE SMOOTH",
"873 565 OFFCURVE",
"549 576 OFFCURVE",
"550 641 CURVE SMOOTH",
"551 677 OFFCURVE",
"592 697 OFFCURVE",
"652 697 CURVE SMOOTH",
"734 697 OFFCURVE",
"821 663 OFFCURVE",
"884 610 CURVE",
"953 639 OFFCURVE",
"985 720 OFFCURVE",
"985 765 CURVE SMOOTH",
"987 910 OFFCURVE",
"808 971 OFFCURVE",
"665 971 CURVE SMOOTH",
"395 971 OFFCURVE",
"160 841 OFFCURVE",
"156 595 CURVE SMOOTH",
"153 369 OFFCURVE",
"459 366 OFFCURVE",
"458 297 CURVE SMOOTH",
"457 243 OFFCURVE",
"432 218 OFFCURVE",
"384 218 CURVE SMOOTH",
"320 218 OFFCURVE",
"188 259 OFFCURVE",
"114 345 CURVE"
);
}
);
width = 902;
}
);
unicode = 0053;
},
{
glyphname = T;
lastChange = "2016-04-02 06:13:40 +0000";
layers = (
{
layerId = "BE599D47-15C2-4DC8-BE97-05FFE6CA3179";
paths = (
{
closed = 1;
nodes = (
"134 33 OFFCURVE",
"192 -16 OFFCURVE",
"285 -16 CURVE SMOOTH",
"365 -16 OFFCURVE",
"443 21 OFFCURVE",
"499 72 CURVE",
"480 106 OFFCURVE",
"469 142 OFFCURVE",
"469 194 CURVE SMOOTH",
"469 384 OFFCURVE",
"614 689 OFFCURVE",
"690 826 CURVE",
"621 752 LINE",
"725 748 LINE SMOOTH",
"841 741 OFFCURVE",
"909 769 OFFCURVE",
"909 931 CURVE SMOOTH",
"909 972 OFFCURVE",
"901 1005 OFFCURVE",
"886 1037 CURVE",
"821 1015 OFFCURVE",
"751 1005 OFFCURVE",
"679 1005 CURVE SMOOTH",
"570 1005 OFFCURVE",
"438 1029 OFFCURVE",
"329 1029 CURVE SMOOTH",
"213 1029 OFFCURVE",
"148 949 OFFCURVE",
"105 753 CURVE",
"175 766 OFFCURVE",
"259 785 OFFCURVE",
"425 761 CURVE",
"345 839 LINE",
"344 658 OFFCURVE",
"134 319 OFFCURVE",
"134 130 CURVE SMOOTH"
);
}
);
width = 734;
},
{
associatedMasterId = "BE599D47-15C2-4DC8-BE97-05FFE6CA3179";
layerId = "86C2F621-93AD-4205-B26E-4FDA6BB0B092";
name = "Regular Italic Mar 25 16, 02:34";
paths = (
{
closed = 1;
nodes = (
"140 -29 OFFCURVE",
"198 -78 OFFCURVE",
"291 -78 CURVE SMOOTH",
"371 -78 OFFCURVE",
"449 -41 OFFCURVE",
"505 10 CURVE",
"486 44 OFFCURVE",
"475 80 OFFCURVE",
"475 128 CURVE SMOOTH",
"475 252 OFFCURVE",
"630 657 OFFCURVE",
"696 764 CURVE",
"627 690 LINE",
"731 686 LINE SMOOTH",
"847 679 OFFCURVE",
"915 707 OFFCURVE",
"915 869 CURVE SMOOTH",
"915 910 OFFCURVE",
"907 943 OFFCURVE",
"892 975 CURVE",
"827 953 OFFCURVE",
"767 943 OFFCURVE",
"705 943 CURVE SMOOTH",
"616 943 OFFCURVE",
"444 967 OFFCURVE",
"335 967 CURVE SMOOTH",
"219 967 OFFCURVE",
"154 887 OFFCURVE",
"111 691 CURVE",
"181 704 OFFCURVE",
"265 723 OFFCURVE",
"431 699 CURVE",
"351 777 LINE",
"350 596 OFFCURVE",
"140 257 OFFCURVE",
"140 68 CURVE SMOOTH"
);
}
);
width = 751;
}
);
unicode = 0054;
},
{
glyphname = U;
lastChange = "2016-04-03 01:55:00 +0000";
layers = (
{
background = {
paths = (
{
closed = 1;
nodes = (
"216 -108 OFFCURVE",
"290 -68 OFFCURVE",
"357 -20 CURVE",
"350 3 OFFCURVE",
"346 27 OFFCURVE",
"346 60 CURVE SMOOTH",
"346 337 OFFCURVE",
"603 692 OFFCURVE",
"594 870 CURVE SMOOTH",
"590 948 OFFCURVE",
"539 967 OFFCURVE",
"464 967 CURVE SMOOTH",
"373 967 OFFCURVE",
"264 939 OFFCURVE",
"168 882 CURVE",
"192 838 OFFCURVE",
"197 793 OFFCURVE",
"197 755 CURVE SMOOTH",
"197 470 OFFCURVE",
"-4 266 OFFCURVE",
"-7 32 CURVE SMOOTH",
"-8 -59 OFFCURVE",
"55 -108 OFFCURVE",
"141 -108 CURVE SMOOTH"
);
},
{
closed = 1;
nodes = (
"751 -108 OFFCURVE",
"825 -68 OFFCURVE",
"892 -20 CURVE",
"885 3 OFFCURVE",
"881 27 OFFCURVE",
"881 60 CURVE SMOOTH",
"881 347 OFFCURVE",
"1138 692 OFFCURVE",
"1129 870 CURVE SMOOTH",
"1125 948 OFFCURVE",
"1074 967 OFFCURVE",
"999 967 CURVE SMOOTH",
"908 967 OFFCURVE",
"799 939 OFFCURVE",
"703 882 CURVE",
"727 838 OFFCURVE",
"732 793 OFFCURVE",
"732 755 CURVE SMOOTH",
"732 480 OFFCURVE",
"531 266 OFFCURVE",
"528 32 CURVE SMOOTH",
"527 -59 OFFCURVE",
"590 -108 OFFCURVE",
"676 -108 CURVE SMOOTH"
);
},
{
closed = 1;
nodes = (
"319 345 LINE",
"730 345 LINE",
"755 530 LINE",
"344 530 LINE"
);
}
);
};
layerId = "BE599D47-15C2-4DC8-BE97-05FFE6CA3179";
paths = (
{
closed = 1;
nodes = (
"34 73 OFFCURVE",
"130 -16 OFFCURVE",
"243 -16 CURVE SMOOTH",
"353 -16 OFFCURVE",
"448 67 OFFCURVE",
"536 156 CURVE",
"545 156 LINE",
"506 40 OFFCURVE",
"537 -16 OFFCURVE",
"659 -16 CURVE SMOOTH",
"756 -16 OFFCURVE",
"824 19 OFFCURVE",
"910 55 CURVE",
"890 77 OFFCURVE",
"883 118 OFFCURVE",
"885 173 CURVE SMOOTH",
"895 438 OFFCURVE",
"1111 713 OFFCURVE",
"1124 889 CURVE SMOOTH",
"1131 987 OFFCURVE",
"1073 1016 OFFCURVE",
"985 1016 CURVE SMOOTH",
"910 1016 OFFCURVE",
"808 995 OFFCURVE",
"716 950 CURVE",
"730 904 OFFCURVE",
"734 870 OFFCURVE",
"733 832 CURVE SMOOTH",
"727 662 OFFCURVE",
"615 332 OFFCURVE",
"503 332 CURVE SMOOTH",
"467 332 OFFCURVE",
"458 367 OFFCURVE",
"458 402 CURVE SMOOTH",
"458 530 OFFCURVE",
"577 730 OFFCURVE",
"583 862 CURVE SMOOTH",
"587 962 OFFCURVE",
"526 1016 OFFCURVE",
"412 1016 CURVE SMOOTH",
"325 1016 OFFCURVE",
"253 985 OFFCURVE",
"141 927 CURVE",
"177 883 OFFCURVE",
"185 860 OFFCURVE",
"183 798 CURVE SMOOTH",
"175 574 OFFCURVE",
"44 351 OFFCURVE",
"39 204 CURVE SMOOTH"
);
}
);
width = 1000;
},
{
associatedMasterId = "BE599D47-15C2-4DC8-BE97-05FFE6CA3179";
background = {
paths = (
{
closed = 1;
nodes = (
"303 -108 OFFCURVE",
"377 -68 OFFCURVE",
"444 -20 CURVE",
"437 3 OFFCURVE",
"433 27 OFFCURVE",
"433 60 CURVE SMOOTH",
"433 337 OFFCURVE",
"690 692 OFFCURVE",
"681 870 CURVE SMOOTH",
"677 948 OFFCURVE",
"626 967 OFFCURVE",
"551 967 CURVE SMOOTH",
"460 967 OFFCURVE",
"351 939 OFFCURVE",
"255 882 CURVE",
"279 838 OFFCURVE",
"284 793 OFFCURVE",
"284 755 CURVE SMOOTH",
"284 470 OFFCURVE",
"83 266 OFFCURVE",
"80 32 CURVE SMOOTH",
"79 -59 OFFCURVE",
"142 -108 OFFCURVE",
"228 -108 CURVE SMOOTH"
);
},
{
closed = 1;
nodes = (
"838 -108 OFFCURVE",
"912 -68 OFFCURVE",
"979 -20 CURVE",
"972 3 OFFCURVE",
"968 27 OFFCURVE",
"968 60 CURVE SMOOTH",
"968 347 OFFCURVE",
"1225 692 OFFCURVE",
"1216 870 CURVE SMOOTH",
"1212 948 OFFCURVE",
"1161 967 OFFCURVE",
"1086 967 CURVE SMOOTH",
"995 967 OFFCURVE",
"886 939 OFFCURVE",
"790 882 CURVE",
"814 838 OFFCURVE",
"819 793 OFFCURVE",
"819 755 CURVE SMOOTH",
"819 480 OFFCURVE",
"618 266 OFFCURVE",
"615 32 CURVE SMOOTH",
"614 -59 OFFCURVE",
"677 -108 OFFCURVE",
"763 -108 CURVE SMOOTH"
);
},
{
closed = 1;
nodes = (
"406 345 LINE",
"817 345 LINE",
"842 530 LINE",
"431 530 LINE"
);
}
);
};
layerId = "4A9A88C6-0EF2-4E8B-9A63-D21FF49ABA7D";
name = "Regular Italic Apr 1 16, 03:58";
paths = (
{
closed = 1;
nodes = (
"24 16 OFFCURVE",
"115 -78 OFFCURVE",
"238 -78 CURVE SMOOTH",
"374 -78 OFFCURVE",
"522 38 OFFCURVE",
"645 164 CURVE",
"654 164 LINE",
"611 -2 OFFCURVE",
"661 -78 OFFCURVE",
"807 -78 CURVE SMOOTH",
"948 -78 OFFCURVE",
"1075 -8 OFFCURVE",
"1159 63 CURVE",
"1135 86 OFFCURVE",
"1128 137 OFFCURVE",
"1128 181 CURVE SMOOTH",
"1128 424 OFFCURVE",
"1345 683 OFFCURVE",
"1345 827 CURVE SMOOTH",
"1345 929 OFFCURVE",
"1235 954 OFFCURVE",
"1112 954 CURVE SMOOTH",
"996 954 OFFCURVE",
"894 932 OFFCURVE",
"788 888 CURVE",
"801 852 OFFCURVE",
"809 812 OFFCURVE",
"809 770 CURVE SMOOTH",
"809 622 OFFCURVE",
"718 329 OFFCURVE",
"607 329 CURVE SMOOTH",
"569 329 OFFCURVE",
"558 363 OFFCURVE",
"558 398 CURVE SMOOTH",
"558 511 OFFCURVE",
"659 689 OFFCURVE",
"659 800 CURVE SMOOTH",
"659 896 OFFCURVE",
"585 954 OFFCURVE",
"432 954 CURVE SMOOTH",
"323 954 OFFCURVE",
"200 923 OFFCURVE",
"102 865 CURVE",
"138 821 OFFCURVE",
"148 799 OFFCURVE",
"148 736 CURVE SMOOTH",
"148 516 OFFCURVE",
"24 288 OFFCURVE",
"24 142 CURVE SMOOTH"
);
}
);
width = 1030;
}
);
unicode = 0055;
},
{
glyphname = V;
lastChange = "2016-04-03 01:55:00 +0000";
layers = (
{
background = {
paths = (
{
closed = 1;
nodes = (
"509 -108 OFFCURVE",
"663 -34 OFFCURVE",
"840 200 CURVE SMOOTH",
"974 378 OFFCURVE",
"1101 678 OFFCURVE",
"1102 809 CURVE SMOOTH",
"1103 929 OFFCURVE",
"1031 953 OFFCURVE",
"973 953 CURVE SMOOTH",
"914 953 OFFCURVE",
"863 930 OFFCURVE",
"806 885 CURVE",
"817 848 OFFCURVE",
"820 803 OFFCURVE",
"820 768 CURVE SMOOTH",
"818 544 OFFCURVE",
"686 265 OFFCURVE",
"559 265 CURVE SMOOTH",
"517 265 OFFCURVE",
"505 295 OFFCURVE",
"505 342 CURVE SMOOTH",
"506 476 OFFCURVE",
"622 651 OFFCURVE",
"623 781 CURVE SMOOTH",
"624 885 OFFCURVE",
"568 953 OFFCURVE",
"425 953 CURVE SMOOTH",
"323 953 OFFCURVE",
"241 921 OFFCURVE",
"134 862 CURVE",
"170 817 OFFCURVE",
"192 772 OFFCURVE",
"191 684 CURVE SMOOTH",
"189 485 OFFCURVE",
"80 281 OFFCURVE",
"79 144 CURVE SMOOTH",
"78 -18 OFFCURVE",
"184 -108 OFFCURVE",
"344 -108 CURVE SMOOTH"
);
}
);
};
layerId = "BE599D47-15C2-4DC8-BE97-05FFE6CA3179";
paths = (
{
closed = 1;
nodes = (
"504 -46 OFFCURVE",
"688 28 OFFCURVE",
"860 262 CURVE SMOOTH",
"1002 455 OFFCURVE",
"1122 743 OFFCURVE",
"1122 877 CURVE SMOOTH",
"1122 988 OFFCURVE",
"1041 1015 OFFCURVE",
"975 1015 CURVE SMOOTH",
"914 1015 OFFCURVE",
"859 992 OFFCURVE",
"799 947 CURVE",
"810 910 OFFCURVE",
"813 865 OFFCURVE",
"813 832 CURVE SMOOTH",
"813 580 OFFCURVE",
"640 267 OFFCURVE",
"511 267 CURVE SMOOTH",
"472 267 OFFCURVE",
"458 296 OFFCURVE",
"458 340 CURVE SMOOTH",
"458 486 OFFCURVE",
"616 690 OFFCURVE",
"616 850 CURVE SMOOTH",
"616 946 OFFCURVE",
"560 1015 OFFCURVE",
"417 1015 CURVE SMOOTH",
"319 1015 OFFCURVE",
"239 983 OFFCURVE",
"134 924 CURVE",
"173 875 OFFCURVE",
"191 831 OFFCURVE",
"191 750 CURVE SMOOTH",
"191 548 OFFCURVE",
"79 350 OFFCURVE",
"79 195 CURVE SMOOTH",
"79 44 OFFCURVE",
"185 -46 OFFCURVE",
"352 -46 CURVE SMOOTH"
);
}
);
width = 987;
},
{
associatedMasterId = "BE599D47-15C2-4DC8-BE97-05FFE6CA3179";
background = {
paths = (
{
closed = 1;
nodes = (
"699 -108 OFFCURVE",
"922 -34 OFFCURVE",
"1097 200 CURVE SMOOTH",
"1229 378 OFFCURVE",
"1354 678 OFFCURVE",
"1354 809 CURVE SMOOTH",
"1354 929 OFFCURVE",
"1249 953 OFFCURVE",
"1170 953 CURVE SMOOTH",
"1095 953 OFFCURVE",
"1022 930 OFFCURVE",
"949 885 CURVE",
"961 848 OFFCURVE",
"964 803 OFFCURVE",
"964 768 CURVE SMOOTH",
"964 544 OFFCURVE",
"835 265 OFFCURVE",
"708 265 CURVE SMOOTH",
"666 265 OFFCURVE",
"653 295 OFFCURVE",
"653 342 CURVE SMOOTH",
"653 476 OFFCURVE",
"767 651 OFFCURVE",
"767 781 CURVE SMOOTH",
"767 885 OFFCURVE",
"695 953 OFFCURVE",
"514 953 CURVE SMOOTH",
"390 953 OFFCURVE",
"260 921 OFFCURVE",
"170 862 CURVE",
"206 817 OFFCURVE",
"228 772 OFFCURVE",
"228 684 CURVE SMOOTH",
"228 485 OFFCURVE",
"121 281 OFFCURVE",
"121 144 CURVE SMOOTH",
"121 -18 OFFCURVE",
"271 -108 OFFCURVE",
"496 -108 CURVE SMOOTH"
);
}
);
};
layerId = "414EA992-A274-4A55-BA35-EA39E363C0B1";
name = "Regular Italic Apr 1 16, 14:41";
paths = (
{
closed = 1;
nodes = (
"699 -108 OFFCURVE",
"922 -34 OFFCURVE",
"1097 200 CURVE SMOOTH",
"1229 378 OFFCURVE",
"1354 678 OFFCURVE",
"1354 809 CURVE SMOOTH",
"1354 929 OFFCURVE",
"1249 953 OFFCURVE",
"1170 953 CURVE SMOOTH",
"1095 953 OFFCURVE",
"1022 930 OFFCURVE",
"949 885 CURVE",
"961 848 OFFCURVE",
"964 803 OFFCURVE",
"964 768 CURVE SMOOTH",
"964 544 OFFCURVE",
"835 265 OFFCURVE",
"708 265 CURVE SMOOTH",
"666 265 OFFCURVE",
"653 295 OFFCURVE",
"653 342 CURVE SMOOTH",
"653 476 OFFCURVE",
"767 651 OFFCURVE",
"767 781 CURVE SMOOTH",
"767 885 OFFCURVE",
"695 953 OFFCURVE",
"514 953 CURVE SMOOTH",
"390 953 OFFCURVE",
"260 921 OFFCURVE",
"170 862 CURVE",
"206 817 OFFCURVE",
"228 772 OFFCURVE",
"228 684 CURVE SMOOTH",
"228 485 OFFCURVE",
"121 281 OFFCURVE",
"121 144 CURVE SMOOTH",
"121 -18 OFFCURVE",
"271 -108 OFFCURVE",
"496 -108 CURVE SMOOTH"
);
}
);
width = 1240;
},
{
associatedMasterId = "BE599D47-15C2-4DC8-BE97-05FFE6CA3179";
background = {
paths = (
{
closed = 1;
nodes = (
"671 -108 OFFCURVE",
"894 -34 OFFCURVE",
"1069 200 CURVE SMOOTH",
"1201 378 OFFCURVE",
"1326 678 OFFCURVE",
"1326 809 CURVE SMOOTH",
"1326 929 OFFCURVE",
"1221 953 OFFCURVE",
"1142 953 CURVE SMOOTH",
"1067 953 OFFCURVE",
"994 930 OFFCURVE",
"921 885 CURVE",
"933 848 OFFCURVE",
"936 803 OFFCURVE",
"936 768 CURVE SMOOTH",
"936 544 OFFCURVE",
"807 265 OFFCURVE",
"680 265 CURVE SMOOTH",
"638 265 OFFCURVE",
"625 295 OFFCURVE",
"625 342 CURVE SMOOTH",
"625 476 OFFCURVE",
"739 651 OFFCURVE",
"739 781 CURVE SMOOTH",
"739 885 OFFCURVE",
"667 953 OFFCURVE",
"486 953 CURVE SMOOTH",
"362 953 OFFCURVE",
"232 921 OFFCURVE",
"142 862 CURVE",
"178 817 OFFCURVE",
"200 772 OFFCURVE",
"200 684 CURVE SMOOTH",
"200 485 OFFCURVE",
"93 281 OFFCURVE",
"93 144 CURVE SMOOTH",
"93 -18 OFFCURVE",
"243 -108 OFFCURVE",
"468 -108 CURVE SMOOTH"
);
}
);
};
layerId = "D3CF1655-F892-4C70-942B-EA316EADB6D5";
name = "Regular Italic Apr 1 16, 14:44";
paths = (
{
closed = 1;
nodes = (
"545 -108 OFFCURVE",
"699 -34 OFFCURVE",
"876 200 CURVE SMOOTH",
"1010 378 OFFCURVE",
"1137 678 OFFCURVE",
"1138 809 CURVE SMOOTH",
"1139 929 OFFCURVE",
"1067 953 OFFCURVE",
"1009 953 CURVE SMOOTH",
"950 953 OFFCURVE",
"899 930 OFFCURVE",
"842 885 CURVE",
"853 848 OFFCURVE",
"856 803 OFFCURVE",
"856 768 CURVE SMOOTH",
"854 544 OFFCURVE",
"722 265 OFFCURVE",
"595 265 CURVE SMOOTH",
"553 265 OFFCURVE",
"541 295 OFFCURVE",
"541 342 CURVE SMOOTH",
"542 476 OFFCURVE",
"658 651 OFFCURVE",
"659 781 CURVE SMOOTH",
"660 885 OFFCURVE",
"604 953 OFFCURVE",
"461 953 CURVE SMOOTH",
"359 953 OFFCURVE",
"277 921 OFFCURVE",
"170 862 CURVE",
"206 817 OFFCURVE",
"228 772 OFFCURVE",
"227 684 CURVE SMOOTH",
"225 485 OFFCURVE",
"116 281 OFFCURVE",
"115 144 CURVE SMOOTH",
"114 -18 OFFCURVE",
"220 -108 OFFCURVE",
"380 -108 CURVE SMOOTH"
);
}
);
width = 1023;
}
);
unicode = 0056;
},
{
glyphname = W;
lastChange = "2016-04-02 06:13:40 +0000";
layers = (
{
background = {
paths = (
{
closed = 1;
nodes = (
"469 -108 OFFCURVE",
"590 -44 OFFCURVE",
"687 99 CURVE",
"693 99 LINE",
"718 -56 OFFCURVE",
"782 -108 OFFCURVE",
"878 -108 CURVE SMOOTH",
"997 -108 OFFCURVE",
"1134 -28 OFFCURVE",
"1283 202 CURVE SMOOTH",
"1413 402 OFFCURVE",
"1528 679 OFFCURVE",
"1530 834 CURVE SMOOTH",
"1532 945 OFFCURVE",
"1476 967 OFFCURVE",
"1412 967 CURVE SMOOTH",
"1333 967 OFFCURVE",
"1270 934 OFFCURVE",
"1209 898 CURVE",
"1220 860 OFFCURVE",
"1222 815 OFFCURVE",
"1221 780 CURVE SMOOTH",
"1218 558 OFFCURVE",
"1093 284 OFFCURVE",
"979 284 CURVE SMOOTH",
"945 284 OFFCURVE",
"935 308 OFFCURVE",
"936 349 CURVE SMOOTH",
"938 488 OFFCURVE",
"1056 658 OFFCURVE",
"1059 799 CURVE SMOOTH",
"1061 895 OFFCURVE",
"1008 967 OFFCURVE",
"895 967 CURVE SMOOTH",
"832 967 OFFCURVE",
"762 944 OFFCURVE",
"709 898 CURVE",
"720 860 OFFCURVE",
"722 815 OFFCURVE",
"721 780 CURVE SMOOTH",
"718 558 OFFCURVE",
"593 284 OFFCURVE",
"476 284 CURVE SMOOTH",
"452 284 OFFCURVE",
"435 296 OFFCURVE",
"436 346 CURVE SMOOTH",
"438 477 OFFCURVE",
"557 654 OFFCURVE",
"560 801 CURVE SMOOTH",
"562 898 OFFCURVE",
"512 967 OFFCURVE",
"383 967 CURVE SMOOTH",
"282 967 OFFCURVE",
"207 924 OFFCURVE",
"139 874 CURVE",
"169 839 OFFCURVE",
"196 784 OFFCURVE",
"194 707 CURVE SMOOTH",
"192 569 OFFCURVE",
"98 335 OFFCURVE",
"95 180 CURVE SMOOTH",
"93 57 OFFCURVE",
"146 -108 OFFCURVE",
"345 -108 CURVE SMOOTH"
);
}
);
};
layerId = "BE599D47-15C2-4DC8-BE97-05FFE6CA3179";
paths = (
{
closed = 1;
nodes = (
"469 -46 OFFCURVE",
"590 18 OFFCURVE",
"687 161 CURVE",
"693 161 LINE",
"718 6 OFFCURVE",
"782 -46 OFFCURVE",
"878 -46 CURVE SMOOTH",
"997 -46 OFFCURVE",
"1134 34 OFFCURVE",
"1283 264 CURVE SMOOTH",
"1415 468 OFFCURVE",
"1528 741 OFFCURVE",
"1530 896 CURVE SMOOTH",
"1532 1007 OFFCURVE",
"1476 1029 OFFCURVE",
"1412 1029 CURVE SMOOTH",
"1333 1029 OFFCURVE",
"1270 996 OFFCURVE",
"1209 960 CURVE",
"1220 922 OFFCURVE",
"1222 878 OFFCURVE",
"1221 842 CURVE SMOOTH",
"1215 604 OFFCURVE",
"1087 324 OFFCURVE",
"968 324 CURVE SMOOTH",
"934 324 OFFCURVE",
"924 348 OFFCURVE",
"925 389 CURVE SMOOTH",
"928 533 OFFCURVE",
"1057 714 OFFCURVE",
"1059 861 CURVE SMOOTH",
"1061 957 OFFCURVE",
"1008 1029 OFFCURVE",
"895 1029 CURVE SMOOTH",
"832 1029 OFFCURVE",
"762 1006 OFFCURVE",
"709 960 CURVE",
"720 922 OFFCURVE",
"722 878 OFFCURVE",
"721 842 CURVE SMOOTH",
"715 604 OFFCURVE",
"587 324 OFFCURVE",
"466 324 CURVE SMOOTH",
"441 324 OFFCURVE",
"424 336 OFFCURVE",
"425 386 CURVE SMOOTH",
"428 523 OFFCURVE",
"557 709 OFFCURVE",
"560 863 CURVE SMOOTH",
"562 960 OFFCURVE",
"512 1029 OFFCURVE",
"383 1029 CURVE SMOOTH",
"282 1029 OFFCURVE",
"207 986 OFFCURVE",
"139 936 CURVE",
"168 902 OFFCURVE",
"196 849 OFFCURVE",
"194 769 CURVE SMOOTH",
"191 627 OFFCURVE",
"98 396 OFFCURVE",
"95 242 CURVE SMOOTH",
"93 119 OFFCURVE",
"146 -46 OFFCURVE",
"345 -46 CURVE SMOOTH"
);
}
);
width = 1397;
},
{
associatedMasterId = "BE599D47-15C2-4DC8-BE97-05FFE6CA3179";
background = {
paths = (
{
closed = 1;
nodes = (
"669 -108 OFFCURVE",
"819 -56 OFFCURVE",
"944 99 CURVE",
"950 99 LINE",
"950 -62 OFFCURVE",
"1075 -108 OFFCURVE",
"1207 -108 CURVE SMOOTH",
"1380 -108 OFFCURVE",
"1575 -29 OFFCURVE",
"1739 204 CURVE SMOOTH",
"1874 396 OFFCURVE",
"1984 687 OFFCURVE",
"1984 812 CURVE SMOOTH",
"1984 945 OFFCURVE",
"1861 967 OFFCURVE",
"1769 967 CURVE SMOOTH",
"1674 967 OFFCURVE",
"1601 944 OFFCURVE",
"1522 898 CURVE",
"1534 860 OFFCURVE",
"1537 815 OFFCURVE",
"1537 780 CURVE SMOOTH",
"1537 558 OFFCURVE",
"1417 284 OFFCURVE",
"1303 284 CURVE SMOOTH",
"1269 284 OFFCURVE",
"1259 308 OFFCURVE",
"1259 349 CURVE SMOOTH",
"1259 485 OFFCURVE",
"1374 666 OFFCURVE",
"1374 792 CURVE SMOOTH",
"1374 898 OFFCURVE",
"1292 967 OFFCURVE",
"1137 967 CURVE SMOOTH",
"1047 967 OFFCURVE",
"964 944 OFFCURVE",
"883 898 CURVE",
"895 860 OFFCURVE",
"898 815 OFFCURVE",
"898 780 CURVE SMOOTH",
"898 558 OFFCURVE",
"778 284 OFFCURVE",
"661 284 CURVE SMOOTH",
"637 284 OFFCURVE",
"620 296 OFFCURVE",
"620 345 CURVE SMOOTH",
"620 473 OFFCURVE",
"736 664 OFFCURVE",
"736 792 CURVE SMOOTH",
"736 898 OFFCURVE",
"655 967 OFFCURVE",
"477 967 CURVE SMOOTH",
"350 967 OFFCURVE",
"249 932 OFFCURVE",
"175 874 CURVE",
"205 839 OFFCURVE",
"233 784 OFFCURVE",
"233 707 CURVE SMOOTH",
"233 565 OFFCURVE",
"143 343 OFFCURVE",
"143 172 CURVE SMOOTH",
"143 14 OFFCURVE",
"219 -108 OFFCURVE",
"491 -108 CURVE SMOOTH"
);
}
);
};
layerId = "8521A39D-13AC-426D-802D-5981BAAA1653";
name = "Regular Italic Apr 1 16, 14:54";
paths = (
{
closed = 1;
nodes = (
"669 -108 OFFCURVE",
"819 -56 OFFCURVE",
"944 99 CURVE",
"950 99 LINE",
"950 -62 OFFCURVE",
"1075 -108 OFFCURVE",
"1207 -108 CURVE SMOOTH",
"1380 -108 OFFCURVE",
"1575 -29 OFFCURVE",
"1739 204 CURVE SMOOTH",
"1874 396 OFFCURVE",
"1984 687 OFFCURVE",
"1984 812 CURVE SMOOTH",
"1984 945 OFFCURVE",
"1861 967 OFFCURVE",
"1769 967 CURVE SMOOTH",
"1674 967 OFFCURVE",
"1601 944 OFFCURVE",
"1522 898 CURVE",
"1534 860 OFFCURVE",
"1537 815 OFFCURVE",
"1537 780 CURVE SMOOTH",
"1537 558 OFFCURVE",
"1417 284 OFFCURVE",
"1303 284 CURVE SMOOTH",
"1269 284 OFFCURVE",
"1259 308 OFFCURVE",
"1259 349 CURVE SMOOTH",
"1259 485 OFFCURVE",
"1374 666 OFFCURVE",
"1374 792 CURVE SMOOTH",
"1374 898 OFFCURVE",
"1292 967 OFFCURVE",
"1137 967 CURVE SMOOTH",
"1047 967 OFFCURVE",
"964 944 OFFCURVE",
"883 898 CURVE",
"895 860 OFFCURVE",
"898 815 OFFCURVE",
"898 780 CURVE SMOOTH",
"898 558 OFFCURVE",
"778 284 OFFCURVE",
"661 284 CURVE SMOOTH",
"637 284 OFFCURVE",
"620 296 OFFCURVE",
"620 345 CURVE SMOOTH",
"620 473 OFFCURVE",
"736 664 OFFCURVE",
"736 792 CURVE SMOOTH",
"736 898 OFFCURVE",
"655 967 OFFCURVE",
"477 967 CURVE SMOOTH",
"350 967 OFFCURVE",
"249 932 OFFCURVE",
"175 874 CURVE",
"205 839 OFFCURVE",
"233 784 OFFCURVE",
"233 707 CURVE SMOOTH",
"233 565 OFFCURVE",
"143 343 OFFCURVE",
"143 172 CURVE SMOOTH",
"143 14 OFFCURVE",
"219 -108 OFFCURVE",
"491 -108 CURVE SMOOTH"
);
}
);
width = 1872;
}
);
unicode = 0057;
},
{
glyphname = X;
lastChange = "2016-04-02 06:13:40 +0000";
layers = (
{
background = {
paths = (
{
closed = 1;
nodes = (
"-12 -28 OFFCURVE",
"52 -107 OFFCURVE",
"141 -107 CURVE SMOOTH",
"248 -107 OFFCURVE",
"391 36 OFFCURVE",
"530 213 CURVE",
"449 288 LINE",
"582 31 OFFCURVE",
"615 -108 OFFCURVE",
"761 -108 CURVE SMOOTH",
"837 -108 OFFCURVE",
"928 -24 OFFCURVE",
"969 114 CURVE",
"889 134 OFFCURVE",
"747 310 OFFCURVE",
"698 464 CURVE",
"690 337 LINE",
"875 484 OFFCURVE",
"1045 692 OFFCURVE",
"1045 823 CURVE SMOOTH",
"1045 895 OFFCURVE",
"965 966 OFFCURVE",
"800 979 CURVE",
"782 866 OFFCURVE",
"707 746 OFFCURVE",
"592 624 CURVE",
"629 603 LINE",
"562 828 OFFCURVE",
"482 967 OFFCURVE",
"321 967 CURVE SMOOTH",
"206 967 OFFCURVE",
"140 882 OFFCURVE",
"117 758 CURVE",
"200 749 OFFCURVE",
"280 674 OFFCURVE",
"365 410 CURVE",
"374 459 LINE",
"262 332 OFFCURVE",
"132 229 OFFCURVE",
"-33 158 CURVE"
);
}
);
};
layerId = "BE599D47-15C2-4DC8-BE97-05FFE6CA3179";
paths = (
{
closed = 1;
nodes = (
"-37 34 OFFCURVE",
"22 -45 OFFCURVE",
"112 -45 CURVE SMOOTH",
"219 -45 OFFCURVE",
"369 98 OFFCURVE",
"518 275 CURVE",
"441 350 LINE",
"560 93 OFFCURVE",
"585 -46 OFFCURVE",
"731 -46 CURVE SMOOTH",
"807 -46 OFFCURVE",
"903 38 OFFCURVE",
"952 176 CURVE",
"873 196 OFFCURVE",
"740 372 OFFCURVE",
"700 526 CURVE",
"685 399 LINE",
"878 546 OFFCURVE",
"1060 754 OFFCURVE",
"1067 885 CURVE SMOOTH",
"1071 957 OFFCURVE",
"995 1028 OFFCURVE",
"830 1041 CURVE",
"806 928 OFFCURVE",
"724 808 OFFCURVE",
"603 686 CURVE",
"639 665 LINE",
"584 890 OFFCURVE",
"512 1029 OFFCURVE",
"351 1029 CURVE SMOOTH",
"236 1029 OFFCURVE",
"165 944 OFFCURVE",
"135 820 CURVE",
"217 811 OFFCURVE",
"293 736 OFFCURVE",
"364 472 CURVE",
"376 521 LINE",
"257 394 OFFCURVE",
"121 291 OFFCURVE",
"-48 220 CURVE"
);
}
);
width = 973;
},
{
associatedMasterId = "BE599D47-15C2-4DC8-BE97-05FFE6CA3179";
layerId = "3A85FAF1-BAD3-4458-99F7-140465AA0BC5";
name = "Regular Italic Apr 1 16, 15:15";
paths = (
{
closed = 1;
nodes = (
"28 -16 OFFCURVE",
"110 -114 OFFCURVE",
"217 -114 CURVE SMOOTH",
"344 -114 OFFCURVE",
"494 23 OFFCURVE",
"653 196 CURVE",
"550 193 LINE",
"667 -4 OFFCURVE",
"699 -108 OFFCURVE",
"824 -108 CURVE SMOOTH",
"954 -108 OFFCURVE",
"1095 5 OFFCURVE",
"1157 175 CURVE",
"1033 204 OFFCURVE",
"949 326 OFFCURVE",
"903 447 CURVE",
"911 361 LINE",
"1088 491 OFFCURVE",
"1239 697 OFFCURVE",
"1239 812 CURVE SMOOTH",
"1239 900 OFFCURVE",
"1148 963 OFFCURVE",
"935 980 CURVE",
"920 878 OFFCURVE",
"838 768 OFFCURVE",
"711 659 CURVE",
"778 630 LINE",
"702 838 OFFCURVE",
"610 968 OFFCURVE",
"449 968 CURVE SMOOTH",
"288 968 OFFCURVE",
"166 837 OFFCURVE",
"138 700 CURVE",
"213 691 OFFCURVE",
"311 625 OFFCURVE",
"410 389 CURVE",
"433 464 LINE",
"318 348 OFFCURVE",
"164 251 OFFCURVE",
"2 185 CURVE"
);
}
);
width = 1188;
},
{
associatedMasterId = "BE599D47-15C2-4DC8-BE97-05FFE6CA3179";
background = {
paths = (
{
closed = 1;
nodes = (
"26 -20 OFFCURVE",
"92 -108 OFFCURVE",
"182 -108 CURVE SMOOTH",
"291 -108 OFFCURVE",
"422 31 OFFCURVE",
"562 208 CURVE",
"491 271 LINE",
"622 19 OFFCURVE",
"657 -108 OFFCURVE",
"801 -108 CURVE SMOOTH",
"881 -108 OFFCURVE",
"969 -22 OFFCURVE",
"1011 119 CURVE",
"929 140 OFFCURVE",
"791 311 OFFCURVE",
"742 463 CURVE",
"735 339 LINE",
"919 485 OFFCURVE",
"1079 711 OFFCURVE",
"1079 840 CURVE SMOOTH",
"1079 914 OFFCURVE",
"1007 966 OFFCURVE",
"838 979 CURVE",
"820 867 OFFCURVE",
"745 748 OFFCURVE",
"629 627 CURVE",
"657 605 LINE",
"589 829 OFFCURVE",
"508 967 OFFCURVE",
"358 967 CURVE SMOOTH",
"240 967 OFFCURVE",
"169 882 OFFCURVE",
"146 757 CURVE",
"228 748 OFFCURVE",
"309 673 OFFCURVE",
"396 408 CURVE",
"414 467 LINE",
"302 341 OFFCURVE",
"170 238 OFFCURVE",
"5 168 CURVE"
);
}
);
};
layerId = "85B62FCE-BB9B-4BF8-8081-82AA02A29275";
name = "Regular Italic Apr 1 16, 15:29";
paths = (
{
closed = 1;
nodes = (
"26 -28 OFFCURVE",
"90 -107 OFFCURVE",
"179 -107 CURVE SMOOTH",
"286 -107 OFFCURVE",
"429 36 OFFCURVE",
"568 213 CURVE",
"487 288 LINE",
"620 31 OFFCURVE",
"653 -108 OFFCURVE",
"799 -108 CURVE SMOOTH",
"875 -108 OFFCURVE",
"966 -24 OFFCURVE",
"1007 114 CURVE",
"927 134 OFFCURVE",
"785 310 OFFCURVE",
"736 464 CURVE",
"728 337 LINE",
"913 484 OFFCURVE",
"1083 692 OFFCURVE",
"1083 823 CURVE SMOOTH",
"1083 895 OFFCURVE",
"1003 966 OFFCURVE",
"838 979 CURVE",
"820 866 OFFCURVE",
"745 746 OFFCURVE",
"630 624 CURVE",
"667 603 LINE",
"600 828 OFFCURVE",
"520 967 OFFCURVE",
"359 967 CURVE SMOOTH",
"244 967 OFFCURVE",
"178 882 OFFCURVE",
"155 758 CURVE",
"238 749 OFFCURVE",
"318 674 OFFCURVE",
"403 410 CURVE",
"412 459 LINE",
"300 332 OFFCURVE",
"170 229 OFFCURVE",
"5 158 CURVE"
);
}
);
width = 1056;
},
{
associatedMasterId = "BE599D47-15C2-4DC8-BE97-05FFE6CA3179";
background = {
paths = (
{
closed = 1;
nodes = (
"-6 -28 OFFCURVE",
"53 -107 OFFCURVE",
"143 -107 CURVE SMOOTH",
"250 -107 OFFCURVE",
"400 36 OFFCURVE",
"548 213 CURVE",
"471 288 LINE",
"591 31 OFFCURVE",
"616 -108 OFFCURVE",
"762 -108 CURVE SMOOTH",
"838 -108 OFFCURVE",
"934 -24 OFFCURVE",
"982 114 CURVE",
"903 134 OFFCURVE",
"770 310 OFFCURVE",
"729 464 CURVE",
"715 337 LINE",
"908 484 OFFCURVE",
"1088 692 OFFCURVE",
"1095 823 CURVE SMOOTH",
"1099 895 OFFCURVE",
"1023 966 OFFCURVE",
"858 979 CURVE",
"835 866 OFFCURVE",
"753 746 OFFCURVE",
"632 624 CURVE",
"668 603 LINE",
"613 828 OFFCURVE",
"540 967 OFFCURVE",
"379 967 CURVE SMOOTH",
"264 967 OFFCURVE",
"193 882 OFFCURVE",
"164 758 CURVE",
"246 749 OFFCURVE",
"322 674 OFFCURVE",
"394 410 CURVE",
"405 459 LINE",
"287 332 OFFCURVE",
"151 229 OFFCURVE",
"-18 158 CURVE"
);
}
);
};
layerId = "36F222CD-0DF5-4D8D-BE50-C09461F6EEE8";
name = "Regular Italic Apr 1 16, 15:30";
paths = (
{
closed = 1;
nodes = (
"18 -28 OFFCURVE",
"82 -107 OFFCURVE",
"171 -107 CURVE SMOOTH",
"278 -107 OFFCURVE",
"421 36 OFFCURVE",
"560 213 CURVE",
"479 288 LINE",
"612 31 OFFCURVE",
"645 -108 OFFCURVE",
"791 -108 CURVE SMOOTH",
"867 -108 OFFCURVE",
"958 -24 OFFCURVE",
"999 114 CURVE",
"919 134 OFFCURVE",
"777 310 OFFCURVE",
"728 464 CURVE",
"720 337 LINE",
"905 484 OFFCURVE",
"1075 692 OFFCURVE",
"1075 823 CURVE SMOOTH",
"1075 895 OFFCURVE",
"995 966 OFFCURVE",
"830 979 CURVE",
"812 866 OFFCURVE",
"737 746 OFFCURVE",
"622 624 CURVE",
"659 603 LINE",
"592 828 OFFCURVE",
"512 967 OFFCURVE",
"351 967 CURVE SMOOTH",
"236 967 OFFCURVE",
"170 882 OFFCURVE",
"147 758 CURVE",
"230 749 OFFCURVE",
"310 674 OFFCURVE",
"395 410 CURVE",
"404 459 LINE",
"292 332 OFFCURVE",
"162 229 OFFCURVE",
"-3 158 CURVE"
);
}
);
width = 1030;
}
);
unicode = 0058;
},
{
glyphname = Y;
lastChange = "2016-04-03 01:55:00 +0000";
layers = (
{
background = {
paths = (
{
closed = 1;
nodes = (
"471 -108 OFFCURVE",
"545 -68 OFFCURVE",
"612 -20 CURVE",
"605 3 OFFCURVE",
"601 27 OFFCURVE",
"601 60 CURVE SMOOTH",
"601 347 OFFCURVE",
"858 692 OFFCURVE",
"849 870 CURVE SMOOTH",
"845 948 OFFCURVE",
"794 967 OFFCURVE",
"719 967 CURVE SMOOTH",
"628 967 OFFCURVE",
"519 939 OFFCURVE",
"423 882 CURVE",
"447 838 OFFCURVE",
"452 793 OFFCURVE",
"452 755 CURVE SMOOTH",
"452 470 OFFCURVE",
"251 266 OFFCURVE",
"248 32 CURVE SMOOTH",
"247 -59 OFFCURVE",
"310 -108 OFFCURVE",
"396 -108 CURVE SMOOTH"
);
}
);
};
layerId = "BE599D47-15C2-4DC8-BE97-05FFE6CA3179";
paths = (
{
closed = 1;
nodes = (
"333 412 OFFCURVE",
"248 202 OFFCURVE",
"248 112 CURVE SMOOTH",
"248 14 OFFCURVE",
"306 -46 OFFCURVE",
"380 -46 CURVE SMOOTH",
"472 -46 OFFCURVE",
"527 -20 OFFCURVE",
"612 42 CURVE",
"578 172 OFFCURVE",
"628 324 OFFCURVE",
"709 526 CURVE",
"561 298 LINE",
"806 475 OFFCURVE",
"1036 727 OFFCURVE",
"1045 885 CURVE SMOOTH",
"1049 957 OFFCURVE",
"973 1028 OFFCURVE",
"808 1041 CURVE",
"781 912 OFFCURVE",
"688 775 OFFCURVE",
"551 636 CURVE",
"587 615 LINE",
"538 871 OFFCURVE",
"473 1029 OFFCURVE",
"329 1029 CURVE SMOOTH",
"214 1029 OFFCURVE",
"143 944 OFFCURVE",
"113 820 CURVE",
"197 807 OFFCURVE",
"272 694 OFFCURVE",
"345 298 CURVE",
"418 595 LINE"
);
}
);
width = 877;
},
{
associatedMasterId = "BE599D47-15C2-4DC8-BE97-05FFE6CA3179";
background = {
paths = (
{
closed = 1;
nodes = (
"-7 -28 OFFCURVE",
"52 -107 OFFCURVE",
"142 -107 CURVE SMOOTH",
"249 -107 OFFCURVE",
"399 36 OFFCURVE",
"548 213 CURVE",
"471 288 LINE",
"590 31 OFFCURVE",
"615 -108 OFFCURVE",
"761 -108 CURVE SMOOTH",
"837 -108 OFFCURVE",
"933 -24 OFFCURVE",
"982 114 CURVE",
"903 134 OFFCURVE",
"770 310 OFFCURVE",
"730 464 CURVE",
"715 337 LINE",
"908 484 OFFCURVE",
"1090 692 OFFCURVE",
"1097 823 CURVE SMOOTH",
"1101 895 OFFCURVE",
"1025 966 OFFCURVE",
"860 979 CURVE",
"836 866 OFFCURVE",
"754 746 OFFCURVE",
"633 624 CURVE",
"669 603 LINE",
"614 828 OFFCURVE",
"542 967 OFFCURVE",
"381 967 CURVE SMOOTH",
"266 967 OFFCURVE",
"195 882 OFFCURVE",
"165 758 CURVE",
"247 749 OFFCURVE",
"323 674 OFFCURVE",
"394 410 CURVE",
"406 459 LINE",
"287 332 OFFCURVE",
"151 229 OFFCURVE",
"-18 158 CURVE"
);
}
);
};
layerId = "41728D36-81EB-4D97-B4C8-AC1AC54AC472";
name = "Regular Italic Apr 2 16, 00:34";
paths = (
{
closed = 1;
nodes = (
"-7 -28 OFFCURVE",
"52 -107 OFFCURVE",
"142 -107 CURVE SMOOTH",
"249 -107 OFFCURVE",
"399 36 OFFCURVE",
"548 213 CURVE",
"471 288 LINE",
"590 31 OFFCURVE",
"615 -108 OFFCURVE",
"761 -108 CURVE SMOOTH",
"837 -108 OFFCURVE",
"933 -24 OFFCURVE",
"982 114 CURVE",
"903 134 OFFCURVE",
"770 310 OFFCURVE",
"730 464 CURVE",
"715 337 LINE",
"908 484 OFFCURVE",
"1090 692 OFFCURVE",
"1097 823 CURVE SMOOTH",
"1101 895 OFFCURVE",
"1025 966 OFFCURVE",
"860 979 CURVE",
"836 866 OFFCURVE",
"754 746 OFFCURVE",
"633 624 CURVE",
"669 603 LINE",
"614 828 OFFCURVE",
"542 967 OFFCURVE",
"381 967 CURVE SMOOTH",
"266 967 OFFCURVE",
"195 882 OFFCURVE",
"165 758 CURVE",
"247 749 OFFCURVE",
"323 674 OFFCURVE",
"394 410 CURVE",
"406 459 LINE",
"287 332 OFFCURVE",
"151 229 OFFCURVE",
"-18 158 CURVE"
);
}
);
width = 1030;
},
{
associatedMasterId = "BE599D47-15C2-4DC8-BE97-05FFE6CA3179";
background = {
paths = (
{
closed = 1;
nodes = (
"523 -108 OFFCURVE",
"597 -68 OFFCURVE",
"664 -20 CURVE",
"657 3 OFFCURVE",
"653 27 OFFCURVE",
"653 60 CURVE SMOOTH",
"653 347 OFFCURVE",
"910 692 OFFCURVE",
"901 870 CURVE SMOOTH",
"897 948 OFFCURVE",
"846 967 OFFCURVE",
"771 967 CURVE SMOOTH",
"680 967 OFFCURVE",
"571 939 OFFCURVE",
"475 882 CURVE",
"499 838 OFFCURVE",
"504 793 OFFCURVE",
"504 755 CURVE SMOOTH",
"504 470 OFFCURVE",
"303 266 OFFCURVE",
"300 32 CURVE SMOOTH",
"299 -59 OFFCURVE",
"362 -108 OFFCURVE",
"448 -108 CURVE SMOOTH"
);
}
);
};
layerId = "585D9451-0EA8-4960-9FD3-231B4812822F";
name = "Regular Italic Apr 2 16, 00:36";
paths = (
{
closed = 1;
nodes = (
"385 350 OFFCURVE",
"300 140 OFFCURVE",
"300 50 CURVE SMOOTH",
"300 -48 OFFCURVE",
"358 -108 OFFCURVE",
"432 -108 CURVE SMOOTH",
"524 -108 OFFCURVE",
"579 -82 OFFCURVE",
"664 -20 CURVE",
"630 110 OFFCURVE",
"680 262 OFFCURVE",
"761 464 CURVE",
"613 236 LINE",
"858 413 OFFCURVE",
"1088 665 OFFCURVE",
"1097 823 CURVE SMOOTH",
"1101 895 OFFCURVE",
"1025 966 OFFCURVE",
"860 979 CURVE",
"833 850 OFFCURVE",
"740 713 OFFCURVE",
"603 574 CURVE",
"639 553 LINE",
"590 809 OFFCURVE",
"525 967 OFFCURVE",
"381 967 CURVE SMOOTH",
"266 967 OFFCURVE",
"195 882 OFFCURVE",
"165 758 CURVE",
"249 745 OFFCURVE",
"324 632 OFFCURVE",
"397 236 CURVE",
"470 533 LINE"
);
}
);
width = 1030;
}
);
unicode = 0059;
},
